<?xml version="1.0" encoding="utf-8" standalone="no"?>
<!-- Generator: DataGraph - https://www.visualdatatools.com/DataGraph/index.html  --><!DOCTYPE svg PUBLIC "-//W3C//DTD SVG 1.1//EN" "http://www.w3.org/Graphics/SVG/1.1/DTD/svg11.dtd">
<svg width="243.78" height="243.78" version="1.1" xmlns="http://www.w3.org/2000/svg" xmlns:xlink="http://www.w3.org/1999/xlink">
<g>
  <!-- Background -->
  <g id="Background">
    <!-- Grid -->
    <g id="Grid">
      <path d="M 63.4378 209.28 L 63.4378 9.27953 M 175.847 209.28 L 175.847 9.27953 "
        stroke="black" stroke-dasharray="0.00997506,3.99002" stroke-linecap="round" fill="none" stroke-width="0.5"/>
    </g>
  </g>
  <!-- Commands -->
  <g id="Commands">
    <!-- Legend -->
    <g id="Legend">
      <g>
        <path d="M 69.4795 27.2795 L 80.4795 27.2795 "
          stroke="black" fill="none" stroke-width="2.25"/>
        <g font-family="Helvetica" font-size="9" fill="black">
          <text x="84.4795" y="30.0573">0.00001</text>
        </g>
        <path d="M 69.4795 37.2795 L 80.4795 37.2795 "
          stroke="rgb(57,15,110)" stroke-dasharray="0.024,4" stroke-dashoffset="2.56" stroke-linecap="round" fill="none" stroke-width="2.4"/>
        <g font-family="Helvetica" font-size="9" fill="black">
          <text x="84.4795" y="40.8573">0.001</text>
        </g>
        <path d="M 69.4795 48.2795 L 80.4795 48.2795 "
          stroke="rgb(128,36,129)" stroke-dasharray="0.018,4,8,4" stroke-dashoffset="2.518" stroke-linecap="round" fill="none" stroke-width="1.8"/>
        <g font-family="Helvetica" font-size="9" fill="black">
          <text x="84.4795" y="51.6573">0.004</text>
        </g>
        <path d="M 131.48 27.2795 L 142.48 27.2795 "
          stroke="rgb(237,89,94)" stroke-dasharray="8,5" stroke-dashoffset="11.5" stroke-linecap="butt" fill="none" stroke-width="2.25"/>
        <g font-family="Helvetica" font-size="9" fill="black">
          <text x="146.48" y="30.0573">0.008 </text>
        </g>
        <path d="M 131.48 37.2795 L 142.48 37.2795 "
          stroke="rgb(252,141,99)" stroke-dasharray="5,3" stroke-dashoffset="5" stroke-linecap="butt" fill="none" stroke-width="2.25"/>
        <g font-family="Helvetica" font-size="9" fill="black">
          <text x="146.48" y="40.8573">0.012</text>
        </g>
        <path d="M 131.48 48.2795 L 142.48 48.2795 "
          stroke="rgb(248,230,32)" stroke-dasharray="0.021,4,0.021,4,0.021,4,8,4" stroke-linecap="round" fill="none" stroke-width="2.1"/>
        <g font-family="Helvetica" font-size="9" fill="black">
          <text x="146.48" y="51.6573">0.63</text>
        </g>
        <path d="M 193.48 27.2795 L 204.48 27.2795 "
          stroke="rgb(51,165,252)" fill="none" stroke-width="1.5"/>
        <g font-family="Helvetica" font-size="9" fill="black">
          <text x="208.48" y="30.0573">1.5</text>
        </g>
        <g font-family="Helvetica" font-size="9" fill="black">
          <text x="69.4795" y="19.2573">τ/τ</text>
          <text x="80.98" y="21.1399" font-size="7">perc</text>
        </g>
      </g>
    </g>
    <!-- 0.00001 -->
    <g id="0_00001">
      <defs>
        <clipPath id="clipPath">
          <rect x="38.5" y="9.27953" width="190.98" height="200"/>
        </clipPath>
      </defs>
      <g clip-path="url(#clipPath)">
        <path d="M 40.8002 138.142 L 44.1 138.39 L 47.1909 138.828 L 50.4991 139.501 L 54.7102 140.58 
                 L 60.9024 142.17 L 63.7269 142.663 L 66.1073 142.876 L 68.377 142.887 L 71.0733 142.678 
                 L 75.3408 142.086 L 78.595 141.719 L 81.0079 141.643 L 83.3072 141.764 L 86.2776 142.142 
                 L 91.2074 142.801 L 93.9099 142.932 L 99.9312 143.123 L 102.478 143.492 L 106.954 144.183 
                 L 109.167 144.265 L 115.262 144.326 L 120.774 144.904 L 123.269 145.314 L 127.904 146.21 
                 L 129.752 146.237 L 140.28 146.052 L 141.721 146.031 L 143 145.79 L 148.508 144.22 L 150.969 143.308 
                 L 153.748 142.524 L 156.148 141.551 L 158.654 140.88 L 160.536 140.108 L 161.327 140.074 
                 L 163.823 140.205 L 165.216 140.112 L 166.16 140.307 L 170.145 141.641 L 171.805 142.151 
                 L 173.218 142.67 L 176.925 144.16 L 178.023 144.374 L 180.287 144.549 L 182.29 144.296 
                 L 183.59 143.97 L 185.161 143.388 L 186.683 142.717 L 187.8 142.354 L 189.313 141.594 
                 L 190.826 141.471 L 191.853 141.039 L 192.446 141.123 L 193.355 141.284 L 194.394 141.365 
                 L 199.014 143.094 L 200.09 143.524 L 202.048 143.786 L 203.077 143.721 L 204.119 143.553 
                 L 205.576 143.02 L 206.271 142.883 L 208.269 142.048 L 210.642 141.704 L 212.588 142.07 
                 L 213.843 142.473 L 215.012 142.927 L 216.821 143.296 L 217.597 143.326 L 218.219 143.297 
                 L 223.371 141.984 L 224.539 142.074 L 225.911 142.438 L 227.683 142.932 L 228.639 143.074 
                 L 229.279 143.165 L 233.965 142.191 L 288.255 142.622 "
          stroke="black" fill="none" stroke-width="2.25"/>
      </g>
    </g>
    <!-- 0.001 -->
    <g id="0_001">
      <defs>
        <clipPath id="clipPath2">
          <rect x="38.5" y="9.27953" width="190.98" height="200"/>
        </clipPath>
      </defs>
      <g clip-path="url(#clipPath2)">
        <path d="M 32.7333 135.288 L 43.6269 141.505 L 52.5276 135.973 L 60.053 135.457 L 66.5718 131.452 
                 L 72.3218 132.711 L 77.4653 129.791 L 82.1183 129.533 L 86.366 128.644 L 90.2736 128.788 
                 L 93.8915 130.412 L 97.2596 131.384 L 100.41 131.383 L 103.37 131.9 L 106.16 135.102 
                 L 108.8 135.908 L 111.304 137.217 L 113.686 139.374 L 115.957 140.453 L 118.127 142.808 
                 L 120.205 144.769 L 122.197 145.311 L 124.112 147.364 L 125.955 148.558 L 127.73 150.3 
                 L 129.443 150.98 L 131.098 151.32 L 132.699 151.932 L 134.249 151.589 L 135.751 152.552 
                 L 137.208 152.17 L 138.623 152.72 L 139.999 152.078 L 141.336 151.578 L 142.638 151.553 
                 L 143.906 150.88 L 145.142 150.698 L 146.348 149.539 L 147.524 148.888 L 149.795 147.14 
                 L 150.892 146.775 L 151.965 144.959 L 153.015 144.011 L 154.043 143.331 L 155.05 141.927 
                 L 156.036 141.69 L 157.003 140.374 L 157.951 139.388 L 158.88 138.751 L 159.793 138.442 
                 L 160.689 137.851 L 161.568 137.72 L 162.432 137.18 L 164.116 136.902 L 164.937 137.299 
                 L 165.743 137.309 L 167.318 138.04 L 168.087 138.753 L 169.589 139.851 L 171.76 141.893 
                 L 172.462 142.063 L 173.154 142.763 L 173.837 143.725 L 174.511 144.286 L 175.83 144.478 
                 L 176.477 145.151 L 177.115 145.411 L 177.745 145.842 L 178.367 146.034 L 178.981 145.767 
                 L 180.186 146.445 L 181.363 145.617 L 181.94 145.77 L 182.511 145.651 L 183.076 145.285 
                 L 183.634 144.802 L 184.185 144.65 L 185.27 143.98 L 185.804 143.729 L 186.332 143.271 
                 L 186.854 143.145 L 187.881 142.079 L 188.387 141.898 L 188.888 141.524 L 189.384 141.4 
                 L 189.874 140.842 L 193.177 140.439 L 193.631 140.694 L 194.081 140.67 L 194.527 140.921 
                 L 194.969 140.994 L 195.407 141.427 L 196.697 141.764 L 197.12 142.262 L 197.539 142.321 
                 L 197.955 142.683 L 198.367 142.703 L 199.582 143.427 L 199.98 143.275 L 200.376 143.771 
                 L 200.768 143.867 L 201.543 144.291 L 201.926 143.903 L 202.306 143.834 L 202.683 143.95 
                 L 204.162 143.823 L 204.525 143.509 L 206.3 142.9 L 208.014 142.259 L 208.682 141.796 
                 L 209.342 141.875 L 210.315 141.674 L 212.819 142.3 L 213.123 142.388 L 213.426 142.321 
                 L 214.322 142.786 L 214.91 142.892 L 215.491 142.83 L 215.779 143.103 L 216.065 143.054 
                 L 216.35 143.205 L 216.633 143.108 L 216.914 143.174 L 217.194 143.082 L 217.472 143.216 
                 L 217.749 143.216 L 218.024 143.009 L 219.109 143.027 L 219.642 142.678 L 220.17 142.481 
                 L 220.432 142.673 L 221.209 142.446 L 221.465 142.569 L 221.72 142.319 L 221.974 142.28 
                 L 222.226 142.484 L 222.727 142.076 L 222.975 142.228 L 223.468 142.343 L 223.713 142.423 
                 L 224.44 142.329 L 225.156 142.532 L 225.392 142.635 L 225.628 142.476 L 225.862 142.816 
                 L 226.327 142.757 L 226.557 142.928 L 226.787 142.642 L 227.016 142.782 L 227.243 142.718 
                 L 227.47 143.186 L 227.695 142.922 L 227.92 142.993 L 228.143 143.394 L 228.366 142.544 
                 L 228.587 142.813 L 228.808 142.628 L 229.027 142.953 L 229.245 142.737 L 229.463 142.753 
                 L 229.679 142.376 L 229.895 143.016 L 230.323 142.309 L 230.536 142.66 L 230.748 142.759 
                 L 230.958 142.475 L 231.168 142.803 L 231.378 142.807 L 231.586 141.95 L 231.793 141.983 
                 L 231.999 142.169 L 236.521 146.652 "
          stroke="rgb(57,15,110)" stroke-dasharray="0.024,4" stroke-linecap="round" fill="none" stroke-width="2.4"/>
      </g>
    </g>
    <defs>
      <clipPath id="clipPath3">
        <rect x="38.5" y="9.27953" width="190.98" height="200"/>
      </clipPath>
    </defs>
    <!-- 0.004 -->
    <g id="0_004" clip-path="url(#clipPath3)">
      <path d="M 38.5 130.282 C 40.209 131.33 41.9179 131.932 43.6269 131.2 
               C 46.5938 129.929 49.5607 124.636 52.5276 123.238 C 55.036 122.056 57.5445 123.657 60.053 122.186 
               C 62.2259 120.911 64.3989 117.33 66.5718 115.662 C 68.4885 114.191 70.4051 114.21 72.3218 114.018 
               C 74.0363 113.846 75.7508 113.506 77.4653 113.334 C 79.0163 113.178 80.5673 113.159 82.1183 113.235 
               C 83.5342 113.304 84.9501 113.452 86.366 113.507 C 87.6686 113.558 88.9711 113.529 90.2736 114.495 
               C 91.4796 115.39 92.6855 117.137 93.8915 118.161 C 95.0142 119.115 96.1369 119.443 97.2596 120.179 
               C 98.3098 120.867 99.36 121.914 100.41 122.687 C 101.397 123.413 102.383 123.899 103.37 125.327 
               C 104.3 126.673 105.23 128.855 106.16 130.096 C 107.04 131.269 107.92 131.599 108.8 132.266 
               C 109.634 132.898 110.469 133.835 111.304 135.265 C 112.098 136.626 112.892 138.433 113.686 139.76 
               C 114.443 141.026 115.2 141.855 115.957 142.508 C 116.68 143.131 117.403 143.594 118.127 144.536 
               C 118.819 145.438 119.512 146.78 120.205 147.642 C 120.869 148.47 121.533 148.857 122.197 149.358 
               C 122.836 149.839 123.474 150.425 124.112 151.408 C 124.726 152.353 125.34 153.665 125.955 154.434 
               C 126.546 155.175 127.138 155.413 127.73 155.998 C 128.301 156.563 128.872 157.451 129.443 157.963 
               C 129.995 158.457 130.546 158.6 131.098 158.91 C 131.632 159.211 132.165 159.669 132.699 160.004 
               C 133.215 160.328 133.732 160.537 134.249 160.679 C 134.749 160.816 135.25 160.891 135.751 160.996 
               C 136.237 161.097 136.723 161.227 137.208 161.416 C 137.68 161.599 138.152 161.838 138.623 161.566 
               C 139.082 161.302 139.54 160.557 139.999 160.224 C 140.445 159.901 140.89 159.969 141.336 159.837 
               C 141.77 159.708 142.204 159.389 142.638 158.928 C 143.061 158.479 143.484 157.896 143.906 157.475 
               C 144.318 157.065 144.73 156.81 145.142 156.404 C 145.544 156.008 145.946 155.468 146.348 155.071 
               C 146.74 154.685 147.132 154.434 147.524 153.993 C 147.907 153.562 148.29 152.948 148.673 152.274 
               C 149.047 151.616 149.421 150.9 149.795 150.395 C 150.161 149.901 150.527 149.608 150.892 149.081 
               C 151.25 148.565 151.608 147.825 151.965 147.216 C 152.315 146.621 152.665 146.153 153.015 145.685 
               C 153.358 145.227 153.7 144.771 154.043 144.245 C 154.379 143.731 154.714 143.15 155.05 142.681 
               C 155.378 142.222 155.707 141.87 156.036 141.317 C 156.358 140.775 156.68 140.041 157.003 139.513 
               C 157.319 138.996 157.635 138.677 157.951 138.345 C 158.261 138.02 158.571 137.682 158.88 137.374 
               C 159.185 137.071 159.489 136.798 159.793 136.292 C 160.092 135.795 160.39 135.073 160.689 134.872 
               C 160.982 134.674 161.275 134.98 161.568 134.913 C 161.856 134.848 162.144 134.424 162.432 134.204 
               C 162.716 133.988 162.999 133.97 163.282 133.881 C 163.56 133.794 163.838 133.638 164.116 133.533 
               C 164.39 133.43 164.663 133.375 164.937 133.51 C 165.206 133.643 165.475 133.96 165.743 134.157 
               C 166.008 134.35 166.273 134.427 166.537 134.561 C 166.798 134.693 167.058 134.881 167.318 135.053 
               C 167.575 135.223 167.831 135.378 168.087 135.705 C 168.34 136.026 168.592 136.513 168.844 136.864 
               C 169.093 137.21 169.341 137.425 169.589 137.708 C 169.834 137.986 170.079 138.331 170.324 138.634 
               C 170.565 138.933 170.806 139.192 171.047 139.63 C 171.284 140.061 171.522 140.666 171.76 141.074 
               C 171.994 141.476 172.228 141.687 172.462 141.966 C 172.693 142.242 172.924 142.583 173.154 142.869 
               C 173.382 143.151 173.61 143.379 173.837 143.709 C 174.062 144.035 174.286 144.459 174.511 144.893 
               C 174.732 145.321 174.953 145.759 175.175 146.036 C 175.393 146.31 175.612 146.429 175.83 146.721 
               C 176.046 147.01 176.261 147.469 176.477 147.656 C 176.689 147.841 176.902 147.762 177.115 147.864 
               C 177.325 147.966 177.535 148.244 177.745 148.443 C 177.952 148.639 178.159 148.757 178.367 148.863 
               C 178.571 148.968 178.776 149.061 178.981 149.014 C 179.183 148.967 179.385 148.784 179.587 148.863 
               C 179.787 148.941 179.987 149.276 180.186 149.304 C 180.384 149.332 180.581 149.061 180.778 148.887 
               C 180.973 148.716 181.168 148.638 181.363 148.549 C 181.555 148.46 181.748 148.359 181.94 148.191 
               C 182.131 148.025 182.321 147.793 182.511 147.641 C 182.7 147.491 182.888 147.419 183.076 147.331 
               C 183.262 147.243 183.448 147.14 183.634 146.874 C 183.818 146.611 184.001 146.19 184.185 145.97 
               C 184.367 145.751 184.549 145.729 184.731 145.49 C 184.911 145.253 185.09 144.803 185.27 144.559 
               C 185.448 144.318 185.626 144.278 185.804 144.115 C 185.98 143.954 186.156 143.671 186.332 143.448 
               C 186.506 143.228 186.68 143.066 186.854 142.875 C 187.026 142.685 187.198 142.466 187.37 142.23 
               C 187.541 141.997 187.711 141.747 187.881 141.606 C 188.05 141.467 188.219 141.435 188.387 141.304 
               C 188.554 141.175 188.721 140.948 188.888 140.776 C 189.053 140.606 189.219 140.489 189.384 140.285 
               C 189.547 140.083 189.711 139.796 189.874 139.721 C 190.036 139.648 190.198 139.783 190.36 139.764 
               C 190.52 139.744 190.681 139.573 190.841 139.489 C 191 139.406 191.159 139.408 191.317 139.4 
               C 191.475 139.392 191.632 139.373 191.789 139.356 C 191.945 139.339 192.101 139.323 192.256 139.35 
               C 192.41 139.377 192.565 139.446 192.719 139.43 C 192.872 139.414 193.025 139.315 193.177 139.353 
               C 193.329 139.39 193.48 139.562 193.631 139.615 C 193.781 139.667 193.931 139.603 194.081 139.648 
               C 194.23 139.693 194.379 139.846 194.527 139.997 C 194.675 140.147 194.822 140.295 194.969 140.319 
               C 195.115 140.344 195.261 140.247 195.407 140.365 C 195.552 140.482 195.696 140.81 195.841 140.974 
               C 195.984 141.136 196.128 141.138 196.271 141.173 C 196.413 141.208 196.555 141.276 196.697 141.379 
               C 196.838 141.482 196.979 141.619 197.12 141.748 C 197.26 141.875 197.399 141.995 197.539 142.105 
               C 197.678 142.215 197.816 142.315 197.955 142.42 C 198.092 142.524 198.229 142.634 198.367 142.781 
               C 198.503 142.928 198.639 143.112 198.775 143.222 C 198.91 143.331 199.045 143.367 199.18 143.401 
               C 199.314 143.435 199.448 143.468 199.582 143.577 C 199.715 143.686 199.848 143.87 199.98 144.015 
               C 200.112 144.158 200.244 144.263 200.376 144.303 C 200.506 144.343 200.637 144.32 200.768 144.382 
               C 200.898 144.444 201.027 144.59 201.157 144.65 C 201.286 144.71 201.414 144.684 201.543 144.749 
               C 201.67 144.812 201.798 144.964 201.926 145.045 C 202.052 145.124 202.179 145.133 202.306 145.131 
               C 202.431 145.129 202.557 145.116 202.683 145.057 C 202.807 145 202.932 144.897 203.057 144.88 
               C 203.18 144.863 203.304 144.93 203.428 144.931 C 203.551 144.932 203.674 144.869 203.796 144.85 
               C 203.918 144.832 204.04 144.857 204.162 144.79 C 204.283 144.724 204.404 144.569 204.525 144.478 
               C 204.645 144.387 204.765 144.361 204.885 144.252 C 205.005 144.143 205.124 143.954 205.243 143.9 
               C 205.361 143.848 205.48 143.929 205.598 143.877 C 205.716 143.826 205.833 143.643 205.951 143.476 
               C 206.067 143.31 206.184 143.16 206.3 143.093 C 206.416 143.026 206.532 143.041 206.648 142.979 
               C 206.763 142.916 206.878 142.777 206.993 142.625 C 207.107 142.474 207.221 142.31 207.336 142.195 
               C 207.449 142.081 207.562 142.016 207.676 141.964 C 207.788 141.912 207.901 141.873 208.014 141.823 
               C 208.125 141.773 208.237 141.712 208.349 141.636 C 208.46 141.561 208.571 141.47 208.682 141.435 
               C 208.793 141.4 208.903 141.421 209.013 141.374 C 209.123 141.328 209.232 141.215 209.342 141.154 
               C 209.451 141.094 209.56 141.085 209.669 141.087 C 209.777 141.089 209.885 141.103 209.993 141.082 
               C 210.1 141.06 210.208 141.004 210.315 141.018 C 210.422 141.033 210.529 141.118 210.635 141.203 
               C 210.741 141.288 210.847 141.373 210.953 141.375 C 211.059 141.376 211.164 141.294 211.269 141.328 
               C 211.374 141.362 211.479 141.509 211.583 141.57 C 211.687 141.63 211.791 141.604 211.895 141.624 
               C 211.999 141.644 212.102 141.709 212.205 141.745 C 212.308 141.782 212.411 141.79 212.513 141.858 
               C 212.615 141.925 212.717 142.05 212.819 142.115 C 212.921 142.18 213.022 142.185 213.123 142.22 
               C 213.224 142.254 213.325 142.318 213.426 142.367 C 213.526 142.415 213.626 142.447 213.726 142.494 
               C 213.826 142.541 213.925 142.603 214.025 142.67 C 214.124 142.737 214.223 142.808 214.322 142.878 
               C 214.42 142.948 214.518 143.016 214.616 143.07 C 214.714 143.125 214.812 143.166 214.91 143.165 
               C 215.007 143.164 215.104 143.121 215.201 143.133 C 215.298 143.146 215.394 143.213 215.491 143.259 
               C 215.587 143.304 215.683 143.328 215.779 143.342 C 215.874 143.355 215.97 143.359 216.065 143.394 
               C 216.16 143.428 216.255 143.492 216.35 143.511 C 216.444 143.53 216.539 143.505 216.633 143.447 
               C 216.727 143.389 216.82 143.3 216.914 143.25 C 217.008 143.2 217.101 143.188 217.194 143.265 
               C 217.287 143.342 217.379 143.506 217.472 143.516 C 217.564 143.525 217.657 143.381 217.749 143.32 
               C 217.84 143.26 217.932 143.282 218.024 143.28 C 218.115 143.279 218.206 143.255 218.297 143.279 
               C 218.388 143.303 218.479 143.375 218.569 143.351 C 218.659 143.327 218.75 143.208 218.84 143.128 
               C 218.929 143.048 219.019 143.007 219.109 142.99 C 219.198 142.972 219.287 142.978 219.376 142.936 
               C 219.465 142.895 219.554 142.807 219.642 142.763 C 219.73 142.719 219.819 142.719 219.907 142.734 
               C 219.995 142.748 220.082 142.777 220.17 142.707 C 220.257 142.638 220.345 142.472 220.432 142.45 
               C 220.519 142.427 220.605 142.547 220.692 142.572 C 220.778 142.598 220.865 142.53 220.951 142.519 
               C 221.037 142.508 221.123 142.552 221.209 142.507 C 221.294 142.461 221.38 142.327 221.465 142.29 
               C 221.55 142.253 221.635 142.311 221.72 142.309 C 221.804 142.306 221.889 142.244 221.974 142.18 
               C 222.058 142.117 222.142 142.052 222.226 142.084 C 222.31 142.115 222.393 142.242 222.477 142.255 
               C 222.56 142.268 222.643 142.168 222.727 142.084 C 222.809 142.001 222.892 141.933 222.975 141.956 
               C 223.057 141.98 223.14 142.092 223.222 142.088 C 223.304 142.084 223.386 141.963 223.468 142.017 
               C 223.55 142.07 223.631 142.295 223.713 142.319 C 223.794 142.344 223.875 142.169 223.956 142.083 
               C 224.037 141.998 224.118 142.002 224.199 142.091 C 224.279 142.179 224.359 142.352 224.44 142.409 
               C 224.52 142.465 224.6 142.408 224.68 142.394 C 224.759 142.381 224.839 142.411 224.918 142.392 
               C 224.997 142.374 225.077 142.307 225.156 142.339 C 225.235 142.372 225.313 142.502 225.392 142.542 
               C 225.471 142.581 225.549 142.531 225.628 142.554 C 225.706 142.576 225.784 142.672 225.862 142.702 
               C 225.939 142.731 226.017 142.696 226.095 142.722 C 226.172 142.748 226.249 142.833 226.327 142.834 
               C 226.404 142.834 226.481 142.75 226.557 142.762 C 226.634 142.774 226.711 142.882 226.787 142.904 
               C 226.863 142.926 226.94 142.864 227.016 142.951 C 227.092 143.038 227.168 143.273 227.243 143.213 
               C 227.319 143.154 227.394 142.802 227.47 142.732 C 227.545 142.663 227.62 142.872 227.695 142.982 
               C 227.77 143.091 227.845 143.1 227.92 143.014 C 227.994 142.928 228.069 142.748 228.143 142.747 
               C 228.217 142.746 228.292 142.923 228.366 142.954 C 228.44 142.984 228.513 142.868 228.587 142.961 
               C 228.661 143.054 228.734 143.353 228.808 143.332 C 228.881 143.31 228.954 142.97 229.027 142.9 
               C 229.1 142.831 229.173 143.029 229.245 143.051 C 229.318 143.073 229.39 142.92 229.463 142.923 
               C 229.468 142.924 229.474 142.925 229.48 142.927 "
        stroke="rgb(128,36,129)" stroke-dasharray="0.018,4,8,4" stroke-linecap="round" fill="none" stroke-width="1.8"/>
    </g>
    <defs>
      <clipPath id="clipPath4">
        <rect x="38.5" y="9.27953" width="190.98" height="200"/>
      </clipPath>
    </defs>
    <!-- 0.008  -->
    <g id="0_008" clip-path="url(#clipPath4)">
      <path d="M 38.5 118.691 C 40.209 119.085 41.9179 119.183 43.6269 118.26 
               C 46.5938 116.657 49.5607 111.978 52.5276 109.491 C 55.036 107.388 57.5445 106.852 60.053 105.8 
               C 62.2259 104.888 64.3989 103.59 66.5718 101.223 C 68.4885 99.1348 70.4051 96.2155 72.3218 96.1644 
               C 74.0363 96.1186 75.7508 98.3679 77.4653 98.9327 C 79.0163 99.4437 80.5673 98.5761 82.1183 99.0181 
               C 83.5342 99.4216 84.9501 100.917 86.366 102.594 C 87.6686 104.138 88.9711 105.836 90.2736 106.74 
               C 91.4796 107.577 92.6855 107.732 93.8915 109.307 C 95.0142 110.773 96.1369 113.469 97.2596 115.211 
               C 98.3098 116.84 99.36 117.634 100.41 118.656 C 101.397 119.617 102.383 120.778 103.37 122.442 
               C 104.3 124.011 105.23 126.026 106.16 127.899 C 107.04 129.671 107.92 131.315 108.8 132.447 
               C 109.634 133.52 110.469 134.132 111.304 135.53 C 112.098 136.86 112.892 138.901 113.686 140.472 
               C 114.443 141.969 115.2 143.038 115.957 144.154 C 116.68 145.221 117.403 146.331 118.127 147.363 
               C 118.819 148.35 119.512 149.265 120.205 150.808 C 120.869 152.288 121.533 154.346 122.197 155.593 
               C 122.836 156.792 123.474 157.243 124.112 158.322 C 124.726 159.36 125.34 160.979 125.955 162.295 
               C 126.546 163.564 127.138 164.55 127.73 165.106 C 128.301 165.642 128.872 165.777 129.443 166.403 
               C 129.995 167.009 130.546 168.073 131.098 168.934 C 131.632 169.767 132.165 170.409 132.699 170.744 
               C 133.215 171.068 133.732 171.104 134.249 171.272 C 134.749 171.436 135.25 171.725 135.751 171.94 
               C 136.237 172.15 136.723 172.291 137.208 172.381 C 137.68 172.468 138.152 172.508 138.623 172.149 
               C 139.082 171.8 139.54 171.074 139.999 170.597 C 140.445 170.132 140.89 169.903 141.336 169.489 
               C 141.77 169.087 142.204 168.51 142.638 167.762 C 143.061 167.033 143.484 166.141 143.906 165.693 
               C 144.318 165.257 144.73 165.241 145.142 164.574 C 145.544 163.923 145.946 162.652 146.348 161.766 
               C 146.74 160.902 147.132 160.406 147.524 159.687 C 147.907 158.985 148.29 158.07 148.673 157.251 
               C 149.047 156.45 149.421 155.739 149.795 155.007 C 150.161 154.291 150.527 153.554 150.892 152.775 
               C 151.25 152.014 151.608 151.212 151.965 150.279 C 152.315 149.367 152.665 148.33 153.015 147.794 
               C 153.358 147.27 153.7 147.226 154.043 146.5 C 154.379 145.788 154.714 144.421 155.05 143.544 
               C 155.378 142.685 155.707 142.296 156.036 141.753 C 156.358 141.221 156.68 140.542 157.003 139.765 
               C 157.319 139.003 157.635 138.146 157.951 137.558 C 158.261 136.98 158.571 136.661 158.88 136.259 
               C 159.185 135.866 159.489 135.393 159.793 134.799 C 160.092 134.215 160.39 133.514 160.689 132.908 
               C 160.982 132.313 161.275 131.811 161.568 131.586 C 161.856 131.364 162.144 131.411 162.432 131.232 
               C 162.716 131.056 162.999 130.662 163.282 130.47 C 163.56 130.281 163.838 130.287 164.116 130.21 
               C 164.39 130.134 164.663 129.978 164.937 130.007 C 165.206 130.036 165.475 130.245 165.743 130.399 
               C 166.008 130.55 166.273 130.649 166.537 130.868 C 166.798 131.084 167.058 131.416 167.318 131.673 
               C 167.575 131.925 167.831 132.104 168.087 132.516 C 168.34 132.922 168.592 133.554 168.844 133.854 
               C 169.093 134.15 169.341 134.125 169.589 134.61 C 169.834 135.087 170.079 136.06 170.324 136.727 
               C 170.565 137.383 170.806 137.743 171.047 138.178 C 171.284 138.606 171.522 139.107 171.76 139.592 
               C 171.994 140.07 172.228 140.532 172.462 141.153 C 172.693 141.765 172.924 142.532 173.154 143.285 
               C 173.382 144.028 173.61 144.757 173.837 145.26 C 174.062 145.755 174.286 146.03 174.511 146.431 
               C 174.732 146.827 174.953 147.345 175.175 147.83 C 175.393 148.308 175.612 148.755 175.83 149.257 
               C 176.046 149.753 176.261 150.304 176.477 150.614 C 176.689 150.919 176.902 150.99 177.115 151.266 
               C 177.325 151.538 177.535 152.01 177.745 152.376 C 177.952 152.738 178.159 152.996 178.367 153.155 
               C 178.571 153.312 178.776 153.372 178.981 153.364 C 179.183 153.356 179.385 153.281 179.587 153.259 
               C 179.787 153.237 179.987 153.266 180.186 153.135 C 180.384 153.006 180.581 152.72 180.778 152.613 
               C 180.973 152.508 181.168 152.578 181.363 152.379 C 181.555 152.181 181.748 151.721 181.94 151.422 
               C 182.131 151.126 182.321 150.988 182.511 150.721 C 182.7 150.457 182.888 150.066 183.076 149.705 
               C 183.262 149.349 183.448 149.022 183.634 148.672 C 183.818 148.326 184.001 147.957 184.185 147.596 
               C 184.367 147.238 184.549 146.888 184.731 146.493 C 184.911 146.103 185.09 145.671 185.27 145.26 
               C 185.448 144.854 185.626 144.469 185.804 144.092 C 185.98 143.719 186.156 143.353 186.332 143.108 
               C 186.506 142.865 186.68 142.739 186.854 142.455 C 187.026 142.174 187.198 141.737 187.37 141.357 
               C 187.541 140.981 187.711 140.661 187.881 140.489 C 188.05 140.318 188.219 140.29 188.387 140.118 
               C 188.554 139.947 188.721 139.634 188.888 139.389 C 189.053 139.147 189.219 138.972 189.384 138.847 
               C 189.547 138.724 189.711 138.65 189.874 138.607 C 190.036 138.565 190.198 138.554 190.36 138.44 
               C 190.52 138.327 190.681 138.114 190.841 138.098 C 191 138.082 191.159 138.259 191.317 138.298 
               C 191.475 138.336 191.632 138.239 191.789 138.2 C 191.945 138.163 192.101 138.183 192.256 138.226 
               C 192.41 138.268 192.565 138.333 192.719 138.425 C 192.872 138.516 193.025 138.634 193.177 138.707 
               C 193.329 138.779 193.48 138.808 193.631 138.89 C 193.781 138.97 193.931 139.103 194.081 139.221 
               C 194.23 139.337 194.379 139.438 194.527 139.529 C 194.675 139.619 194.822 139.699 194.969 139.728 
               C 195.115 139.757 195.261 139.737 195.407 139.868 C 195.552 139.998 195.696 140.276 195.841 140.433 
               C 195.984 140.588 196.128 140.624 196.271 140.693 C 196.413 140.762 196.555 140.864 196.697 140.931 
               C 196.838 140.998 196.979 141.031 197.12 141.183 C 197.26 141.334 197.399 141.602 197.539 141.716 
               C 197.678 141.829 197.816 141.792 197.955 141.88 C 198.092 141.968 198.229 142.181 198.367 142.361 
               C 198.503 142.539 198.639 142.685 198.775 142.858 C 198.91 143.03 199.045 143.228 199.18 143.38 
               C 199.314 143.53 199.448 143.634 199.582 143.753 C 199.715 143.871 199.848 144.004 199.98 144.137 
               C 200.112 144.268 200.244 144.4 200.376 144.55 C 200.506 144.699 200.637 144.867 200.768 145.011 
               C 200.898 145.153 201.027 145.271 201.157 145.349 C 201.286 145.427 201.414 145.465 201.543 145.583 
               C 201.67 145.701 201.798 145.897 201.926 146.025 C 202.052 146.151 202.179 146.211 202.306 146.212 
               C 202.431 146.214 202.557 146.159 202.683 146.218 C 202.807 146.276 202.932 146.445 203.057 146.471 
               C 203.18 146.496 203.304 146.379 203.428 146.324 C 203.551 146.269 203.674 146.276 203.796 146.213 
               C 203.918 146.15 204.04 146.018 204.162 145.928 C 204.283 145.838 204.404 145.79 204.525 145.71 
               C 204.645 145.631 204.765 145.52 204.885 145.401 C 205.005 145.282 205.124 145.155 205.243 145.061 
               C 205.361 144.968 205.48 144.908 205.598 144.749 C 205.716 144.592 205.833 144.338 205.951 144.15 
               C 206.067 143.964 206.184 143.842 206.3 143.692 C 206.416 143.543 206.532 143.366 206.648 143.201 
               C 206.763 143.037 206.878 142.886 206.993 142.707 C 207.107 142.529 207.221 142.323 207.336 142.14 
               C 207.449 141.958 207.562 141.799 207.676 141.689 C 207.788 141.58 207.901 141.52 208.014 141.406 
               C 208.125 141.292 208.237 141.125 208.349 140.999 C 208.46 140.874 208.571 140.789 208.682 140.732 
               C 208.793 140.676 208.903 140.646 209.013 140.587 C 209.123 140.529 209.232 140.443 209.342 140.383 
               C 209.451 140.324 209.56 140.292 209.669 140.264 C 209.777 140.237 209.885 140.215 209.993 140.195 
               C 210.1 140.176 210.208 140.158 210.315 140.168 C 210.422 140.178 210.529 140.216 210.635 140.32 
               C 210.741 140.423 210.847 140.591 210.953 140.641 C 211.059 140.69 211.164 140.621 211.269 140.663 
               C 211.374 140.706 211.479 140.858 211.583 140.941 C 211.687 141.023 211.791 141.037 211.895 141.111 
               C 211.999 141.185 212.102 141.318 212.205 141.412 C 212.308 141.505 212.411 141.56 212.513 141.628 
               C 212.615 141.696 212.717 141.777 212.819 141.903 C 212.921 142.029 213.022 142.201 213.123 142.258 
               C 213.224 142.316 213.325 142.261 213.426 142.296 C 213.526 142.332 213.626 142.457 213.726 142.545 
               C 213.826 142.633 213.925 142.684 214.025 142.781 C 214.124 142.877 214.223 143.018 214.322 143.101 
               C 214.42 143.185 214.518 143.212 214.616 143.262 C 214.714 143.312 214.812 143.385 214.91 143.432 
               C 215.007 143.48 215.104 143.502 215.201 143.514 C 215.298 143.525 215.394 143.526 215.491 143.566 
               C 215.587 143.605 215.683 143.683 215.779 143.714 C 215.874 143.744 215.97 143.729 216.065 143.724 
               C 216.16 143.719 216.255 143.726 216.35 143.743 C 216.444 143.76 216.539 143.787 216.633 143.769 
               C 216.727 143.752 216.82 143.691 216.914 143.713 C 217.008 143.735 217.101 143.839 217.194 143.825 
               C 217.287 143.811 217.379 143.681 217.472 143.667 C 217.564 143.652 217.657 143.751 217.749 143.741 
               C 217.84 143.731 217.932 143.613 218.024 143.499 C 218.115 143.385 218.206 143.274 218.297 143.26 
               C 218.388 143.246 218.479 143.328 218.569 143.413 C 218.659 143.498 218.75 143.588 218.84 143.523 
               C 218.929 143.459 219.019 143.242 219.109 143.184 C 219.198 143.126 219.287 143.225 219.376 143.2 
               C 219.465 143.175 219.554 143.027 219.642 142.971 C 219.73 142.914 219.819 142.948 219.907 142.938 
               C 219.995 142.929 220.082 142.876 220.17 142.845 C 220.257 142.813 220.345 142.802 220.432 142.744 
               C 220.519 142.686 220.605 142.58 220.692 142.504 C 220.778 142.427 220.865 142.379 220.951 142.367 
               C 221.037 142.355 221.123 142.379 221.209 142.353 C 221.294 142.327 221.38 142.253 221.465 142.243 
               C 221.55 142.233 221.635 142.288 221.72 142.229 C 221.804 142.17 221.889 142 221.974 142.011 
               C 222.058 142.023 222.142 142.214 222.226 142.171 C 222.31 142.128 222.393 141.852 222.477 141.829 
               C 222.56 141.806 222.643 142.033 222.727 142.103 C 222.809 142.172 222.892 142.085 222.975 142 
               C 223.057 141.915 223.14 141.833 223.222 141.829 C 223.304 141.825 223.386 141.9 223.468 141.958 
               C 223.55 142.017 223.631 142.059 223.713 142.016 C 223.794 141.973 223.875 141.846 223.956 141.821 
               C 224.037 141.796 224.118 141.873 224.199 141.909 C 224.279 141.946 224.359 141.943 224.44 141.991 
               C 224.52 142.039 224.6 142.136 224.68 142.151 C 224.759 142.166 224.839 142.1 224.918 142.172 
               C 224.997 142.243 225.077 142.451 225.156 142.448 C 225.235 142.445 225.313 142.232 225.392 142.25 
               C 225.471 142.268 225.549 142.516 225.628 142.615 C 225.706 142.713 225.784 142.665 225.862 142.606 
               C 225.939 142.547 226.017 142.477 226.095 142.566 C 226.172 142.654 226.249 142.9 226.327 142.934 
               C 226.404 142.967 226.481 142.792 226.557 142.699 C 226.634 142.607 226.711 142.597 226.787 142.625 
               C 226.863 142.653 226.94 142.718 227.016 142.743 C 227.092 142.767 227.168 142.752 227.243 142.897 
               C 227.319 143.042 227.394 143.346 227.47 143.396 C 227.545 143.446 227.62 143.245 227.695 143.206 
               C 227.77 143.167 227.845 143.289 227.92 143.266 C 227.994 143.244 228.069 143.077 228.143 143.069 
               C 228.217 143.061 228.292 143.208 228.366 143.216 C 228.44 143.223 228.513 143.091 228.587 143.01 
               C 228.661 142.93 228.734 142.899 228.808 142.978 C 228.881 143.058 228.954 143.246 229.027 143.288 
               C 229.1 143.33 229.173 143.226 229.245 143.168 C 229.318 143.111 229.39 143.099 229.463 143.117 
               C 229.468 143.118 229.474 143.119 229.48 143.121 "
        stroke="rgb(237,89,94)" stroke-dasharray="8,5" stroke-linecap="butt" fill="none" stroke-width="2.25"/>
    </g>
    <defs>
      <clipPath id="clipPath5">
        <rect x="38.5" y="9.27953" width="190.98" height="200"/>
      </clipPath>
    </defs>
    <!-- 0.012 -->
    <g id="0_012" clip-path="url(#clipPath5)">
      <path d="M 38.5 112.053 C 40.209 111.663 41.9179 110.956 43.6269 109.357 
               C 46.5938 106.581 49.5607 101.114 52.5276 100.159 C 55.036 99.3519 57.5445 101.77 60.053 100.997 
               C 62.2259 100.327 64.3989 97.2632 66.5718 94.8445 C 68.4885 92.7111 70.4051 91.0795 72.3218 91.2061 
               C 74.0363 91.3193 75.7508 92.8393 77.4653 93.5026 C 79.0163 94.1026 80.5673 94.0015 82.1183 95.0706 
               C 83.5342 96.0465 84.9501 97.9977 86.366 99.7158 C 87.6686 101.296 88.9711 102.68 90.2736 104.047 
               C 91.4796 105.312 92.6855 106.563 93.8915 108.547 C 95.0142 110.394 96.1369 112.876 97.2596 114.292 
               C 98.3098 115.617 99.36 116.009 100.41 117.663 C 101.397 119.216 102.383 121.883 103.37 123.702 
               C 104.3 125.417 105.23 126.378 106.16 128.069 C 107.04 129.669 107.92 131.923 108.8 133.36 
               C 109.634 134.724 110.469 135.352 111.304 136.694 C 112.098 137.97 112.892 139.892 113.686 141.349 
               C 114.443 142.738 115.2 143.704 115.957 145.232 C 116.68 146.692 117.403 148.664 118.127 149.752 
               C 118.819 150.793 119.512 151.023 120.205 152.491 C 120.869 153.9 121.533 156.447 122.197 158.162 
               C 122.836 159.81 123.474 160.691 124.112 161.864 C 124.726 162.993 125.34 164.393 125.955 165.456 
               C 126.546 166.48 127.138 167.19 127.73 167.949 C 128.301 168.681 128.872 169.458 129.443 170.499 
               C 129.995 171.504 130.546 172.755 131.098 173.283 C 131.632 173.792 132.165 173.625 132.699 174.091 
               C 133.215 174.543 133.732 175.588 134.249 175.839 C 134.749 176.082 135.25 175.579 135.751 175.74 
               C 136.237 175.896 136.723 176.678 137.208 176.623 C 137.68 176.569 138.152 175.726 138.623 175.292 
               C 139.082 174.87 139.54 174.835 139.999 174.401 C 140.445 173.979 140.89 173.181 141.336 172.528 
               C 141.77 171.892 142.204 171.393 142.638 170.719 C 143.061 170.063 143.484 169.241 143.906 168.571 
               C 144.318 167.917 144.73 167.407 145.142 166.642 C 145.544 165.895 145.946 164.904 146.348 164.085 
               C 146.74 163.286 147.132 162.651 147.524 161.909 C 147.907 161.185 148.29 160.36 148.673 159.453 
               C 149.047 158.568 149.421 157.605 149.795 156.819 C 150.161 156.05 150.527 155.45 150.892 154.65 
               C 151.25 153.868 151.608 152.894 151.965 151.99 C 152.315 151.106 152.665 150.288 153.015 149.42 
               C 153.358 148.57 153.7 147.671 154.043 146.784 C 154.379 145.916 154.714 145.06 155.05 144.372 
               C 155.378 143.697 155.707 143.184 156.036 142.464 C 156.358 141.759 156.68 140.856 157.003 140.02 
               C 157.319 139.199 157.635 138.443 157.951 137.842 C 158.261 137.253 158.571 136.814 158.88 136.167 
               C 159.185 135.533 159.489 134.7 159.793 134.073 C 160.092 133.457 160.39 133.039 160.689 132.586 
               C 160.982 132.141 161.275 131.664 161.568 131.205 C 161.856 130.754 162.144 130.321 162.432 129.931 
               C 162.716 129.547 162.999 129.203 163.282 128.876 C 163.56 128.555 163.838 128.25 164.116 128.342 
               C 164.39 128.433 164.663 128.908 164.937 128.991 C 165.206 129.074 165.475 128.778 165.743 128.748 
               C 166.008 128.718 166.273 128.945 166.537 129.271 C 166.798 129.591 167.058 130.007 167.318 130.377 
               C 167.575 130.742 167.831 131.062 168.087 131.42 C 168.34 131.773 168.592 132.161 168.844 132.618 
               C 169.093 133.067 169.341 133.582 169.589 134.162 C 169.834 134.733 170.079 135.366 170.324 135.907 
               C 170.565 136.439 170.806 136.881 171.047 137.518 C 171.284 138.145 171.522 138.963 171.76 139.631 
               C 171.994 140.29 172.228 140.804 172.462 141.445 C 172.693 142.077 172.924 142.832 173.154 143.565 
               C 173.382 144.286 173.61 144.986 173.837 145.616 C 174.062 146.237 174.286 146.79 174.511 147.232 
               C 174.732 147.667 174.953 147.994 175.175 148.562 C 175.393 149.123 175.612 149.919 175.83 150.488 
               C 176.046 151.05 176.261 151.39 176.477 151.829 C 176.689 152.263 176.902 152.793 177.115 153.18 
               C 177.325 153.563 177.535 153.806 177.745 154.033 C 177.952 154.256 178.159 154.464 178.367 154.616 
               C 178.571 154.766 178.776 154.861 178.981 154.9 C 179.183 154.938 179.385 154.921 179.587 154.805 
               C 179.787 154.689 179.987 154.477 180.186 154.467 C 180.384 154.457 180.581 154.646 180.778 154.453 
               C 180.973 154.263 181.168 153.7 181.363 153.324 C 181.555 152.953 181.748 152.764 181.94 152.509 
               C 182.131 152.256 182.321 151.938 182.511 151.606 C 182.7 151.278 182.888 150.937 183.076 150.508 
               C 183.262 150.085 183.448 149.576 183.634 149.188 C 183.818 148.804 184.001 148.538 184.185 148.153 
               C 184.367 147.772 184.549 147.274 184.731 146.841 C 184.911 146.413 185.09 146.049 185.27 145.584 
               C 185.448 145.125 185.626 144.569 185.804 144.168 C 185.98 143.772 186.156 143.53 186.332 143.18 
               C 186.506 142.835 186.68 142.385 186.854 142.017 C 187.026 141.652 187.198 141.367 187.37 141.046 
               C 187.541 140.729 187.711 140.377 187.881 140.08 C 188.05 139.786 188.219 139.546 188.387 139.352 
               C 188.554 139.159 188.721 139.01 188.888 138.857 C 189.053 138.704 189.219 138.547 189.384 138.382 
               C 189.547 138.218 189.711 138.045 189.874 137.95 C 190.036 137.855 190.198 137.835 190.36 137.766 
               C 190.52 137.698 190.681 137.581 190.841 137.611 C 191 137.641 191.159 137.815 191.317 137.861 
               C 191.475 137.906 191.632 137.827 191.789 137.868 C 191.945 137.908 192.101 138.066 192.256 138.118 
               C 192.41 138.171 192.565 138.12 192.719 138.235 C 192.872 138.35 193.025 138.626 193.177 138.726 
               C 193.329 138.825 193.48 138.75 193.631 138.878 C 193.781 139.005 193.931 139.33 194.081 139.412 
               C 194.23 139.493 194.379 139.334 194.527 139.367 C 194.675 139.399 194.822 139.62 194.969 139.763 
               C 195.115 139.905 195.261 139.97 195.407 140.033 C 195.552 140.095 195.696 140.154 195.841 140.216 
               C 195.984 140.277 196.128 140.34 196.271 140.449 C 196.413 140.557 196.555 140.71 196.697 140.828 
               C 196.838 140.945 196.979 141.027 197.12 141.1 C 197.26 141.172 197.399 141.235 197.539 141.374 
               C 197.678 141.511 197.816 141.724 197.955 141.851 C 198.092 141.977 198.229 142.019 198.367 142.152 
               C 198.503 142.283 198.639 142.503 198.775 142.719 C 198.91 142.932 199.045 143.14 199.18 143.271 
               C 199.314 143.4 199.448 143.453 199.582 143.588 C 199.715 143.722 199.848 143.937 199.98 144.08 
               C 200.112 144.222 200.244 144.293 200.376 144.454 C 200.506 144.613 200.637 144.86 200.768 145.074 
               C 200.898 145.285 201.027 145.463 201.157 145.587 C 201.286 145.709 201.414 145.779 201.543 145.886 
               C 201.67 145.993 201.798 146.136 201.926 146.283 C 202.052 146.429 202.179 146.579 202.306 146.634 
               C 202.431 146.688 202.557 146.648 202.683 146.689 C 202.807 146.73 202.932 146.85 203.057 146.875 
               C 203.18 146.899 203.304 146.83 203.428 146.804 C 203.551 146.778 203.674 146.794 203.796 146.697 
               C 203.918 146.601 204.04 146.394 204.162 146.325 C 204.283 146.256 204.404 146.323 204.525 146.208 
               C 204.645 146.094 204.765 145.8 204.885 145.68 C 205.005 145.56 205.124 145.611 205.243 145.466 
               C 205.361 145.323 205.48 144.986 205.598 144.797 C 205.716 144.609 205.833 144.566 205.951 144.462 
               C 206.067 144.358 206.184 144.193 206.3 143.907 C 206.416 143.624 206.532 143.222 206.648 143.028 
               C 206.763 142.835 206.878 142.847 206.993 142.782 C 207.107 142.717 207.221 142.577 207.336 142.364 
               C 207.449 142.152 207.562 141.87 207.676 141.648 C 207.788 141.429 207.901 141.27 208.014 141.133 
               C 208.125 140.997 208.237 140.882 208.349 140.782 C 208.46 140.683 208.571 140.598 208.682 140.502 
               C 208.793 140.406 208.903 140.3 209.013 140.217 C 209.123 140.135 209.232 140.077 209.342 140.022 
               C 209.451 139.968 209.56 139.918 209.669 139.916 C 209.777 139.914 209.885 139.959 209.993 139.983 
               C 210.1 140.007 210.208 140.01 210.315 140.063 C 210.422 140.115 210.529 140.216 210.635 140.264 
               C 210.741 140.312 210.847 140.308 210.953 140.307 C 211.059 140.306 211.164 140.309 211.269 140.418 
               C 211.374 140.527 211.479 140.741 211.583 140.845 C 211.687 140.948 211.791 140.943 211.895 141.005 
               C 211.999 141.067 212.102 141.196 212.205 141.346 C 212.308 141.495 212.411 141.665 212.513 141.752 
               C 212.615 141.838 212.717 141.841 212.819 141.901 C 212.921 141.962 213.022 142.079 213.123 142.21 
               C 213.224 142.341 213.325 142.486 213.426 142.562 C 213.526 142.638 213.626 142.646 213.726 142.738 
               C 213.826 142.83 213.925 143.006 214.025 143.061 C 214.124 143.116 214.223 143.051 214.322 143.058 
               C 214.42 143.064 214.518 143.142 214.616 143.25 C 214.714 143.358 214.812 143.496 214.91 143.565 
               C 215.007 143.633 215.104 143.632 215.201 143.64 C 215.298 143.648 215.394 143.664 215.491 143.687 
               C 215.587 143.709 215.683 143.739 215.779 143.74 C 215.874 143.741 215.97 143.714 216.065 143.746 
               C 216.16 143.777 216.255 143.867 216.35 143.868 C 216.444 143.87 216.539 143.786 216.633 143.761 
               C 216.727 143.737 216.82 143.772 216.914 143.778 C 217.008 143.784 217.101 143.76 217.194 143.713 
               C 217.287 143.665 217.379 143.594 217.472 143.605 C 217.564 143.617 217.657 143.711 217.749 143.71 
               C 217.84 143.71 217.932 143.616 218.024 143.577 C 218.115 143.538 218.206 143.554 218.297 143.534 
               C 218.388 143.514 218.479 143.459 218.569 143.455 C 218.659 143.452 218.75 143.5 218.84 143.44 
               C 218.929 143.381 219.019 143.214 219.109 143.148 C 219.198 143.083 219.287 143.118 219.376 143.162 
               C 219.465 143.206 219.554 143.26 219.642 143.202 C 219.73 143.144 219.819 142.975 219.907 142.875 
               C 219.995 142.776 220.082 142.747 220.17 142.687 C 220.257 142.628 220.345 142.54 220.432 142.586 
               C 220.519 142.631 220.605 142.809 220.692 142.789 C 220.778 142.769 220.865 142.555 220.951 142.442 
               C 221.037 142.33 221.123 142.32 221.209 142.288 C 221.294 142.257 221.38 142.205 221.465 142.186 
               C 221.55 142.167 221.635 142.181 221.72 142.231 C 221.804 142.281 221.889 142.367 221.974 142.316 
               C 222.058 142.265 222.142 142.078 222.226 141.98 C 222.31 141.882 222.393 141.874 222.477 141.888 
               C 222.56 141.903 222.643 141.94 222.727 141.917 C 222.809 141.895 222.892 141.813 222.975 141.833 
               C 223.057 141.853 223.14 141.972 223.222 141.963 C 223.304 141.954 223.386 141.817 223.468 141.786 
               C 223.55 141.756 223.631 141.832 223.713 141.792 C 223.794 141.753 223.875 141.599 223.956 141.64 
               C 224.037 141.68 224.118 141.912 224.199 141.99 C 224.279 142.067 224.359 141.991 224.44 142.02 
               C 224.52 142.049 224.6 142.181 224.68 142.179 C 224.759 142.177 224.839 142.042 224.918 142.039 
               C 224.997 142.036 225.077 142.165 225.156 142.246 C 225.235 142.326 225.313 142.359 225.392 142.367 
               C 225.471 142.374 225.549 142.357 225.628 142.415 C 225.706 142.472 225.784 142.605 225.862 142.669 
               C 225.939 142.734 226.017 142.73 226.095 142.615 C 226.172 142.499 226.249 142.273 226.327 142.324 
               C 226.404 142.374 226.481 142.699 226.557 142.779 C 226.634 142.86 226.711 142.698 226.787 142.772 
               C 226.863 142.845 226.94 143.151 227.016 143.163 C 227.092 143.175 227.168 142.896 227.243 142.894 
               C 227.319 142.892 227.394 143.164 227.47 143.137 C 227.545 143.11 227.62 142.787 227.695 142.869 
               C 227.77 142.95 227.845 143.432 227.92 143.468 C 227.994 143.503 228.069 143.096 228.143 143.128 
               C 228.217 143.159 228.292 143.625 228.366 143.715 C 228.44 143.804 228.513 143.521 228.587 143.285 
               C 228.661 143.049 228.734 142.861 228.808 142.969 C 228.881 143.078 228.954 143.481 229.027 143.52 
               C 229.1 143.559 229.173 143.236 229.245 143.079 C 229.318 142.924 229.39 142.933 229.463 143.04 
               C 229.468 143.048 229.474 143.056 229.48 143.066 "
        stroke="rgb(252,141,99)" stroke-dasharray="5,3" stroke-linecap="butt" fill="none" stroke-width="2.25"/>
    </g>
    <!-- 0.63 -->
    <g id="0_63">
      <defs>
        <clipPath id="clipPath6">
          <rect x="38.5" y="9.27953" width="190.98" height="200"/>
        </clipPath>
      </defs>
      <g clip-path="url(#clipPath6)">
        <path d="M -34.9437 -124.054 L -1.10517 114.134 L 18.6891 87.3639 L 32.7333 68.1515 L 43.6269 62.6713 
                 L 52.5276 55.9244 L 60.053 60.6259 L 66.5718 71.349 L 72.3218 81.2474 L 77.4653 88.9054 
                 L 86.366 100.344 L 90.2736 105.574 L 93.8915 113.051 L 97.2596 118.972 L 100.41 123.818 
                 L 103.37 128.946 L 106.16 134.008 L 108.8 139.668 L 111.304 145.63 L 113.686 149.742 
                 L 115.957 155.065 L 118.127 159.635 L 120.205 165.505 L 122.197 169.313 L 124.112 172.346 
                 L 125.955 177.044 L 127.73 179.381 L 129.443 182.085 L 131.098 184.462 L 132.699 185.847 
                 L 134.249 186.174 L 135.751 186.248 L 137.208 185.969 L 138.623 184.674 L 139.999 184.157 
                 L 141.336 182.607 L 142.638 180.677 L 147.524 171.054 L 148.673 168.031 L 149.795 165.44 
                 L 150.892 162.606 L 151.965 158.987 L 154.043 152.915 L 155.05 149.786 L 159.793 132.972 
                 L 160.689 130.766 L 161.568 127.1 L 162.432 125.685 L 163.282 123.802 L 164.116 122.934 
                 L 164.937 122.239 L 165.743 122.736 L 166.537 123.899 L 167.318 125.743 L 168.087 127.065 
                 L 169.589 132.274 L 174.511 151.087 L 175.83 155.232 L 177.745 159.043 L 178.981 159.609 
                 L 179.587 159.338 L 180.186 159.353 L 180.778 158.733 L 181.363 157.431 L 181.94 156.457 
                 L 182.511 154.852 L 183.076 153.572 L 183.634 152.029 L 184.185 150.029 L 184.731 148.514 
                 L 186.332 143.326 L 187.881 138.92 L 188.888 136.786 L 189.384 136.17 L 190.36 135.737 
                 L 191.789 136.445 L 193.631 138.653 L 195.407 139.769 L 196.271 140.189 L 196.697 140.08 
                 L 197.539 140.527 L 197.955 141.224 L 198.367 141.516 L 199.98 144.204 L 200.376 145.209 
                 L 200.768 145.929 L 201.157 146.41 L 201.543 147.241 L 202.306 147.944 L 202.683 148.455 
                 L 203.057 148.367 L 203.428 148.633 L 203.796 148.5 L 204.885 147.192 L 205.243 146.716 
                 L 207.336 142.206 L 208.014 140.59 L 209.013 139.066 L 209.993 138.646 L 210.953 139.378 
                 L 211.583 140.144 L 212.205 141.136 L 212.513 141.48 L 212.819 142.036 L 213.426 142.763 
                 L 213.726 143.219 L 214.91 144.06 L 215.779 144.041 L 216.065 144.242 L 216.35 144.094 
                 L 216.633 144.117 L 217.472 143.853 L 217.749 143.914 L 218.024 143.672 L 218.297 143.815 
                 L 219.376 143.375 L 219.642 143.358 L 219.907 143.212 L 220.17 142.942 L 220.432 142.846 
                 L 220.692 142.407 L 220.951 142.752 L 221.209 142.175 L 221.465 142.012 L 221.72 141.974 
                 L 221.974 141.762 L 222.226 141.883 L 222.477 141.529 L 222.727 141.507 L 222.975 141.38 
                 L 223.468 141.511 L 223.713 141.46 L 224.199 141.833 L 224.44 141.716 L 224.68 142.017 
                 L 224.918 142.047 L 225.156 142.188 L 225.392 142.484 L 225.628 142.611 L 225.862 142.429 
                 L 226.095 142.875 L 227.016 143.128 L 227.243 143.474 L 227.47 143.481 L 227.695 143.136 
                 L 228.143 143.906 L 228.366 143.217 L 228.587 143.906 L 228.808 143.34 L 229.245 143.299 
                 L 229.463 143.157 L 229.679 142.667 L 229.895 142.539 L 230.323 143.241 L 231.168 142.077 
                 L 231.378 142.823 L 231.586 142.09 L 236.521 142.298 "
          stroke="rgb(248,230,32)" stroke-dasharray="0.021,4,0.021,4,0.021,4,8,4" stroke-linecap="round" fill="none" stroke-width="2.1"/>
      </g>
    </g>
    <!-- 1.5 -->
    <g id="1_5">
      <defs>
        <clipPath id="clipPath7">
          <rect x="38.5" y="9.27953" width="190.98" height="200"/>
        </clipPath>
      </defs>
      <g clip-path="url(#clipPath7)">
        <path d="M -34.9437 -124.054 L -1.10517 95.3639 L 18.6891 64.4409 L 32.7333 51.8573 L 43.6269 51.3582 
                 L 52.5276 56.3759 L 60.053 62.7163 L 66.5718 71.0777 L 72.3218 79.3799 L 77.4653 88.65 
                 L 82.1183 94.6849 L 93.8915 114.076 L 97.2596 119.11 L 100.41 124.605 L 103.37 130.275 
                 L 106.16 136.021 L 108.8 140.681 L 111.304 147.142 L 115.957 157.158 L 118.127 160.766 
                 L 120.205 165.982 L 122.197 171.756 L 124.112 175.318 L 125.955 176.619 L 127.73 180.819 
                 L 129.443 183.689 L 131.098 185.018 L 132.699 186.175 L 135.751 187.772 L 138.623 185.728 
                 L 139.999 184.157 L 141.336 182.899 L 142.638 181.339 L 143.906 179.504 L 145.142 176.769 
                 L 146.348 175.042 L 148.673 169.558 L 151.965 160.344 L 153.015 156.869 L 154.043 154.215 
                 L 155.05 150.859 L 158.88 136.187 L 161.568 127.13 L 162.432 124.815 L 164.116 121.793 
                 L 165.743 121.91 L 167.318 124.635 L 170.324 135.085 L 171.047 138.172 L 171.76 140.758 
                 L 173.154 146.621 L 174.511 151.72 L 175.175 153.695 L 177.115 158.572 L 177.745 159.032 
                 L 178.367 159.674 L 178.981 159.997 L 179.587 159.913 L 180.186 159.481 L 180.778 158.594 
                 L 181.363 158.13 L 181.94 156.503 L 182.511 155.429 L 183.076 153.893 L 183.634 151.898 
                 L 184.731 148.609 L 186.332 143.499 L 186.854 141.634 L 187.881 138.824 L 188.888 136.747 
                 L 189.874 135.835 L 190.36 135.759 L 190.841 135.856 L 191.789 136.438 L 192.256 136.905 
                 L 192.719 137.592 L 193.177 137.873 L 194.081 138.948 L 194.527 139.064 L 194.969 139.548 
                 L 195.407 139.512 L 195.841 139.763 L 196.271 139.875 L 196.697 140.208 L 197.12 140.297 
                 L 197.955 140.849 L 198.775 142.045 L 199.18 142.702 L 199.582 143.733 L 199.98 144.28 
                 L 200.768 145.952 L 201.543 147.551 L 201.926 147.751 L 202.306 148.264 L 203.428 148.678 
                 L 204.525 147.883 L 205.243 146.581 L 205.598 146.09 L 206.3 144.774 L 206.993 142.777 
                 L 207.336 142.188 L 207.676 141.271 L 208.349 140.104 L 209.342 138.721 L 209.669 138.671 
                 L 210.315 138.834 L 211.269 139.779 L 213.123 142.281 L 214.025 143.325 L 214.616 143.825 
                 L 215.779 144.111 L 216.633 144.063 L 216.914 144.133 L 217.472 143.804 L 218.024 143.715 
                 L 218.569 143.606 L 219.109 143.676 L 219.376 143.421 L 219.907 143.316 L 220.692 142.699 
                 L 220.951 142.724 L 221.209 142.501 L 221.465 142.116 L 221.72 141.984 L 221.974 142.044 
                 L 222.727 141.424 L 222.975 141.313 L 223.222 141.569 L 223.468 141.382 L 223.713 141.49 
                 L 223.956 141.396 L 224.68 141.943 L 225.156 142.231 L 225.392 142.21 L 225.628 142.35 
                 L 225.862 142.65 L 226.095 142.781 L 226.327 142.765 L 226.557 142.974 L 226.787 142.739 
                 L 227.016 143.205 L 227.243 143.119 L 227.47 143.36 L 227.695 143.096 L 227.92 143.605 
                 L 228.366 143.428 L 228.587 143.525 L 228.808 143.826 L 229.027 143.196 L 229.463 143.283 
                 L 229.679 143.146 L 229.895 143.41 L 230.109 142.505 L 230.323 143.087 L 230.748 142.288 
                 L 230.958 142.33 L 231.168 142.525 L 236.521 148.17 "
          stroke="rgb(51,165,252)" fill="none" stroke-width="1.5"/>
      </g>
    </g>
  </g>
  <!-- Foreground -->
  <g id="Foreground">
    <!-- Y Axis -->
    <g id="Y_Axis">
      <g transform="translate(12.1422,109.28) rotate(-90) translate(-12.1422,-109.28)" font-family="Helvetica" font-size="11" fill="black">
        <text x="1.75181" y="109.28">S(q)</text>
      </g>
      <!-- Y Labels -->
      <g id="Y_Labels">
        <g font-family="Helvetica" font-size="11" fill="black">
          <text x="20.0918" y="213.225">0.1</text>
        </g>
        <g font-family="Helvetica" font-size="11" fill="black">
          <text x="29.2657" y="146.558">1</text>
        </g>
        <g font-family="Helvetica" font-size="11" fill="black">
          <text x="23.148" y="79.8913">10</text>
        </g>
        <g font-family="Helvetica" font-size="11" fill="black">
          <text x="17.0303" y="13.2246">100</text>
        </g>
      </g>
      <path d="M 38.5 209.28 L 43.0833 209.28 M 38.5 142.613 L 43.0833 142.613 M 38.5 75.9462 L 43.0833 75.9462 
               M 38.5 9.27953 L 43.0833 9.27953 "
        stroke="black" fill="none" stroke-width="0.5"/>
    </g>
    <!-- X Axis -->
    <g id="X_Axis">
      <g font-family="Helvetica" font-size="11" fill="black">
        <text x="127.582" y="236.78">σq</text>
      </g>
      <g>
        <g font-family="Helvetica" font-size="11" fill="black">
          <text x="60.379" y="221.904">1</text>
        </g>
        <g font-family="Helvetica" font-size="11" fill="black">
          <text x="169.729" y="221.904">10</text>
        </g>
      </g>
      <path d="M 63.4378 209.28 L 63.4378 204.696 M 175.847 209.28 L 175.847 204.696 "
        stroke="black" fill="none" stroke-width="0.5"/>
    </g>
    <path d="M 38.5 9.27953 L 38.5 209.28 L 229.48 209.28 "
      stroke="black" stroke-linecap="square" fill="none" stroke-width="0.5"/>
  </g>
  <!-- Zoom -->
  <g id="Zoom">
    <!-- Connection -->
    <g id="Connection">
      <path d="M 203.914 149.074 L 238.48 122.28 "
        stroke="black" fill="none" stroke-width="0.5"/>
      <path d="M 182.072 149.074 L 163.48 122.28 "
        stroke="black" fill="none" stroke-width="0.5"/>
    </g>
    <!-- Source -->
    <g id="Source">
      <rect x="182.072" y="129.186" width="21.8421" height="19.8871" stroke="black" fill="none" stroke-width="0.5"/>
    </g>
    <!-- Destination -->
    <g id="Destination">
      <!-- Content -->
      <g id="Content" transform="translate(163,122.78)">>
        <defs>
          <clipPath id="clipPath8">
            <rect x="0.479528" y="-63.5" width="75" height="63"/>
          </clipPath>
        </defs>
        <!-- Grid -->
        <g id="Grid_2" clip-path="url(#clipPath8)">
          <path d="M 9.66705 -0.5 L 9.66705 -63.5 M 35.5074 -0.5 L 35.5074 -63.5 M 57.8913 -0.5 L 57.8913 -63.5 "
            stroke="black" stroke-dasharray="0.00997506,3.99002" stroke-linecap="round" fill="none" stroke-width="0.5"/>
        </g>
        <!-- Commands -->
        <g id="Commands_2">
          <defs>
            <clipPath id="clipPath9">
              <rect x="0.479528" y="-63.5" width="75" height="63"/>
            </clipPath>
          </defs>
          <g clip-path="url(#clipPath9)">
            <path d="M -49.5968 -26.9151 L -2.22161 -15.2018 L 2.51612 -15.8651 L 5.06139 -16.491 L 9.16079 -17.7224 
                     L 11.1735 -18.5528 L 15.2128 -20.3434 L 16.9866 -20.7811 L 18.991 -21.2893 L 20.2318 -21.8283 
                     L 21.8719 -22.807 L 23.577 -23.7631 L 24.6239 -24.1021 L 25.6643 -24.1999 L 27.1733 -24.0738 
                     L 28.5121 -24.0215 L 29.5287 -24.1978 L 30.6166 -24.6196 L 33.3823 -25.8451 L 34.3698 -25.9616 
                     L 35.4269 -25.8446 L 39.0751 -25.178 L 42.2124 -25.0661 L 43.4367 -24.6985 L 47.6178 -23.1673 
                     L 50.944 -22.3746 L 53.5313 -21.3668 L 62.4768 -18.0559 L 64.2608 -17.852 L 66.8392 -17.5366 
                     L 69.194 -17.2459 L 70.7254 -17.292 L 75.5931 -17.7944 L 76.7147 -18.2104 L 79.7466 -19.5119 
                     L 125.481 -19.0373 "
              stroke="black" fill="none" stroke-width="2.25"/>
          </g>
          <defs>
            <clipPath id="clipPath10">
              <rect x="0.479528" y="-63.5" width="75" height="63"/>
            </clipPath>
          </defs>
          <g clip-path="url(#clipPath10)">
            <path d="M -50.1798 -35.4528 L -1.95554 -11.4492 L 0.0282689 -10.9654 L 1.98888 -11.341 L 3.92682 -12.5006 
                     L 5.84262 -14.0304 L 7.73677 -14.5132 L 9.60975 -15.6799 L 11.462 -16.6361 L 13.2941 -17.4309 
                     L 15.1063 -18.882 L 16.8992 -19.2801 L 18.6731 -20.8426 L 20.4284 -22.6574 L 22.1655 -23.2305 
                     L 23.8848 -24.4162 L 25.5866 -24.8092 L 27.2714 -26.5752 L 30.5909 -27.0923 L 32.2263 -26.9812 
                     L 37.039 -28.1606 L 38.613 -27.8546 L 40.1724 -27.0457 L 41.7174 -27.1227 L 43.2482 -26.3259 
                     L 44.7653 -26.0954 L 46.2687 -24.7231 L 50.6997 -23.6567 L 52.151 -22.0774 L 53.5899 -21.8897 
                     L 55.0166 -20.7431 L 56.4312 -20.6811 L 57.834 -19.8505 L 59.2251 -18.7913 L 60.6048 -18.3878 
                     L 61.9732 -18.8675 L 63.3305 -17.299 L 64.677 -16.995 L 67.3378 -15.6492 L 68.6526 -16.8795 
                     L 69.9571 -17.0979 L 71.2516 -16.7299 L 75.076 -16.9188 L 76.3316 -17.134 L 77.578 -18.1269 
                     L 78.8151 -18.5745 L 125.802 -19.8696 "
              stroke="rgb(57,15,110)" stroke-dasharray="0.024,4" stroke-linecap="round" fill="none" stroke-width="2.4"/>
          </g>
          <defs>
            <clipPath id="clipPath11">
              <rect x="0.479528" y="-63.5" width="75" height="63"/>
            </clipPath>
          </defs>
          <g clip-path="url(#clipPath11)">
            <path d="M 0.479528 -3.68561 C 0.982645 -4.14588 1.48576 -4.66667 1.98888 -5.03726 
                     C 2.63486 -5.51309 3.28084 -5.74131 3.92682 -6.02151 
                     C 4.56542 -6.29851 5.20402 -6.62629 5.84262 -7.4678 
                     C 6.474 -8.29979 7.10538 -9.63395 7.73677 -10.3329 
                     C 8.36109 -11.024 8.98542 -11.094 9.60975 -11.8533 
                     C 10.2272 -12.6041 10.8446 -14.029 11.462 -14.8012 
                     C 12.0727 -15.5649 12.6834 -15.6902 13.2941 -16.2076 
                     C 13.8982 -16.7195 14.5022 -17.615 15.1063 -18.3204 
                     C 15.7039 -19.0182 16.3016 -19.53 16.8992 -20.1369 
                     C 17.4905 -20.7374 18.0818 -21.431 18.6731 -22.1785 
                     C 19.2582 -22.9181 19.8433 -23.7106 20.4284 -24.156 
                     C 21.0074 -24.5969 21.5864 -24.6979 22.1655 -25.1123 
                     C 22.7386 -25.5225 23.3117 -26.2397 23.8848 -26.7845 
                     C 24.4521 -27.3237 25.0193 -27.6939 25.5866 -28.3403 
                     C 26.1482 -28.9803 26.7098 -29.8909 27.2714 -30.1261 
                     C 27.8274 -30.359 28.3833 -29.93 28.9393 -29.992 C 29.4899 -30.0533 30.0404 -30.5961 30.5909 -30.8623 
                     C 31.136 -31.1258 31.6812 -31.118 32.2263 -31.1443 
                     C 32.7662 -31.1703 33.3061 -31.2297 33.8459 -31.2847 
                     C 34.3806 -31.3391 34.9154 -31.3892 35.4501 -31.303 
                     C 35.9797 -31.2177 36.5094 -30.9987 37.039 -31.0494 
                     C 37.5637 -31.0997 38.0883 -31.4146 38.613 -31.295 
                     C 39.1328 -31.1764 39.6526 -30.6312 40.1724 -30.4638 
                     C 40.6874 -30.298 41.2024 -30.503 41.7174 -30.3593 
                     C 42.2276 -30.217 42.7379 -29.7321 43.2482 -29.2532 
                     C 43.7539 -28.7787 44.2596 -28.3099 44.7653 -28.2323 
                     C 45.2664 -28.1554 45.7675 -28.4627 46.2687 -28.0887 
                     C 46.7654 -27.7181 47.262 -26.6782 47.7587 -26.1588 
                     C 48.251 -25.6438 48.7434 -25.6401 49.2357 -25.5286 
                     C 49.7237 -25.4181 50.2117 -25.2017 50.6997 -24.8742 
                     C 51.1835 -24.5495 51.6673 -24.1157 52.151 -23.7077 
                     C 52.6307 -23.3031 53.1103 -22.924 53.5899 -22.5743 
                     C 54.0655 -22.2276 54.541 -21.9099 55.0166 -21.5768 
                     C 55.4881 -21.2466 55.9597 -20.9012 56.4312 -20.4334 
                     C 56.8988 -19.9694 57.3664 -19.3851 57.834 -19.0368 
                     C 58.2977 -18.6914 58.7614 -18.5781 59.2251 -18.4694 
                     C 59.685 -18.3616 60.1449 -18.2583 60.6048 -17.9113 
                     C 61.0609 -17.5672 61.5171 -16.9833 61.9732 -16.5251 
                     C 62.4256 -16.0707 62.8781 -15.7398 63.3305 -15.6124 
                     C 63.7794 -15.486 64.2282 -15.5597 64.677 -15.3622 
                     C 65.1222 -15.1662 65.5674 -14.7032 66.0127 -14.5131 
                     C 66.4544 -14.3245 66.8961 -14.4045 67.3378 -14.2008 
                     C 67.7761 -13.9987 68.2143 -13.5174 68.6526 -13.2633 
                     C 69.0874 -13.0112 69.5223 -12.9827 69.9571 -12.9895 
                     C 70.3886 -12.9963 70.8201 -13.0378 71.2516 -13.2223 
                     C 71.6797 -13.4054 72.1079 -13.7293 72.5361 -13.784 
                     C 72.961 -13.8384 73.3859 -13.6277 73.8108 -13.6236 
                     C 74.2326 -13.6196 74.6543 -13.8191 75.076 -13.8786 
                     C 75.2105 -13.8976 75.345 -13.9024 75.4795 -13.907 "
              stroke="rgb(128,36,129)" stroke-dasharray="0.018,4,8,4" stroke-linecap="round" fill="none" stroke-width="1.8"/>
          </g>
          <defs>
            <clipPath id="clipPath12">
              <rect x="0.479528" y="-63.5" width="75" height="63"/>
            </clipPath>
          </defs>
          <g clip-path="url(#clipPath12)">
            <path d="M 5.09601 -0.5 C 5.34488 -0.919974 5.59375 -1.34113 5.84262 -1.77322 
                     C 6.474 -2.86943 7.10538 -4.03604 7.73677 -5.18103 
                     C 8.36109 -6.31322 8.98542 -7.42427 9.60975 -8.67364 
                     C 10.2272 -9.90921 10.8446 -11.2801 11.462 -12.5812 
                     C 12.0727 -13.8681 12.6834 -15.0867 13.2941 -16.2815 
                     C 13.8982 -17.4633 14.5022 -18.6218 15.1063 -19.3995 
                     C 15.7039 -20.1689 16.3016 -20.5656 16.8992 -21.4663 
                     C 17.4905 -22.3574 18.0818 -23.7419 18.6731 -24.945 
                     C 19.2582 -26.1355 19.8433 -27.1484 20.4284 -27.6959 
                     C 21.0074 -28.2377 21.5864 -28.3237 22.1655 -28.8703 
                     C 22.7386 -29.4113 23.3117 -30.4036 23.8848 -31.1789 
                     C 24.4521 -31.9463 25.0193 -32.5011 25.5866 -32.8962 
                     C 26.1482 -33.2873 26.7098 -33.522 27.2714 -33.6568 
                     C 27.8274 -33.7904 28.3833 -33.826 28.9393 -34.1861 
                     C 29.4899 -34.5427 30.0404 -35.2173 30.5909 -35.2686 
                     C 31.136 -35.3194 31.6812 -34.7589 32.2263 -34.6366 
                     C 32.7662 -34.5154 33.3061 -34.8239 33.8459 -34.9449 
                     C 34.3806 -35.0648 34.9154 -35.0007 35.4501 -34.8646 
                     C 35.9797 -34.7298 36.5094 -34.5243 37.039 -34.2331 
                     C 37.5637 -33.9446 38.0883 -33.5721 38.613 -33.3405 
                     C 39.1328 -33.1111 39.6526 -33.0201 40.1724 -32.7616 
                     C 40.6874 -32.5055 41.2024 -32.085 41.7174 -31.7131 
                     C 42.2276 -31.3446 42.7379 -31.0239 43.2482 -30.736 
                     C 43.7539 -30.4507 44.2596 -30.1977 44.7653 -30.1044 
                     C 45.2664 -30.0121 45.7675 -30.0766 46.2687 -29.662 
                     C 46.7654 -29.2511 47.262 -28.3695 47.7587 -27.873 
                     C 48.251 -27.3809 48.7434 -27.267 49.2357 -27.0473 
                     C 49.7237 -26.8295 50.2117 -26.5077 50.6997 -26.2945 
                     C 51.1835 -26.0831 51.6673 -25.9785 52.151 -25.4963 
                     C 52.6307 -25.0183 53.1103 -24.1691 53.5899 -23.8071 
                     C 54.0655 -23.4482 54.541 -23.5682 55.0166 -23.287 
                     C 55.4881 -23.0083 55.9597 -22.3351 56.4312 -21.766 
                     C 56.8988 -21.2016 57.3664 -20.7395 57.834 -20.1907 
                     C 58.2977 -19.6465 58.7614 -19.017 59.2251 -18.5371 
                     C 59.685 -18.0611 60.1449 -17.7322 60.6048 -17.3551 
                     C 61.0609 -16.9811 61.5171 -16.5596 61.9732 -16.1392 
                     C 62.4256 -15.7222 62.8781 -15.3063 63.3305 -14.8298 
                     C 63.7794 -14.3572 64.2282 -13.8251 64.677 -13.3706 
                     C 65.1222 -12.9198 65.5674 -12.5454 66.0127 -12.2977 
                     C 66.4544 -12.052 66.8961 -11.9309 67.3378 -11.5561 
                     C 67.7761 -11.1843 68.2143 -10.5628 68.6526 -10.1582 
                     C 69.0874 -9.75681 69.5223 -9.56901 69.9571 -9.56358 
                     C 70.3886 -9.5582 70.8201 -9.73238 71.2516 -9.54728 
                     C 71.6797 -9.36359 72.1079 -8.8261 72.5361 -8.74591 
                     C 72.961 -8.66634 73.3859 -9.03714 73.8108 -9.21081 
                     C 74.2326 -9.38317 74.6543 -9.36136 75.076 -9.56219 
                     C 75.2105 -9.62625 75.345 -9.71296 75.4795 -9.81063 "
              stroke="rgb(237,89,94)" stroke-dasharray="8,5" stroke-linecap="butt" fill="none" stroke-width="2.25"/>
          </g>
          <defs>
            <clipPath id="clipPath13">
              <rect x="0.479528" y="-63.5" width="75" height="63"/>
            </clipPath>
          </defs>
          <g clip-path="url(#clipPath13)">
            <path d="M 6.03586 -0.5 C 6.60283 -1.53047 7.1698 -2.32132 7.73677 -3.4171 
                     C 8.36109 -4.62374 8.98542 -6.20012 9.60975 -7.57123 
                     C 10.2272 -8.92719 10.8446 -10.0824 11.462 -11.5531 
                     C 12.0727 -13.0078 12.6834 -14.7712 13.2941 -16.039 
                     C 13.8982 -17.293 14.5022 -18.0622 15.1063 -19.1687 
                     C 15.7039 -20.2634 16.3016 -21.6882 16.8992 -22.8557 
                     C 17.4905 -24.0108 18.0818 -24.914 18.6731 -25.9295 
                     C 19.2582 -26.9344 19.8433 -28.0493 20.4284 -28.9898 
                     C 21.0074 -29.9206 21.5864 -30.6807 22.1655 -31.2978 
                     C 22.7386 -31.9086 23.3117 -32.3794 23.8848 -32.8661 
                     C 24.4521 -33.3479 25.0193 -33.8453 25.5866 -34.37 
                     C 26.1482 -34.8895 26.7098 -35.4359 27.2714 -35.7393 
                     C 27.8274 -36.0397 28.3833 -36.1019 28.9393 -36.3204 
                     C 29.4899 -36.5366 30.0404 -36.9061 30.5909 -36.8109 
                     C 31.136 -36.7167 31.6812 -36.167 32.2263 -36.021 
                     C 32.7662 -35.8764 33.3061 -36.1277 33.8459 -35.9992 
                     C 34.3806 -35.8719 34.9154 -35.372 35.4501 -35.2045 
                     C 35.9797 -35.0385 36.5094 -35.1986 37.039 -34.8336 
                     C 37.5637 -34.472 38.0883 -33.595 38.613 -33.2788 
                     C 39.1328 -32.9656 39.6526 -33.2028 40.1724 -32.798 
                     C 40.6874 -32.397 41.2024 -31.3659 41.7174 -31.1075 
                     C 42.2276 -30.8514 42.7379 -31.354 43.2482 -31.2498 
                     C 43.7539 -31.1464 44.2596 -30.4472 44.7653 -29.9942 
                     C 45.2664 -29.5454 45.7675 -29.3384 46.2687 -29.1399 
                     C 46.7654 -28.9431 47.262 -28.7547 47.7587 -28.5597 
                     C 48.251 -28.3664 48.7434 -28.1666 49.2357 -27.8213 
                     C 49.7237 -27.4791 50.2117 -26.994 50.6997 -26.6205 
                     C 51.1835 -26.2502 51.6673 -25.9895 52.151 -25.759 
                     C 52.6307 -25.5305 53.1103 -25.3316 53.5899 -24.892 
                     C 54.0655 -24.4561 54.541 -23.7836 55.0166 -23.3808 
                     C 55.4881 -22.9814 55.9597 -22.8471 56.4312 -22.4272 
                     C 56.8988 -22.0109 57.3664 -21.3136 57.834 -20.6319 
                     C 58.2977 -19.9559 58.7614 -19.2953 59.2251 -18.8818 
                     C 59.685 -18.4716 60.1449 -18.3044 60.6048 -17.8769 
                     C 61.0609 -17.4529 61.5171 -16.7728 61.9732 -16.3198 
                     C 62.4256 -15.8704 62.8781 -15.6445 63.3305 -15.1355 
                     C 63.7794 -14.6305 64.2282 -13.8468 64.677 -13.1716 
                     C 65.1222 -12.5017 65.5674 -11.9384 66.0127 -11.5462 
                     C 66.4544 -11.1571 66.8961 -10.9365 67.3378 -10.5966 
                     C 67.7761 -10.2595 68.2143 -9.80498 68.6526 -9.33867 
                     C 69.0874 -8.87598 69.5223 -8.40165 69.9571 -8.22889 
                     C 70.3886 -8.05747 70.8201 -8.18299 71.2516 -8.05331 
                     C 71.6797 -7.92463 72.1079 -7.54465 72.5361 -7.46585 
                     C 72.961 -7.38766 73.3859 -7.60608 73.8108 -7.68919 
                     C 74.2326 -7.77167 74.6543 -7.72086 75.076 -8.02769 
                     C 75.2105 -8.12556 75.345 -8.25982 75.4795 -8.40424 "
              stroke="rgb(252,141,99)" stroke-dasharray="5,3" stroke-linecap="butt" fill="none" stroke-width="2.25"/>
          </g>
          <defs>
            <clipPath id="clipPath14">
              <rect x="0.479528" y="-63.5" width="75" height="63"/>
            </clipPath>
          </defs>
          <g clip-path="url(#clipPath14)">
            <path d="M -50.1798 -74.4073 L -42.3816 -53.7177 L -39.8608 -44.6976 L -23.203 12.7572 L -20.9529 19.01 
                     L 0.0282689 22.8894 L 1.98888 17.8061 L 7.73677 2.52671 L 9.60975 -2.27399 L 11.462 -8.01838 
                     L 13.2941 -12.7518 L 15.1063 -18.709 L 18.6731 -28.6563 L 20.4284 -32.6644 L 22.1655 -35.9242 
                     L 23.8848 -39.4263 L 25.5866 -41.3775 L 28.9393 -42.7486 L 30.5909 -42.0371 L 32.2263 -41.6297 
                     L 33.8459 -40.5063 L 40.1724 -33.5122 L 41.7174 -32.5227 L 43.2482 -31.829 L 44.7653 -30.3839 
                     L 46.2687 -29.9744 L 47.7587 -29.3803 L 49.2357 -28.6462 L 50.6997 -28.9891 L 52.151 -28.3907 
                     L 53.5899 -27.5758 L 55.0166 -25.3661 L 56.4312 -24.4407 L 57.834 -22.2837 L 59.2251 -20.6925 
                     L 60.6048 -18.0861 L 61.9732 -15.9256 L 63.3305 -12.7423 L 64.677 -10.4616 L 66.0127 -8.93825 
                     L 67.3378 -6.30515 L 69.9571 -4.07733 L 71.2516 -2.45862 L 72.5361 -2.73838 L 73.8108 -1.89418 
                     L 75.076 -2.31625 L 76.3316 -3.58078 L 77.578 -4.50834 L 78.8151 -6.45903 L 125.802 -17.5361 "
              stroke="rgb(248,230,32)" stroke-dasharray="0.021,4,0.021,4,0.021,4,8,4" stroke-linecap="round" fill="none" stroke-width="2.1"/>
          </g>
          <defs>
            <clipPath id="clipPath15">
              <rect x="0.479528" y="-63.5" width="75" height="63"/>
            </clipPath>
          </defs>
          <g clip-path="url(#clipPath15)">
            <path d="M -50.1798 -77.9168 L -44.9409 -61.0791 L -42.3816 -53.4351 L -25.4837 7.88464 L -23.203 14.1392 
                     L 0.0282689 23.0341 L 1.98888 19.6332 L 7.73677 3.61256 L 11.462 -7.19741 L 15.1063 -18.1584 
                     L 16.8992 -24.0673 L 18.6731 -28.7296 L 20.4284 -32.9701 L 23.8848 -39.549 L 27.2714 -42.4383 
                     L 28.9393 -42.6803 L 30.5909 -42.3711 L 32.2263 -41.5963 L 33.8459 -40.5279 L 35.4501 -39.0487 
                     L 37.039 -36.8733 L 38.613 -35.9821 L 40.1724 -34.3564 L 41.7174 -32.5758 L 43.2482 -32.2097 
                     L 44.7653 -30.6755 L 46.2687 -30.7904 L 47.7587 -29.9961 L 49.2357 -29.6407 L 50.6997 -28.5851 
                     L 52.151 -28.3016 L 53.5899 -27.3222 L 55.0166 -26.5528 L 56.4312 -24.8447 L 59.2251 -20.683 
                     L 60.6048 -17.4177 L 61.9732 -15.6838 L 63.3305 -12.7069 L 66.0127 -7.91924 L 67.3378 -5.32441 
                     L 68.6526 -4.68857 L 69.9571 -3.06528 L 71.2516 -2.63407 L 72.5361 -1.91833 L 73.8108 -1.75354 
                     L 75.076 -2.50926 L 76.3316 -3.5792 L 77.578 -4.27071 L 125.802 -17.8206 "
              stroke="rgb(51,165,252)" fill="none" stroke-width="1.5"/>
          </g>
        </g>
        <g>
          <!-- Y Labels -->
          <g id="Y_Labels_2">
            <g font-family="Helvetica" font-size="9" fill="black">
              <text x="-14.7484" y="-17.7388">1.0</text>
            </g>
            <g font-family="Helvetica" font-size="9" fill="black">
              <text x="-14.7484" y="-54.9278">1.5</text>
            </g>
          </g>
          <path d="M 0.479528 -20.9666 L 5.06286 -20.9666 M 0.479528 -58.1556 L 5.06286 -58.1556 "
            stroke="black" fill="none" stroke-width="0.5"/>
          <g>
            <g font-family="Helvetica" font-size="9" fill="black">
              <text x="4.66168" y="-65.7078">12</text>
            </g>
            <g font-family="Helvetica" font-size="9" fill="black">
              <text x="30.502" y="-65.7078">14</text>
            </g>
            <g font-family="Helvetica" font-size="9" fill="black">
              <text x="52.8859" y="-65.7078">16</text>
            </g>
          </g>
          <path d="M 9.66705 -58.9167 L 9.66705 -63.5 M 35.5074 -58.9167 L 35.5074 -63.5 M 57.8913 -58.9167 L 57.8913 -63.5 "
            stroke="black" fill="none" stroke-width="0.5"/>
        </g>
      </g>
      <rect x="163.48" y="59.2795" width="75" height="63" stroke="black" fill="none" stroke-width="0.5"/>
    </g>
  </g>
</g>
</svg>
