<?xml version="1.0" encoding="utf-8" standalone="no"?>
<!-- Generator: DataGraph - https://www.visualdatatools.com/DataGraph/index.html  --><!DOCTYPE svg PUBLIC "-//W3C//DTD SVG 1.1//EN" "http://www.w3.org/Graphics/SVG/1.1/DTD/svg11.dtd">
<svg width="243.78" height="226.772" version="1.1" xmlns="http://www.w3.org/2000/svg" xmlns:xlink="http://www.w3.org/1999/xlink">
<g>
  <!-- Commands -->
  <g id="Commands">
    <!-- No name -->
    <g id="No_name">
      <g>
        <g font-family="Helvetica" font-size="9" fill="black">
          <text x="203.48" y="55.4639">t/τ</text>
          <text x="212.981" y="57.3465" font-size="7">perc</text>
        </g>
        <g font-family="Helvetica" font-size="9" fill="black">
          <text x="203.48" y="66.2639">1.15</text>
        </g>
        <g font-family="Helvetica" font-size="9" fill="black">
          <text x="203.48" y="77.0639">0.63</text>
        </g>
        <g font-family="Helvetica" font-size="9" fill="black">
          <text x="203.48" y="87.8639">0.18</text>
        </g>
        <g font-family="Helvetica" font-size="9" fill="black">
          <text x="203.48" y="98.6639">0.012</text>
        </g>
        <g font-family="Helvetica" font-size="9" fill="black">
          <text x="203.48" y="109.464">0.008</text>
        </g>
        <g font-family="Helvetica" font-size="9" fill="black">
          <text x="203.48" y="120.264">0.004</text>
        </g>
        <g font-family="Helvetica" font-size="9" fill="black">
          <text x="203.48" y="131.064">0.001</text>
        </g>
        <g font-family="Helvetica" font-size="9" fill="black">
          <text x="203.48" y="141.864">0.00001</text>
        </g>
      </g>
    </g>
    <!-- 0.0001 vs x -->
    <g id="0_0001_vs_x">
      <defs>
        <clipPath id="clipPath">
          <rect x="38.5" y="9.27165" width="190.98" height="183"/>
        </clipPath>
      </defs>
      <g clip-path="url(#clipPath)">
        <path d="M 38.7387 192.272 L 59.7465 192.219 L 60.2239 192.147 L 60.7014 190.527 L 61.1788 186.615 
                 L 62.1337 173.376 L 62.6112 171.685 L 63.5661 185.466 L 64.0435 189.834 L 64.521 191.193 
                 L 64.9984 191.584 L 65.9533 191.428 L 66.4308 191.109 L 66.9082 191.133 L 67.3857 191.001 
                 L 67.8631 190.755 L 68.3406 190.909 L 69.2954 190.471 L 69.7729 190.453 L 70.2503 190.542 
                 L 70.7278 190.083 L 71.2052 190.223 L 71.6827 190.068 L 72.1601 190.286 L 72.6376 189.967 
                 L 73.5925 190.014 L 74.0699 189.804 L 74.5474 189.851 L 75.0248 190.091 L 75.5023 190.043 
                 L 75.9797 189.798 L 76.4572 189.688 L 76.9346 189.943 L 77.4121 189.697 L 77.8895 189.88 
                 L 78.367 189.715 L 78.8444 189.76 L 79.3219 189.677 L 79.7993 189.841 L 82.1866 189.624 
                 L 83.1415 189.819 L 84.0964 189.699 L 84.5738 189.492 L 85.0513 189.733 L 85.5287 189.752 
                 L 86.0062 189.495 L 86.4836 189.795 L 86.9611 189.884 L 87.916 189.816 L 88.3934 189.977 
                 L 88.8709 189.509 L 89.3483 189.93 L 90.3032 189.598 L 90.7806 189.798 L 91.2581 189.741 
                 L 91.7355 189.832 L 92.213 189.748 L 92.6904 189.949 L 93.1679 189.773 L 93.6453 189.932 
                 L 94.1228 189.831 L 94.6002 189.895 L 95.5551 189.739 L 98.8973 189.824 L 99.3747 189.611 
                 L 100.33 189.831 L 100.807 189.762 L 101.285 189.878 L 102.239 189.633 L 102.717 189.829 
                 L 103.194 189.829 L 103.672 189.695 L 105.104 189.762 L 105.582 189.858 L 106.536 189.737 
                 L 107.014 189.822 L 107.969 189.704 L 108.446 189.859 L 108.924 189.721 L 109.401 189.83 
                 L 110.356 189.707 L 110.833 189.923 L 111.788 189.853 L 112.266 189.678 L 113.221 189.82 
                 L 117.04 189.772 L 117.518 189.84 L 117.995 189.675 L 118.473 189.874 L 118.95 189.669 
                 L 119.905 189.952 L 120.382 189.815 L 121.337 189.7 L 121.815 189.843 L 122.292 189.688 
                 L 122.77 189.81 L 123.725 189.73 L 124.202 189.863 L 124.68 189.747 L 125.157 189.875 
                 L 125.634 189.781 L 126.589 189.805 L 128.499 189.798 L 130.886 189.825 L 133.751 189.785 
                 L 139.003 189.772 L 139.48 189.923 L 139.958 189.745 L 141.39 189.8 L 142.345 189.806 
                 L 143.3 189.767 L 143.777 189.836 L 144.255 189.748 L 145.21 189.842 L 145.687 189.652 
                 L 146.165 189.827 L 147.597 189.725 L 152.372 189.818 L 152.849 189.719 L 153.326 189.807 
                 L 154.281 189.772 L 155.236 189.851 L 156.669 189.739 L 162.875 189.81 L 163.353 189.717 
                 L 164.308 189.765 L 164.785 189.751 L 165.263 189.861 L 168.605 189.78 L 169.082 189.873 
                 L 170.515 189.804 L 171.469 189.808 L 171.947 189.856 L 172.902 189.755 L 177.676 189.815 
                 L 178.154 189.716 L 178.631 189.83 L 180.541 189.778 L 182.451 189.743 L 182.928 189.838 
                 L 183.406 189.756 L 183.883 189.84 L 184.838 189.833 L 185.793 189.798 L 186.27 189.731 
                 L 187.225 189.834 L 188.658 189.752 L 189.135 189.822 L 189.613 189.728 L 191.522 189.806 
                 L 192 189.745 L 192.477 189.861 L 192.955 189.747 L 193.91 189.817 L 194.864 189.826 
                 L 197.252 189.771 L 198.207 189.859 L 200.116 189.776 L 201.071 189.79 L 202.981 189.802 
                 L 204.413 189.778 L 207.278 189.848 L 207.756 189.771 L 209.188 189.827 L 209.665 189.732 
                 L 210.62 189.84 L 211.575 189.767 L 212.053 189.831 L 212.53 189.759 L 213.008 189.85 
                 L 213.485 189.731 L 215.872 189.813 L 216.35 189.856 L 216.827 189.773 L 218.259 189.846 
                 L 224.944 189.785 L 225.899 189.787 L 227.331 189.773 L 229.241 189.782 L 230.196 189.786 
                 L 276.986 189.778 "
          stroke="black" fill="none" stroke-width="0.5"/>
      </g>
    </g>
    <!-- 0.001 vs x -->
    <g id="0_001_vs_x">
      <defs>
        <clipPath id="clipPath2">
          <rect x="38.5" y="9.27165" width="190.98" height="183"/>
        </clipPath>
      </defs>
      <g clip-path="url(#clipPath2)">
        <path d="M 38.7387 189.792 L 59.269 189.792 L 59.7465 189.688 L 60.2239 189.293 L 60.7014 185.538 
                 L 61.1788 177.31 L 62.1337 146.665 L 62.6112 145.215 L 64.0435 185.622 L 64.521 188.574 
                 L 64.9984 189.423 L 65.4759 189.533 L 66.4308 189.097 L 66.9082 189.296 L 67.8631 188.877 
                 L 68.3406 189.184 L 69.7729 188.672 L 70.7278 188.703 L 71.2052 188.493 L 74.0699 188.209 
                 L 74.5474 188.052 L 75.5023 188.037 L 75.9797 187.771 L 76.9346 187.822 L 77.4121 187.481 
                 L 77.8895 187.552 L 78.367 187.346 L 78.8444 186.991 L 79.3219 187.212 L 79.7993 186.933 
                 L 80.2768 187.396 L 80.7542 187.331 L 81.2317 187.373 L 81.7091 187.546 L 82.1866 187.323 
                 L 82.664 187.413 L 83.1415 187.221 L 84.0964 187.327 L 84.5738 187.106 L 85.0513 187.074 
                 L 86.0062 187.344 L 86.4836 187.577 L 86.9611 187.435 L 87.4385 187.741 L 88.8709 188.005 
                 L 89.3483 187.915 L 89.8257 187.637 L 90.3032 187.94 L 90.7806 187.805 L 91.2581 187.9 
                 L 91.7355 187.635 L 92.213 187.914 L 93.1679 187.565 L 93.6453 187.77 L 94.1228 187.744 
                 L 94.6002 187.483 L 95.0777 187.466 L 96.0326 187.653 L 96.51 187.492 L 97.9424 187.572 
                 L 98.4198 187.479 L 99.3747 187.529 L 99.8522 187.313 L 100.33 187.484 L 103.194 187.369 
                 L 103.672 187.207 L 104.149 187.403 L 105.104 187.251 L 105.582 187.549 L 106.536 187.324 
                 L 107.014 187.403 L 107.491 187.283 L 107.969 187.598 L 108.446 187.423 L 108.924 187.441 
                 L 109.879 187.27 L 110.356 187.374 L 110.833 187.324 L 111.311 187.383 L 111.788 187.312 
                 L 112.743 187.454 L 114.176 187.287 L 114.653 187.389 L 115.131 187.178 L 115.608 187.236 
                 L 116.085 187.412 L 116.563 187.252 L 117.04 187.239 L 117.995 187.339 L 118.473 187.418 
                 L 118.95 187.229 L 119.428 187.305 L 119.905 187.227 L 120.382 187.32 L 120.86 187.244 
                 L 121.337 187.433 L 121.815 187.331 L 122.77 187.397 L 123.247 187.22 L 124.202 187.272 
                 L 124.68 187.265 L 125.157 187.362 L 126.589 187.349 L 127.067 187.421 L 127.544 187.301 
                 L 128.022 187.402 L 128.499 187.211 L 128.977 187.419 L 129.931 187.24 L 130.886 187.355 
                 L 133.751 187.339 L 134.706 187.295 L 136.616 187.307 L 137.093 187.317 L 137.571 187.189 
                 L 138.526 187.327 L 139.003 187.222 L 140.913 187.321 L 142.345 187.213 L 142.823 187.33 
                 L 144.732 187.235 L 146.642 187.328 L 147.12 187.193 L 147.597 187.331 L 150.939 187.317 
                 L 151.417 187.423 L 151.894 187.263 L 153.804 187.355 L 154.281 187.201 L 154.759 187.304 
                 L 157.623 187.271 L 158.101 187.383 L 159.056 187.323 L 160.488 187.292 L 161.921 187.345 
                 L 162.398 187.262 L 163.353 187.316 L 164.308 187.369 L 164.785 187.267 L 165.263 187.357 
                 L 166.218 187.29 L 166.695 187.439 L 168.127 187.312 L 168.605 187.271 L 169.56 187.334 
                 L 170.515 187.276 L 170.992 187.384 L 171.469 187.268 L 172.424 187.36 L 173.379 187.332 
                 L 174.334 187.325 L 175.289 187.358 L 176.721 187.252 L 177.676 187.327 L 178.154 187.231 
                 L 179.109 187.343 L 181.018 187.243 L 181.973 187.35 L 182.928 187.292 L 184.361 187.371 
                 L 186.27 187.214 L 186.748 187.334 L 187.703 187.244 L 188.658 187.36 L 190.09 187.321 
                 L 191.045 187.306 L 194.387 187.267 L 194.864 187.361 L 196.297 187.292 L 196.774 187.362 
                 L 197.729 187.306 L 201.549 187.289 L 204.891 187.345 L 205.846 187.298 L 206.323 187.362 
                 L 206.801 187.285 L 207.756 187.309 L 209.188 187.355 L 209.665 187.213 L 210.143 187.35 
                 L 214.44 187.303 L 216.827 187.382 L 218.737 187.258 L 220.169 187.329 L 222.079 187.304 
                 L 222.557 187.391 L 225.421 187.324 L 225.899 187.369 L 226.854 187.28 L 227.331 187.363 
                 L 228.286 187.335 L 234.97 187.285 L 276.986 187.288 "
          stroke="black" fill="none" stroke-width="0.5"/>
      </g>
    </g>
    <!-- 0.004 vs x -->
    <g id="0_004_vs_x">
      <defs>
        <clipPath id="clipPath3">
          <rect x="38.5" y="9.27165" width="190.98" height="183"/>
        </clipPath>
      </defs>
      <g clip-path="url(#clipPath3)">
        <path d="M 38.7387 187.312 L 59.7465 187.234 L 60.2239 186.189 L 60.7014 181.314 L 61.1788 166.174 
                 L 62.1337 115.483 L 62.6112 113.68 L 63.5661 164.496 L 64.0435 179.856 L 64.521 185.729 
                 L 64.9984 186.809 L 65.4759 186.973 L 66.4308 186.89 L 66.9082 187.021 L 67.3857 186.663 
                 L 68.818 186.531 L 69.2954 186.418 L 69.7729 186.493 L 70.7278 186.269 L 71.2052 186.266 
                 L 71.6827 186.157 L 72.1601 185.878 L 74.5474 185.835 L 75.0248 185.476 L 75.5023 185.325 
                 L 76.4572 184.459 L 76.9346 183.357 L 77.4121 183.143 L 77.8895 182.112 L 78.367 182.88 
                 L 78.8444 183.043 L 79.3219 183.63 L 79.7993 183.797 L 80.2768 184.356 L 81.7091 185.142 
                 L 83.1415 184.913 L 83.6189 184.847 L 84.0964 184.519 L 84.5738 184.604 L 85.0513 184.442 
                 L 86.4836 184.867 L 86.9611 185.396 L 87.916 185.759 L 88.8709 186.026 L 89.3483 185.914 
                 L 89.8257 186.025 L 91.7355 185.845 L 92.213 185.643 L 92.6904 185.824 L 93.1679 185.515 
                 L 93.6453 185.593 L 95.0777 185.344 L 95.5551 185.554 L 96.0326 185.273 L 96.51 185.307 
                 L 97.4649 185.239 L 98.8973 185.33 L 99.3747 185.221 L 99.8522 185.259 L 100.33 185.066 
                 L 100.807 185.201 L 101.762 185.229 L 102.239 185.344 L 102.717 185.059 L 103.194 185.027 
                 L 103.672 185.385 L 104.149 185.164 L 104.627 185.305 L 106.536 185.17 L 107.969 185.345 
                 L 108.446 185.124 L 111.311 185.166 L 117.04 185.009 L 117.518 184.892 L 118.95 184.943 
                 L 120.382 185.004 L 122.292 184.808 L 123.247 184.937 L 123.725 184.813 L 125.157 184.966 
                 L 125.634 184.793 L 126.589 184.931 L 127.067 184.797 L 127.544 184.879 L 128.022 184.796 
                 L 128.977 184.895 L 129.454 184.962 L 131.364 184.748 L 131.841 184.931 L 132.319 184.806 
                 L 132.796 184.953 L 133.274 184.809 L 133.751 184.905 L 134.228 184.775 L 135.661 184.831 
                 L 136.138 184.708 L 136.616 184.822 L 137.093 184.711 L 137.571 184.875 L 138.048 184.89 
                 L 139.003 184.777 L 139.48 184.888 L 142.345 184.743 L 143.3 184.894 L 143.777 184.724 
                 L 144.255 184.894 L 145.21 184.788 L 145.687 184.901 L 147.12 184.813 L 149.507 184.779 
                 L 149.984 184.933 L 150.939 184.775 L 151.417 184.905 L 151.894 184.767 L 152.372 184.845 
                 L 153.326 184.776 L 155.236 184.806 L 155.714 184.762 L 156.191 184.82 L 156.669 184.77 
                 L 157.623 184.896 L 159.056 184.835 L 159.533 184.899 L 160.011 184.748 L 160.488 184.85 
                 L 161.443 184.837 L 161.921 184.903 L 163.353 184.805 L 163.83 184.907 L 164.785 184.757 
                 L 165.74 184.87 L 166.695 184.798 L 167.172 184.909 L 168.127 184.842 L 169.082 184.83 
                 L 171.469 184.835 L 171.947 184.755 L 173.379 184.808 L 175.767 184.896 L 176.244 184.794 
                 L 177.199 184.826 L 180.064 184.807 L 180.541 184.93 L 181.496 184.839 L 188.18 184.881 
                 L 188.658 184.82 L 189.135 184.862 L 189.613 184.766 L 190.567 184.851 L 191.045 184.791 
                 L 192 184.887 L 192.955 184.825 L 213.008 184.84 L 213.485 184.763 L 214.44 184.827 
                 L 215.395 184.816 L 216.827 184.892 L 218.259 184.831 L 219.214 184.855 L 222.079 184.827 
                 L 224.944 184.868 L 225.421 184.759 L 225.899 184.846 L 228.286 184.807 L 229.241 184.875 
                 L 229.718 184.783 L 230.673 184.821 L 276.986 184.836 "
          stroke="black" fill="none" stroke-width="0.5"/>
      </g>
    </g>
    <!-- 0.008 vs x -->
    <g id="0_008_vs_x">
      <defs>
        <clipPath id="clipPath4">
          <rect x="38.5" y="9.27165" width="190.98" height="183"/>
        </clipPath>
      </defs>
      <g clip-path="url(#clipPath4)">
        <path d="M 38.7387 184.833 L 59.269 184.806 L 59.7465 184.572 L 60.2239 183.235 L 60.7014 175.298 
                 L 61.1788 154.304 L 62.1337 83.2574 L 62.6112 80.7158 L 63.5661 151.255 L 64.0435 173.712 
                 L 64.521 182.188 L 64.9984 184.128 L 66.4308 184.214 L 66.9082 184.118 L 67.3857 184.141 
                 L 67.8631 184.286 L 68.3406 184.29 L 68.818 184.077 L 69.7729 184.086 L 70.2503 184.143 
                 L 71.2052 183.875 L 71.6827 184.02 L 72.1601 183.731 L 73.115 183.673 L 73.5925 183.551 
                 L 74.5474 183.663 L 75.0248 183.5 L 75.9797 181.571 L 77.4121 174.19 L 77.8895 173.824 
                 L 78.367 174.568 L 78.8444 176.836 L 79.3219 178.075 L 79.7993 180.019 L 80.2768 181.134 
                 L 81.2317 182.672 L 82.1866 182.728 L 82.664 182.502 L 83.1415 182.711 L 85.5287 180.79 
                 L 86.0062 181.007 L 86.9611 182.034 L 87.916 183.251 L 88.8709 183.835 L 89.8257 183.728 
                 L 91.2581 183.703 L 92.213 183.49 L 93.6453 183.438 L 94.6002 183.212 L 96.51 182.498 
                 L 99.3747 182.49 L 100.33 182.833 L 100.807 182.788 L 101.285 182.92 L 101.762 182.914 
                 L 102.239 183.026 L 103.672 183.055 L 104.149 183.157 L 105.104 183.131 L 106.059 183.215 
                 L 107.491 183.044 L 108.446 183.152 L 108.924 182.971 L 109.401 183.038 L 109.879 182.949 
                 L 110.833 183.21 L 111.311 182.975 L 111.788 183.081 L 113.221 183.023 L 115.131 182.985 
                 L 115.608 182.778 L 116.085 182.897 L 116.563 182.911 L 117.04 182.812 L 117.518 182.856 
                 L 117.995 182.749 L 118.473 182.81 L 118.95 182.694 L 120.382 182.816 L 120.86 182.645 
                 L 121.337 182.883 L 121.815 182.747 L 122.77 182.856 L 123.247 182.684 L 124.202 182.77 
                 L 124.68 182.755 L 125.157 182.629 L 126.112 182.783 L 126.589 182.647 L 127.544 182.725 
                 L 128.499 182.664 L 129.454 182.653 L 130.409 182.683 L 130.886 182.576 L 133.751 182.63 
                 L 134.706 182.463 L 136.616 182.546 L 137.093 182.426 L 140.435 182.48 L 140.913 182.386 
                 L 141.868 182.467 L 142.345 182.355 L 143.3 182.564 L 143.777 182.479 L 144.255 182.507 
                 L 144.732 182.368 L 147.597 182.474 L 148.552 182.306 L 149.029 182.41 L 150.462 182.341 
                 L 151.417 182.345 L 151.894 182.281 L 153.804 182.394 L 155.236 182.282 L 155.714 182.396 
                 L 156.669 182.292 L 157.146 182.337 L 158.101 182.242 L 158.578 182.395 L 159.056 182.359 
                 L 159.533 182.223 L 160.011 182.376 L 162.398 182.308 L 168.605 182.375 L 169.082 182.238 
                 L 170.515 182.375 L 171.469 182.26 L 172.424 182.356 L 174.334 182.266 L 174.812 182.34 
                 L 175.289 182.233 L 175.767 182.392 L 178.154 182.304 L 179.109 182.373 L 179.586 182.246 
                 L 182.928 182.343 L 198.207 182.355 L 198.684 182.42 L 199.639 182.309 L 201.549 182.331 
                 L 204.891 182.377 L 206.323 182.28 L 207.756 182.362 L 208.233 182.324 L 209.188 182.387 
                 L 212.053 182.386 L 212.53 182.308 L 213.008 182.384 L 213.962 182.363 L 214.44 182.436 
                 L 214.917 182.34 L 216.35 182.403 L 217.305 182.338 L 217.782 182.412 L 219.692 182.341 
                 L 221.124 182.38 L 221.602 182.304 L 223.034 182.391 L 225.899 182.333 L 227.808 182.357 
                 L 228.763 182.371 L 231.151 182.355 L 276.986 182.374 "
          stroke="black" fill="none" stroke-width="0.5"/>
      </g>
    </g>
    <!-- 0.012 vs x -->
    <g id="0_012_vs_x">
      <defs>
        <clipPath id="clipPath5">
          <rect x="38.5" y="9.27165" width="190.98" height="183"/>
        </clipPath>
      </defs>
      <g clip-path="url(#clipPath5)">
        <path d="M 38.7387 182.353 L 59.269 182.353 L 59.7465 182.171 L 60.2239 180.257 L 60.7014 172.101 
                 L 61.1788 149.031 L 62.1337 68.7887 L 62.6112 66.2106 L 64.0435 170.312 L 64.521 179.587 
                 L 64.9984 180.927 L 65.4759 181.463 L 66.4308 181.462 L 66.9082 181.667 L 67.8631 181.725 
                 L 69.2954 181.695 L 69.7729 181.594 L 70.7278 181.684 L 71.2052 181.428 L 72.6376 181.14 
                 L 73.5925 181.282 L 74.5474 181.157 L 75.0248 180.852 L 75.5023 180.056 L 75.9797 178.227 
                 L 76.4572 175.6 L 77.4121 168.793 L 77.8895 167.996 L 78.367 169.457 L 78.8444 171.505 
                 L 79.3219 174.373 L 80.2768 177.892 L 81.2317 179.637 L 81.7091 179.968 L 82.1866 179.971 
                 L 82.664 180.191 L 84.0964 179.52 L 85.0513 177.907 L 85.5287 177.432 L 86.0062 177.572 
                 L 86.4836 178.204 L 86.9611 178.667 L 87.4385 179.82 L 88.3934 181.128 L 90.3032 181.37 
                 L 90.7806 181.332 L 91.2581 181.151 L 93.1679 181.041 L 93.6453 180.808 L 94.1228 180.815 
                 L 94.6002 180.504 L 95.0777 180.451 L 96.9875 179.375 L 97.4649 179.629 L 97.9424 179.629 
                 L 98.4198 179.748 L 99.3747 179.747 L 99.8522 179.909 L 100.33 179.891 L 100.807 180.02 
                 L 101.285 180.354 L 101.762 180.343 L 102.717 180.616 L 105.582 180.832 L 106.059 180.712 
                 L 107.969 180.608 L 108.446 180.487 L 110.356 180.711 L 110.833 180.586 L 112.266 180.684 
                 L 113.698 180.662 L 114.653 180.432 L 115.131 180.596 L 116.085 180.302 L 116.563 180.449 
                 L 117.04 180.394 L 117.518 180.482 L 118.473 180.382 L 119.428 180.405 L 119.905 180.279 
                 L 120.86 180.462 L 121.337 180.498 L 121.815 180.395 L 123.247 180.401 L 128.022 180.357 
                 L 128.499 180.275 L 129.454 180.327 L 130.409 180.245 L 132.796 180.199 L 133.274 180.265 
                 L 133.751 180.165 L 135.183 180.217 L 135.661 180.101 L 136.616 180.179 L 139.003 179.999 
                 L 139.48 180.142 L 139.958 180.051 L 140.913 180.092 L 142.345 180.115 L 143.3 180.02 
                 L 143.777 180.076 L 144.255 180.026 L 145.21 180.093 L 146.165 179.974 L 146.642 180.159 
                 L 147.12 179.931 L 148.075 179.994 L 149.984 179.991 L 155.236 179.938 L 155.714 179.973 
                 L 156.669 179.876 L 159.056 179.938 L 159.533 179.844 L 160.011 179.932 L 162.398 179.851 
                 L 163.353 179.893 L 163.83 179.833 L 164.785 179.922 L 165.263 179.784 L 165.74 179.935 
                 L 166.218 179.843 L 170.515 179.846 L 175.767 179.798 L 176.244 179.892 L 177.199 179.798 
                 L 177.676 179.902 L 178.154 179.861 L 178.631 179.924 L 179.109 179.813 L 180.064 179.871 
                 L 181.018 179.841 L 187.225 179.822 L 188.18 179.845 L 188.658 179.925 L 190.567 179.848 
                 L 192 179.863 L 192.477 179.825 L 193.432 179.874 L 194.387 179.871 L 194.864 179.912 
                 L 195.819 179.847 L 196.774 179.815 L 197.252 179.806 L 197.729 179.945 L 199.639 179.86 
                 L 200.116 179.908 L 200.594 179.848 L 201.071 179.923 L 202.504 179.89 L 276.986 179.819 "
          stroke="black" fill="none" stroke-width="0.5"/>
      </g>
    </g>
    <!-- 0.18 vs x -->
    <g id="0_18_vs_x">
      <defs>
        <clipPath id="clipPath6">
          <rect x="38.5" y="9.27165" width="190.98" height="183"/>
        </clipPath>
      </defs>
      <g clip-path="url(#clipPath6)">
        <path d="M 38.7387 179.874 L 59.269 179.846 L 59.7465 179.587 L 60.2239 177.128 L 60.7014 167.423 
                 L 61.1788 136.314 L 62.1337 32.419 L 62.6112 24.5847 L 63.0886 71.5681 L 63.5661 128.955 
                 L 64.0435 162.56 L 64.521 174.568 L 64.9984 177.005 L 65.4759 177.51 L 66.4308 177.518 
                 L 67.3857 177.502 L 67.8631 177.811 L 68.3406 177.85 L 69.2954 178.209 L 69.7729 177.718 
                 L 70.2503 177.922 L 71.6827 177.434 L 72.1601 177.17 L 72.6376 177.084 L 73.115 177.121 
                 L 74.0699 177.751 L 74.5474 177.39 L 75.0248 176.651 L 75.5023 175.193 L 75.9797 172.36 
                 L 77.4121 156.099 L 77.8895 153.673 L 78.367 155.171 L 78.8444 157.916 L 79.3219 162.859 
                 L 80.2768 169.122 L 80.7542 171.686 L 81.2317 172.835 L 81.7091 173.476 L 82.664 173.943 
                 L 83.1415 173.596 L 83.6189 173.086 L 85.5287 168.609 L 86.0062 168.25 L 87.4385 173.809 
                 L 87.916 175.85 L 88.3934 177.039 L 89.3483 177.746 L 89.8257 177.642 L 90.3032 177.429 
                 L 90.7806 177.499 L 91.7355 177.147 L 92.213 177.191 L 92.6904 176.889 L 93.6453 176.666 
                 L 94.1228 176.047 L 94.6002 175.809 L 95.0777 175.303 L 96.51 173.041 L 96.9875 172.804 
                 L 97.4649 172.298 L 97.9424 172.883 L 98.4198 172.99 L 99.3747 172.769 L 99.8522 173.405 
                 L 100.33 173.631 L 100.807 174.294 L 101.285 174.354 L 101.762 175.194 L 102.717 176.049 
                 L 103.672 176.423 L 104.627 176.687 L 105.104 176.926 L 105.582 176.884 L 106.059 177.045 
                 L 108.924 176.187 L 109.401 176.513 L 109.879 176.662 L 110.356 177.065 L 112.266 177.486 
                 L 112.743 177.273 L 113.221 177.27 L 113.698 177.063 L 114.176 177.076 L 115.131 176.556 
                 L 115.608 176.634 L 117.04 176.295 L 117.995 176.55 L 118.473 176.466 L 119.905 176.814 
                 L 120.382 176.76 L 120.86 176.906 L 121.337 176.899 L 124.202 177.487 L 125.634 177.587 
                 L 126.589 177.721 L 129.454 177.726 L 130.409 177.585 L 130.886 177.685 L 131.841 177.597 
                 L 134.706 177.651 L 135.183 177.487 L 137.093 177.569 L 139.48 177.626 L 140.435 177.791 
                 L 140.913 177.702 L 142.345 177.815 L 142.823 177.74 L 143.777 177.845 L 145.21 177.846 
                 L 145.687 177.943 L 146.165 177.875 L 146.642 177.989 L 147.597 177.873 L 148.075 177.977 
                 L 149.029 177.915 L 149.507 177.874 L 149.984 177.969 L 150.939 177.886 L 154.759 177.836 
                 L 155.236 177.937 L 155.714 177.842 L 156.191 177.903 L 157.623 177.842 L 159.533 177.83 
                 L 160.011 177.943 L 161.443 177.895 L 172.902 177.926 L 173.379 177.788 L 174.334 177.899 
                 L 175.289 177.887 L 175.767 177.824 L 176.721 177.835 L 178.631 177.877 L 179.109 177.784 
                 L 181.973 177.835 L 182.928 177.778 L 183.883 177.798 L 184.361 177.748 L 185.793 177.838 
                 L 186.27 177.779 L 187.225 177.786 L 188.18 177.772 L 189.613 177.768 L 191.522 177.753 
                 L 192.955 177.76 L 193.432 177.722 L 193.91 177.793 L 195.342 177.71 L 196.297 177.755 
                 L 196.774 177.67 L 197.729 177.713 L 198.684 177.68 L 199.639 177.636 L 200.116 177.723 
                 L 201.071 177.675 L 202.504 177.668 L 203.459 177.624 L 205.846 177.66 L 207.278 177.617 
                 L 208.233 177.608 L 209.665 177.545 L 210.143 177.633 L 212.053 177.564 L 212.53 177.645 
                 L 213.485 177.547 L 213.962 177.592 L 214.44 177.531 L 215.395 177.636 L 215.872 177.514 
                 L 216.827 177.493 L 232.105 177.488 L 276.986 177.358 "
          stroke="black" fill="none" stroke-width="0.5"/>
      </g>
    </g>
    <!-- 0.63 vs x -->
    <g id="0_63_vs_x">
      <defs>
        <clipPath id="clipPath7">
          <rect x="38.5" y="9.27165" width="190.98" height="183"/>
        </clipPath>
      </defs>
      <g clip-path="url(#clipPath7)">
        <path d="M 38.7387 177.394 L 59.269 177.367 L 59.7465 177.055 L 60.2239 174.948 L 60.7014 164.322 
                 L 61.1788 129.941 L 62.1337 19.8588 L 62.6112 14.6891 L 64.0435 159.575 L 64.521 171.792 
                 L 64.9984 174.123 L 65.4759 174.464 L 65.9533 174.331 L 66.4308 174.54 L 66.9082 174.197 
                 L 67.3857 174.387 L 67.8631 175.085 L 68.818 174.613 L 69.2954 174.711 L 69.7729 174.624 
                 L 70.2503 174.695 L 70.7278 174.252 L 72.1601 173.422 L 72.6376 173.826 L 73.5925 173.702 
                 L 74.0699 173.959 L 74.5474 173.686 L 75.0248 172.97 L 75.5023 171.354 L 75.9797 168.732 
                 L 76.4572 163.756 L 77.4121 152.46 L 77.8895 149.766 L 78.367 150.794 L 78.8444 153.193 
                 L 79.7993 161.068 L 80.7542 167.207 L 81.2317 168.666 L 81.7091 169.552 L 82.1866 170.074 
                 L 82.664 169.066 L 83.1415 169.16 L 83.6189 168.57 L 85.5287 163.397 L 86.0062 164.157 
                 L 86.4836 165.745 L 87.916 172.401 L 88.3934 173.916 L 88.8709 174.149 L 89.3483 174.496 
                 L 89.8257 174.349 L 90.3032 174.339 L 90.7806 174.05 L 91.2581 174.034 L 91.7355 173.603 
                 L 92.213 173.605 L 92.6904 173.491 L 93.1679 172.924 L 93.6453 172.812 L 94.1228 172.349 
                 L 94.6002 172.064 L 95.0777 171.51 L 95.5551 170.522 L 96.0326 169.924 L 96.51 169.136 
                 L 96.9875 168.61 L 97.4649 168.755 L 97.9424 168.633 L 98.4198 168.87 L 98.8973 168.598 
                 L 99.3747 169.072 L 99.8522 168.901 L 100.33 169.669 L 100.807 169.817 L 101.762 171.36 
                 L 102.239 171.708 L 102.717 172.187 L 103.672 172.668 L 104.627 173.321 L 105.104 173.18 
                 L 105.582 173.342 L 106.536 173.411 L 107.014 173.261 L 107.969 172.7 L 108.446 172.911 
                 L 108.924 172.762 L 109.401 173.054 L 109.879 173.205 L 110.833 173.85 L 111.311 173.814 
                 L 112.266 174.015 L 112.743 173.842 L 113.221 173.972 L 113.698 173.646 L 114.176 173.484 
                 L 114.653 173.502 L 115.131 172.995 L 115.608 172.954 L 116.085 172.789 L 117.518 172.679 
                 L 118.473 172.762 L 119.428 173.167 L 119.905 173.094 L 120.382 173.33 L 120.86 173.233 
                 L 121.815 173.542 L 123.247 173.773 L 123.725 174.076 L 124.202 173.975 L 126.112 174.365 
                 L 127.544 174.386 L 128.022 174.594 L 128.499 174.624 L 128.977 174.397 L 129.454 174.471 
                 L 131.364 174.352 L 131.841 174.157 L 132.319 174.34 L 133.274 174.321 L 133.751 174.423 
                 L 134.706 174.332 L 135.183 174.381 L 136.138 174.295 L 136.616 174.407 L 137.093 174.269 
                 L 138.048 174.404 L 138.526 174.31 L 139.003 174.47 L 140.435 174.391 L 140.913 174.599 
                 L 141.868 174.606 L 142.345 174.695 L 142.823 174.653 L 143.777 174.79 L 144.732 174.774 
                 L 145.21 174.884 L 147.12 174.899 L 148.075 174.967 L 148.552 174.961 L 149.029 174.836 
                 L 149.507 174.97 L 149.984 174.905 L 150.462 174.964 L 151.417 174.831 L 152.372 174.986 
                 L 153.804 174.821 L 170.037 175.224 L 171.469 175.176 L 173.379 175.229 L 174.812 175.187 
                 L 175.289 175.274 L 176.244 175.217 L 182.928 175.323 L 183.406 175.232 L 185.316 175.303 
                 L 186.27 175.271 L 187.703 175.232 L 188.18 175.318 L 189.135 175.273 L 192 175.292 
                 L 193.432 175.307 L 194.864 175.279 L 198.207 175.347 L 199.639 175.26 L 200.594 175.348 
                 L 202.026 175.276 L 207.278 175.3 L 207.756 175.266 L 208.233 175.358 L 209.188 175.247 
                 L 210.62 175.312 L 218.259 175.267 L 218.737 175.333 L 220.647 175.225 L 221.124 175.308 
                 L 223.034 175.216 L 229.718 175.229 L 255.978 175.109 L 276.986 175.015 "
          stroke="black" fill="none" stroke-width="0.5"/>
      </g>
    </g>
    <!-- 1.15 vs x -->
    <g id="1_15_vs_x">
      <defs>
        <clipPath id="clipPath8">
          <rect x="38.5" y="9.27165" width="190.98" height="183"/>
        </clipPath>
      </defs>
      <g clip-path="url(#clipPath8)">
        <path d="M 38.7387 174.914 L 59.269 174.887 L 59.7465 174.68 L 60.2239 171.919 L 60.7014 160.241 
                 L 61.1788 128.904 L 62.1337 16.6202 L 62.6112 9.27165 L 64.0435 156.139 L 64.521 168.669 
                 L 64.9984 171.727 L 65.9533 171.617 L 66.4308 171.834 L 66.9082 171.659 L 67.3857 171.724 
                 L 67.8631 171.922 L 68.3406 171.806 L 68.818 171.903 L 69.2954 172.169 L 69.7729 171.795 
                 L 70.2503 172.028 L 71.2052 171.368 L 71.6827 170.218 L 72.1601 170.09 L 73.115 170.697 
                 L 73.5925 170.868 L 74.5474 170.636 L 75.0248 170.067 L 75.5023 168.453 L 75.9797 165.43 
                 L 76.9346 155.513 L 77.4121 148.829 L 77.8895 146.755 L 78.367 147.9 L 78.8444 150.424 
                 L 80.2768 160.383 L 80.7542 163.791 L 81.2317 165.406 L 81.7091 165.684 L 82.1866 166.847 
                 L 82.664 166.145 L 83.1415 165.628 L 84.5738 162.124 L 85.0513 160.673 L 85.5287 160.183 
                 L 86.0062 160.425 L 86.9611 165.118 L 87.4385 167.792 L 87.916 169.652 L 88.3934 170.873 
                 L 88.8709 171.497 L 89.8257 171.538 L 90.3032 171.398 L 90.7806 171.411 L 91.7355 170.824 
                 L 92.213 170.374 L 92.6904 170.41 L 93.1679 170.11 L 93.6453 169.538 L 94.6002 168.997 
                 L 96.0326 166.8 L 96.51 166.251 L 96.9875 165.482 L 97.4649 165.404 L 97.9424 165.57 
                 L 98.8973 165.411 L 99.8522 165.573 L 100.33 166.367 L 102.239 168.559 L 102.717 168.55 
                 L 103.194 169.314 L 103.672 169.748 L 104.149 169.858 L 105.104 170.461 L 106.059 170.235 
                 L 106.536 170.235 L 107.491 169.97 L 107.969 170.008 L 108.446 169.658 L 109.879 170.286 
                 L 110.356 170.737 L 110.833 170.729 L 111.311 171.101 L 111.788 170.965 L 112.266 171.089 
                 L 113.698 170.729 L 114.653 170.222 L 115.131 170.14 L 115.608 169.856 L 117.518 169.571 
                 L 117.995 169.794 L 118.95 169.756 L 121.337 170.406 L 122.292 170.613 L 123.247 170.937 
                 L 123.725 171.05 L 124.202 171.017 L 124.68 171.249 L 127.067 171.436 L 128.022 171.691 
                 L 128.499 171.593 L 129.454 171.547 L 130.409 171.399 L 132.319 171.344 L 132.796 171.337 
                 L 133.274 171.432 L 133.751 171.337 L 134.706 171.437 L 137.571 171.287 L 142.823 171.711 
                 L 143.3 171.733 L 143.777 171.91 L 146.642 172.007 L 147.12 172.166 L 147.597 172.025 
                 L 148.552 172.036 L 150.462 172.068 L 150.939 172.151 L 151.417 172.069 L 152.372 172.079 
                 L 155.236 171.995 L 155.714 172.108 L 157.146 172.083 L 158.101 172.109 L 158.578 172.053 
                 L 159.533 172.266 L 160.488 172.25 L 161.443 172.262 L 161.921 172.188 L 162.398 172.373 
                 L 162.875 172.304 L 163.83 172.4 L 164.308 172.294 L 164.785 172.39 L 165.263 172.318 
                 L 166.218 172.444 L 166.695 172.367 L 168.605 172.463 L 170.515 172.376 L 171.469 172.484 
                 L 171.947 172.361 L 172.902 172.43 L 176.244 172.426 L 177.199 172.539 L 178.631 172.516 
                 L 179.109 172.577 L 180.064 172.568 L 184.361 172.538 L 185.316 172.649 L 185.793 172.58 
                 L 187.703 172.642 L 188.18 172.586 L 188.658 172.673 L 190.09 172.558 L 191.045 172.631 
                 L 193.432 172.661 L 193.91 172.695 L 194.864 172.625 L 195.342 172.675 L 196.297 172.641 
                 L 197.252 172.653 L 199.639 172.637 L 200.116 172.737 L 203.459 172.702 L 204.413 172.675 
                 L 212.53 172.716 L 213.008 172.779 L 214.44 172.716 L 217.305 172.676 L 217.782 172.747 
                 L 219.692 172.703 L 223.034 172.719 L 223.989 172.76 L 225.899 172.73 L 226.854 172.773 
                 L 227.331 172.702 L 228.286 172.703 L 276.986 172.605 "
          stroke="black" fill="none" stroke-width="0.5"/>
      </g>
    </g>
  </g>
  <!-- Foreground -->
  <g id="Foreground">
    <!-- Y Axis -->
    <g id="Y_Axis">
      <g transform="translate(12.1422,100.772) rotate(-90) translate(-12.1422,-100.772)" font-family="Helvetica" font-size="11" fill="black">
        <text x="3.58872" y="100.772">g(r)</text>
      </g>
      <!-- Y Labels -->
      <g id="Y_Labels">
        <g font-family="Helvetica" font-size="11" fill="black">
          <text x="29.2657" y="196.217">0</text>
        </g>
        <g font-family="Helvetica" font-size="11" fill="black">
          <text x="23.148" y="171.421">10</text>
        </g>
        <g font-family="Helvetica" font-size="11" fill="black">
          <text x="23.148" y="146.625">20</text>
        </g>
        <g font-family="Helvetica" font-size="11" fill="black">
          <text x="23.148" y="121.828">30</text>
        </g>
        <g font-family="Helvetica" font-size="11" fill="black">
          <text x="23.148" y="97.0324">40</text>
        </g>
        <g font-family="Helvetica" font-size="11" fill="black">
          <text x="23.148" y="72.2363">50</text>
        </g>
        <g font-family="Helvetica" font-size="11" fill="black">
          <text x="23.148" y="47.4403">60</text>
        </g>
        <g font-family="Helvetica" font-size="11" fill="black">
          <text x="23.148" y="22.6442">70</text>
        </g>
      </g>
      <path d="M 38.5 192.272 L 43.0833 192.272 M 38.5 167.476 L 43.0833 167.476 M 38.5 142.68 L 43.0833 142.68 
               M 38.5 117.883 L 43.0833 117.883 M 38.5 93.0873 L 43.0833 93.0873 M 38.5 68.2913 L 43.0833 68.2913 
               M 38.5 43.4952 L 43.0833 43.4952 M 38.5 18.6991 L 43.0833 18.6991 "
        stroke="black" fill="none" stroke-width="0.5"/>
    </g>
    <!-- X Axis -->
    <g id="X_Axis">
      <g font-family="Helvetica" font-size="11" fill="black">
        <text x="127.281" y="219.772">r/σ</text>
      </g>
      <g>
        <g font-family="Helvetica" font-size="11" fill="black">
          <text x="35.4412" y="204.896">0</text>
        </g>
        <g font-family="Helvetica" font-size="11" fill="black">
          <text x="83.186" y="204.896">2</text>
        </g>
        <g font-family="Helvetica" font-size="11" fill="black">
          <text x="130.931" y="204.896">4</text>
        </g>
        <g font-family="Helvetica" font-size="11" fill="black">
          <text x="178.676" y="204.896">6</text>
        </g>
        <g font-family="Helvetica" font-size="11" fill="black">
          <text x="226.421" y="204.896">8</text>
        </g>
      </g>
      <path d="M 38.5 192.272 L 38.5 187.688 M 86.2449 192.272 L 86.2449 187.688 M 133.99 192.272 L 133.99 187.688 
               M 181.735 192.272 L 181.735 187.688 M 229.48 192.272 L 229.48 187.688 "
        stroke="black" fill="none" stroke-width="0.5"/>
    </g>
    <path d="M 38.5 9.27165 L 38.5 192.272 L 229.48 192.272 "
      stroke="black" stroke-linecap="square" fill="none" stroke-width="0.5"/>
  </g>
  <!-- Zoom -->
  <g id="Zoom">
    <!-- Source -->
    <g id="Source">
      <rect x="53.5396" y="140.448" width="83.8639" height="52.7908" stroke="black" fill="none" stroke-width="0.5"/>
    </g>
    <!-- Destination -->
    <g id="Destination">
      <!-- Content -->
      <g id="Content" transform="translate(86,126.772)">>
        <!-- Commands -->
        <g id="Commands_2">
          <defs>
            <clipPath id="clipPath9">
              <rect x="0.479528" y="-118.5" width="103" height="118"/>
            </clipPath>
          </defs>
          <g clip-path="url(#clipPath9)">
            <path d="M -17.6987 -2.66158 L 7.51625 -2.66158 L 8.68904 -2.94053 L 9.27543 -6.56105 L 9.86182 -15.306 
                     L 11.0346 -44.8981 L 11.621 -48.6769 L 12.7938 -17.8734 L 13.3802 -8.10935 L 13.9666 -5.07255 
                     L 14.553 -4.19899 L 15.7258 -4.54806 L 16.3121 -5.26038 L 16.8985 -5.20639 L 17.4849 -5.50164 
                     L 18.0713 -6.05133 L 18.6577 -5.70718 L 19.2441 -6.12762 L 19.8305 -6.68731 L 20.4169 -6.72686 
                     L 21.0033 -6.52717 L 21.5897 -7.55426 L 22.1761 -7.24014 L 22.7625 -7.58759 L 23.3489 -7.10025 
                     L 23.9353 -7.81292 L 25.1081 -7.70744 L 25.6944 -8.17641 L 26.2808 -8.07181 L 26.8672 -7.53656 
                     L 27.4536 -7.64234 L 28.04 -8.19103 L 28.6264 -8.43659 L 29.2128 -7.86622 L 29.7992 -8.41747 
                     L 30.3856 -8.00726 L 30.972 -8.37696 L 31.5584 -8.27486 L 32.1448 -8.46032 L 32.7312 -8.09547 
                     L 33.3176 -8.18319 L 33.904 -8.45727 L 34.4903 -8.31411 L 35.6631 -8.58015 L 36.8359 -8.14468 
                     L 38.0087 -8.41132 L 38.5951 -8.87578 L 39.1815 -8.33583 L 39.7679 -8.29266 L 40.3543 -8.86836 
                     L 40.9407 -8.19654 L 41.5271 -7.99833 L 42.6999 -8.14989 L 43.2862 -7.7915 L 43.8726 -8.83626 
                     L 44.459 -7.89597 L 45.6318 -8.6369 L 46.2182 -8.19108 L 46.8046 -8.31848 L 47.391 -8.11527 
                     L 47.9774 -8.30169 L 48.5638 -7.85304 L 49.1502 -8.24732 L 49.7366 -7.89126 L 50.323 -8.11675 
                     L 50.9094 -7.9741 L 51.4958 -8.25497 L 52.0821 -8.32353 L 52.6685 -8.27764 L 53.8413 -8.37286 
                     L 54.4277 -8.2732 L 55.6005 -7.83175 L 56.1869 -8.13289 L 56.7733 -8.60874 L 57.9461 -8.1165 
                     L 58.5325 -8.2706 L 59.1189 -8.01195 L 60.2917 -8.55925 L 60.878 -8.12073 L 61.4644 -8.12223 
                     L 62.0508 -8.42069 L 63.2236 -8.41814 L 64.3964 -8.05646 L 65.5692 -8.32702 L 66.1556 -8.13614 
                     L 67.3284 -8.40134 L 67.9148 -8.05415 L 68.5012 -8.36354 L 69.0876 -8.11939 L 69.6739 -8.31017 
                     L 70.2603 -8.39347 L 70.8467 -7.91041 L 71.4331 -7.8865 L 72.0195 -8.06866 L 72.6059 -8.4586 
                     L 73.1923 -8.23141 L 73.7787 -8.14159 L 74.3651 -8.17466 L 74.9515 -8.08232 L 76.1243 -8.23501 
                     L 76.7107 -8.14852 L 77.2971 -8.19492 L 77.8835 -8.46447 L 79.0562 -8.09734 L 79.6426 -8.46558 
                     L 80.229 -8.02183 L 80.8154 -8.47911 L 81.9882 -7.84678 L 82.5746 -8.15171 L 83.161 -8.22022 
                     L 83.7474 -8.4096 L 84.3338 -8.08974 L 84.9202 -8.43682 L 85.5066 -8.16393 L 86.093 -8.36238 
                     L 86.6794 -8.34221 L 87.2658 -8.04608 L 87.8521 -8.30568 L 88.4385 -8.01923 L 89.0249 -8.2277 
                     L 89.6113 -8.13633 L 91.9569 -8.27653 L 93.7161 -8.03102 L 97.2344 -8.23163 L 98.4072 -8.17858 
                     L 99.58 -8.21561 L 100.166 -8.06958 L 100.753 -8.05573 L 101.339 -8.32081 L 101.926 -8.21589 
                     L 102.512 -8.37529 L 103.685 -8.28983 L 104.271 -8.14032 L 153.528 -8.37502 "
              stroke="black" fill="none" stroke-width="0.5"/>
          </g>
          <defs>
            <clipPath id="clipPath10">
              <rect x="0.479528" y="-118.5" width="103" height="118"/>
            </clipPath>
          </defs>
          <g clip-path="url(#clipPath10)">
            <path d="M -17.6987 -8.20409 L 7.51625 -8.20409 L 8.10264 -8.43737 L 8.68904 -9.3199 L 9.27543 -17.7124 
                     L 9.86182 -36.1037 L 11.0346 -104.603 L 11.621 -107.843 L 12.7938 -41.0163 L 13.3802 -17.5258 
                     L 13.9666 -10.9262 L 14.553 -9.02903 L 15.1394 -8.783 L 16.3121 -9.7566 L 16.8985 -9.31336 
                     L 17.4849 -9.68721 L 18.0713 -10.2502 L 18.6577 -9.56427 L 19.8305 -10.5362 L 20.4169 -10.7079 
                     L 21.0033 -10.607 L 21.5897 -10.6377 L 22.1761 -11.1087 L 22.7625 -11.2171 L 23.3489 -11.1555 
                     L 23.9353 -11.2316 L 24.5217 -11.6102 L 25.1081 -11.5395 L 25.6944 -11.7419 L 26.2808 -12.0946 
                     L 27.4536 -12.1272 L 28.04 -12.7214 L 28.6264 -12.6084 L 29.2128 -12.6066 L 29.7992 -13.3688 
                     L 30.3856 -13.2104 L 30.972 -13.671 L 31.5584 -14.4644 L 32.1448 -13.9712 L 32.7312 -14.5951 
                     L 33.3176 -13.5598 L 33.904 -13.7049 L 34.4903 -13.6115 L 35.0767 -13.2247 L 35.6631 -13.7225 
                     L 36.2495 -13.5229 L 36.8359 -13.9514 L 37.4223 -13.727 L 38.0087 -13.7132 L 38.5951 -14.2074 
                     L 39.1815 -14.2793 L 40.3543 -13.6759 L 40.9407 -13.1558 L 41.5271 -13.4736 L 42.1135 -12.7886 
                     L 42.6999 -12.5602 L 43.2862 -12.1599 L 43.8726 -12.1995 L 44.459 -12.3998 L 45.0454 -13.0217 
                     L 45.6318 -12.3446 L 46.2182 -12.645 L 46.8046 -12.4326 L 47.391 -13.026 L 47.9774 -12.4022 
                     L 49.1502 -13.1819 L 49.7366 -12.7238 L 50.323 -12.7827 L 50.9094 -13.366 L 51.4958 -13.4026 
                     L 52.0821 -13.13 L 52.6685 -12.9849 L 53.2549 -13.3447 L 54.4277 -13.1795 L 55.0141 -13.167 
                     L 55.6005 -13.3742 L 56.7733 -13.2631 L 57.3597 -13.7443 L 57.9461 -13.3628 L 59.1189 -13.5277 
                     L 59.7053 -13.724 L 60.2917 -13.4666 L 60.878 -13.4525 L 61.4644 -13.6207 L 62.0508 -13.9818 
                     L 62.6372 -13.5437 L 63.2236 -13.774 L 63.81 -13.8843 L 64.3964 -13.2186 L 65.5692 -13.7217 
                     L 66.1556 -13.544 L 66.742 -13.8133 L 67.3284 -13.1091 L 67.9148 -13.4998 L 68.5012 -13.4601 
                     L 69.6739 -13.8424 L 70.2603 -13.6096 L 70.8467 -13.7197 L 71.4331 -13.588 L 72.0195 -13.7484 
                     L 73.1923 -13.43 L 73.7787 -13.5521 L 74.3651 -13.5682 L 74.9515 -13.8041 L 75.5379 -13.5752 
                     L 76.1243 -14.0466 L 76.7107 -13.9169 L 77.2971 -13.5231 L 77.8835 -13.8817 L 78.4698 -13.911 
                     L 79.0562 -13.6904 L 79.6426 -13.6872 L 80.229 -13.5108 L 80.8154 -13.9322 L 81.4018 -13.7642 
                     L 81.9882 -13.9376 L 82.5746 -13.7296 L 83.161 -13.8986 L 83.7474 -13.4763 L 84.3338 -13.7043 
                     L 85.5066 -13.5581 L 86.093 -13.9526 L 86.6794 -13.8231 L 87.8521 -13.8517 L 88.4385 -13.6354 
                     L 89.0249 -13.7182 L 89.6113 -13.943 L 90.1977 -13.6638 L 90.7841 -13.5044 L 91.3705 -13.7731 
                     L 91.9569 -13.5463 L 92.5433 -13.9741 L 93.1297 -13.5081 L 94.3025 -13.9082 L 94.8889 -13.6994 
                     L 96.0617 -13.6298 L 96.648 -13.8101 L 97.8208 -13.6172 L 100.166 -13.7856 L 100.753 -13.7306 
                     L 101.339 -13.8103 L 103.098 -13.7353 L 103.685 -14.0228 L 104.271 -13.8157 L 153.528 -13.9297 "
              stroke="black" fill="none" stroke-width="0.5"/>
          </g>
          <defs>
            <clipPath id="clipPath11">
              <rect x="0.479528" y="-118.5" width="103" height="118"/>
            </clipPath>
          </defs>
          <g clip-path="url(#clipPath11)">
            <path d="M -17.6987 -13.7466 L 7.51625 -13.8076 L 8.10264 -13.9216 L 8.68904 -16.2572 L 9.27543 -27.1544 
                     L 9.86182 -60.997 L 11.0346 -174.302 L 11.621 -178.332 L 12.7938 -64.746 L 13.3802 -30.4128 
                     L 13.9666 -17.2853 L 14.553 -14.8716 L 15.1394 -14.5064 L 15.7258 -14.6898 L 16.3121 -14.6916 
                     L 16.8985 -14.3991 L 17.4849 -15.1982 L 18.0713 -15.2735 L 18.6577 -15.2251 L 19.8305 -15.7456 
                     L 20.4169 -15.5773 L 21.5897 -16.0789 L 22.1761 -16.0851 L 22.7625 -16.3292 L 23.3489 -16.9536 
                     L 23.9353 -16.9323 L 24.5217 -17.0428 L 25.1081 -16.8682 L 26.2808 -17.0495 L 26.8672 -17.8518 
                     L 27.4536 -18.1889 L 28.6264 -20.1247 L 29.2128 -22.5873 L 29.7992 -23.0673 L 30.3856 -25.3713 
                     L 30.972 -23.6533 L 31.5584 -23.2908 L 32.1448 -21.9786 L 32.7312 -21.6041 L 33.3176 -20.3544 
                     L 33.904 -19.6898 L 34.4903 -18.8367 L 35.0767 -18.598 L 35.6631 -18.8236 L 36.2495 -18.8224 
                     L 36.8359 -19.1108 L 37.4223 -19.2565 L 38.0087 -19.9903 L 38.5951 -19.7995 L 39.1815 -20.162 
                     L 39.7679 -19.842 L 40.3543 -19.6851 L 40.9407 -19.2129 L 41.5271 -18.0295 L 42.1135 -17.7264 
                     L 43.2862 -16.8246 L 43.8726 -16.6212 L 44.459 -16.873 L 45.0454 -16.6252 L 45.6318 -16.6705 
                     L 46.2182 -16.8967 L 46.8046 -16.8399 L 47.391 -17.0263 L 47.9774 -17.4793 L 48.5638 -17.0731 
                     L 49.1502 -17.7641 L 49.7366 -17.5909 L 50.323 -17.7295 L 51.4958 -18.1473 L 52.0821 -17.6776 
                     L 52.6685 -18.3047 L 53.2549 -18.23 L 53.8413 -18.3957 L 55.6005 -18.4181 L 56.1869 -18.1785 
                     L 56.7733 -18.4219 L 57.3597 -18.3354 L 57.9461 -18.7676 L 58.5325 -18.4671 L 59.7053 -18.4046 
                     L 60.2917 -18.1472 L 60.878 -18.7843 L 61.4644 -18.855 L 62.0508 -18.0551 L 62.6372 -18.5486 
                     L 63.2236 -18.2326 L 64.9828 -18.4771 L 65.5692 -18.536 L 66.1556 -18.4302 L 66.742 -18.5261 
                     L 67.3284 -18.1442 L 67.9148 -18.6387 L 70.2603 -18.3719 L 70.8467 -18.5878 L 73.1923 -18.49 
                     L 73.7787 -18.7503 L 74.3651 -18.4402 L 74.9515 -18.7673 L 76.1243 -18.8313 L 76.7107 -18.7243 
                     L 77.2971 -18.9212 L 77.8835 -18.6853 L 79.0562 -19.1571 L 79.6426 -19.0548 L 80.229 -18.8022 
                     L 80.8154 -19.0434 L 82.5746 -18.9068 L 83.7474 -19.1147 L 84.3338 -19.1254 L 84.9202 -19.3456 
                     L 86.093 -19.0552 L 86.6794 -19.333 L 87.2658 -19.1992 L 87.8521 -18.9156 L 88.4385 -18.992 
                     L 89.0249 -19.3786 L 89.6113 -19.1253 L 90.1977 -19.0706 L 90.7841 -19.3691 L 91.3705 -19.1861 
                     L 91.9569 -19.3714 L 92.5433 -19.1688 L 93.1297 -19.1503 L 93.7161 -19.0014 L 94.3025 -19.1483 
                     L 94.8889 -19.4726 L 95.4753 -19.2593 L 96.0617 -19.4776 L 96.648 -19.0686 L 97.2344 -19.3496 
                     L 97.8208 -19.0205 L 98.4072 -19.3428 L 98.9936 -19.1272 L 99.58 -19.4184 L 101.339 -19.2943 
                     L 101.926 -19.5688 L 102.512 -19.3126 L 103.098 -19.5622 L 103.685 -19.1951 L 104.271 -19.1616 
                     L 153.528 -19.0996 "
              stroke="black" fill="none" stroke-width="0.5"/>
          </g>
          <defs>
            <clipPath id="clipPath12">
              <rect x="0.479528" y="-118.5" width="103" height="118"/>
            </clipPath>
          </defs>
          <g clip-path="url(#clipPath12)">
            <path d="M -17.6987 -19.2891 L 7.51625 -19.3501 L 8.10264 -19.8723 L 8.68904 -22.8598 L 9.27543 -40.6027 
                     L 9.86182 -87.5279 L 11.0346 -246.334 L 11.621 -252.015 L 12.7938 -94.3424 L 13.3802 -44.1471 
                     L 13.9666 -25.1999 L 14.553 -20.864 L 15.1394 -20.7726 L 15.7258 -20.5468 L 17.4849 -20.8354 
                     L 18.0713 -20.5106 L 18.6577 -20.5014 L 19.2441 -20.9792 L 20.4169 -20.9583 L 21.0033 -20.8301 
                     L 21.5897 -21.0636 L 22.1761 -21.4307 L 22.7625 -21.1064 L 23.3489 -21.7525 L 23.9353 -21.7292 
                     L 24.5217 -21.8821 L 25.1081 -22.1541 L 26.2808 -21.9031 L 26.8672 -22.2694 L 28.04 -26.5805 
                     L 29.7992 -43.0778 L 30.3856 -43.8962 L 30.972 -42.2335 L 31.5584 -37.1642 L 32.1448 -34.3943 
                     L 32.7312 -30.0488 L 33.3176 -27.5564 L 34.4903 -24.1197 L 35.6631 -23.9936 L 36.2495 -24.4999 
                     L 36.8359 -24.0323 L 38.0087 -25.6721 L 38.5951 -26.4336 L 39.1815 -27.5392 L 39.7679 -28.325 
                     L 40.3543 -27.8409 L 41.5271 -25.5452 L 42.6999 -22.8258 L 43.8726 -21.5203 L 44.459 -21.7128 
                     L 46.8046 -21.8148 L 47.391 -22.1693 L 47.9774 -22.2917 L 49.1502 -22.2582 L 50.323 -22.5656 
                     L 51.4958 -23.3279 L 52.6685 -24.3086 L 53.2549 -24.508 L 54.4277 -24.5069 L 55.0141 -24.3638 
                     L 55.6005 -24.5253 L 56.1869 -24.4428 L 56.7733 -24.5257 L 57.9461 -23.7591 L 58.5325 -23.8604 
                     L 59.1189 -23.564 L 59.7053 -23.5787 L 60.2917 -23.3268 L 60.878 -23.318 L 61.4644 -23.2022 
                     L 62.0508 -23.2628 L 62.6372 -23.0342 L 63.81 -23.0938 L 64.9828 -22.9062 L 65.5692 -23.049 
                     L 66.1556 -23.0473 L 66.742 -23.2886 L 67.3284 -23.2447 L 67.9148 -23.0456 L 68.5012 -23.4514 
                     L 69.0876 -23.3013 L 69.6739 -23.501 L 70.2603 -23.3075 L 70.8467 -22.9175 L 71.4331 -23.4412 
                     L 72.0195 -23.2059 L 72.6059 -23.3005 L 73.1923 -23.2252 L 73.7787 -23.3355 L 74.3651 -23.3075 
                     L 74.9515 -23.4501 L 76.1243 -23.4188 L 76.7107 -23.8815 L 77.2971 -23.6151 L 77.8835 -23.584 
                     L 78.4698 -23.8051 L 79.0562 -23.7086 L 79.6426 -23.9473 L 80.229 -23.8095 L 80.8154 -24.0692 
                     L 81.4018 -24.013 L 81.9882 -23.7631 L 82.5746 -23.7974 L 83.161 -24.1801 L 83.7474 -23.6481 
                     L 84.3338 -23.951 L 85.5066 -23.7088 L 86.093 -24.0917 L 86.6794 -23.893 L 87.8521 -23.9334 
                     L 88.4385 -24.2155 L 89.0249 -23.9674 L 89.6113 -23.872 L 90.1977 -24.1753 L 90.7841 -23.9952 
                     L 91.9569 -23.9676 L 93.1297 -24.2458 L 94.3025 -24.1144 L 94.8889 -24.0956 L 95.4753 -24.333 
                     L 97.2344 -24.3237 L 97.8208 -24.3795 L 98.9936 -24.214 L 100.166 -24.5861 L 102.512 -24.4011 
                     L 103.098 -24.6686 L 104.271 -24.5234 L 153.528 -24.9418 "
              stroke="black" fill="none" stroke-width="0.5"/>
          </g>
          <defs>
            <clipPath id="clipPath13">
              <rect x="0.479528" y="-118.5" width="103" height="118"/>
            </clipPath>
          </defs>
          <g clip-path="url(#clipPath13)">
            <path d="M -17.6987 -24.8316 L 7.51625 -24.8316 L 8.10264 -25.2399 L 8.68904 -29.5181 L 9.27543 -47.7477 
                     L 9.86182 -99.3157 L 11.0346 -278.675 L 11.621 -284.438 L 12.7938 -109.23 L 13.3802 -51.7476 
                     L 13.9666 -31.0146 L 14.553 -28.0189 L 15.1394 -26.8216 L 16.3121 -26.8229 L 16.8985 -26.365 
                     L 17.4849 -26.1885 L 18.6577 -26.1918 L 19.2441 -26.0633 L 20.4169 -26.5277 L 21.0033 -26.3465 
                     L 21.5897 -26.3273 L 22.1761 -26.8994 L 22.7625 -27.1512 L 23.3489 -27.2253 L 23.9353 -27.5428 
                     L 24.5217 -27.2708 L 25.1081 -27.2263 L 25.6944 -27.4538 L 26.2808 -27.5063 L 26.8672 -28.1869 
                     L 27.4536 -29.9662 L 28.04 -34.0536 L 28.6264 -39.927 L 29.7992 -55.1413 L 30.3856 -56.9226 
                     L 30.972 -53.6571 L 31.5584 -49.0803 L 32.1448 -42.6703 L 33.3176 -34.8037 L 34.4903 -30.9023 
                     L 35.0767 -30.1625 L 35.6631 -30.157 L 36.2495 -29.6644 L 36.8359 -30.1826 L 37.4223 -30.9365 
                     L 38.0087 -31.164 L 38.5951 -33.1792 L 39.1815 -34.7707 L 39.7679 -35.8318 L 40.3543 -35.5185 
                     L 40.9407 -34.1061 L 41.5271 -33.0722 L 42.1135 -30.4935 L 42.6999 -28.8427 L 43.2862 -27.5711 
                     L 44.459 -27.2859 L 45.0454 -27.2504 L 45.6318 -27.0294 L 46.2182 -27.1147 L 46.8046 -27.5182 
                     L 47.391 -27.5259 L 47.9774 -27.7429 L 49.1502 -27.7654 L 49.7366 -28.2863 L 50.323 -28.2698 
                     L 50.9094 -28.9645 L 51.4958 -29.0842 L 52.6685 -30.4238 L 53.2549 -31.1537 L 53.8413 -31.4897 
                     L 54.4277 -30.9203 L 55.0141 -30.9198 L 55.6005 -30.6545 L 56.1869 -30.7432 L 56.7733 -30.658 
                     L 57.3597 -30.2948 L 57.9461 -30.3348 L 58.5325 -30.0473 L 59.1189 -29.3003 L 59.7053 -29.3252 
                     L 60.2917 -28.9341 L 60.878 -28.7137 L 61.4644 -28.6314 L 62.0508 -28.7123 L 62.6372 -28.4973 
                     L 64.3964 -28.2312 L 64.9828 -28.5006 L 65.5692 -28.5289 L 66.1556 -28.3823 L 66.742 -28.6265 
                     L 67.3284 -28.7327 L 67.9148 -29.0025 L 70.2603 -28.5033 L 70.8467 -28.7821 L 72.0195 -28.4396 
                     L 72.6059 -28.5624 L 73.1923 -28.5671 L 73.7787 -28.7271 L 74.3651 -28.6125 L 74.9515 -28.8132 
                     L 75.5379 -29.1267 L 76.1243 -28.7595 L 77.2971 -29.4158 L 77.8835 -29.0876 L 78.4698 -29.2111 
                     L 79.0562 -29.0149 L 79.6426 -29.1856 L 80.8154 -29.1968 L 81.4018 -29.1856 L 81.9882 -29.4685 
                     L 83.161 -29.0588 L 83.7474 -28.9795 L 84.3338 -29.209 L 85.5066 -29.1697 L 86.6794 -29.1854 
                     L 87.2658 -29.0152 L 88.4385 -29.2846 L 89.0249 -29.0106 L 89.6113 -29.2704 L 90.1977 -29.3446 
                     L 90.7841 -29.2893 L 91.3705 -29.0059 L 92.5433 -29.4769 L 93.7161 -29.3608 L 94.3025 -29.5278 
                     L 96.0617 -29.6161 L 96.648 -29.4796 L 97.2344 -29.4863 L 97.8208 -29.6466 L 98.4072 -29.4985 
                     L 98.9936 -29.7217 L 100.753 -29.606 L 101.339 -29.8661 L 102.512 -29.6919 L 103.098 -29.7479 
                     L 103.685 -29.6658 L 104.858 -29.7213 L 153.528 -30.4033 "
              stroke="black" fill="none" stroke-width="0.5"/>
          </g>
          <defs>
            <clipPath id="clipPath14">
              <rect x="0.479528" y="-118.5" width="103" height="118"/>
            </clipPath>
          </defs>
          <g clip-path="url(#clipPath14)">
            <path d="M -17.6987 -30.3741 L 7.51625 -30.4351 L 8.10264 -31.0157 L 8.68904 -36.5111 L 9.27543 -58.2047 
                     L 9.86182 -127.741 L 12.7938 -144.19 L 13.3802 -69.0736 L 13.9666 -42.2345 L 14.553 -36.7862 
                     L 15.1394 -35.6567 L 16.3121 -35.6392 L 16.8985 -35.7574 L 17.4849 -35.6756 L 18.0713 -34.9854 
                     L 18.6577 -34.8982 L 19.8305 -34.0945 L 20.4169 -35.1932 L 21.0033 -34.736 L 21.5897 -35.0386 
                     L 22.1761 -35.2235 L 23.3489 -36.4163 L 23.9353 -36.6099 L 24.5217 -36.527 L 25.1081 -35.6979 
                     L 25.6944 -35.1189 L 26.2808 -35.9262 L 26.8672 -37.578 L 27.4536 -40.8357 L 28.04 -47.1686 
                     L 29.7992 -83.5162 L 30.3856 -88.939 L 30.972 -85.5897 L 31.5584 -79.4541 L 32.1448 -68.4057 
                     L 33.3176 -54.4067 L 33.904 -48.6756 L 34.4903 -46.106 L 35.0767 -44.6743 L 35.6631 -44.0324 
                     L 36.2495 -43.6306 L 36.8359 -44.4056 L 37.4223 -45.5458 L 39.7679 -55.5532 L 40.3543 -56.3563 
                     L 42.1135 -43.9297 L 42.6999 -39.3668 L 43.2862 -36.7098 L 44.459 -35.1299 L 45.0454 -35.3617 
                     L 45.6318 -35.8392 L 46.2182 -35.6821 L 47.391 -36.4689 L 47.9774 -36.3701 L 48.5638 -37.045 
                     L 49.1502 -37.2285 L 49.7366 -37.5433 L 50.323 -38.9271 L 50.9094 -39.4598 L 51.4958 -40.5903 
                     L 52.0821 -42.2804 L 52.6685 -43.5711 L 53.2549 -45.6473 L 53.8413 -46.1764 L 54.4277 -47.3074 
                     L 55.0141 -46.0007 L 55.6005 -45.76 L 56.1869 -45.9435 L 56.7733 -46.2545 L 57.3597 -44.8331 
                     L 57.9461 -44.3283 L 58.5325 -42.8469 L 59.1189 -42.7114 L 59.7053 -40.835 L 60.878 -38.9236 
                     L 61.4644 -38.4015 L 63.2236 -37.4975 L 63.81 -36.9625 L 64.3964 -37.0563 L 64.9828 -36.6968 
                     L 65.5692 -36.9951 L 66.1556 -37.4473 L 66.742 -37.6153 L 67.3284 -37.9744 L 67.9148 -38.1132 
                     L 68.5012 -38.6138 L 69.0876 -37.8852 L 69.6739 -37.5524 L 70.2603 -36.6517 L 71.4331 -36.2149 
                     L 72.0195 -36.1587 L 72.6059 -35.7114 L 73.1923 -36.1875 L 73.7787 -36.1937 L 74.3651 -36.6555 
                     L 74.9515 -36.6271 L 75.5379 -37.1164 L 76.1243 -37.7904 L 76.7107 -37.6147 L 78.4698 -38.3732 
                     L 79.6426 -37.8031 L 80.229 -37.9905 L 81.9882 -37.2122 L 82.5746 -37.333 L 83.161 -37.008 
                     L 83.7474 -37.0239 L 84.3338 -36.7961 L 84.9202 -36.3782 L 87.2658 -35.7085 L 89.0249 -35.4859 
                     L 89.6113 -35.2588 L 91.9569 -35.0494 L 92.5433 -35.3315 L 93.1297 -35.1217 L 93.7161 -35.1738 
                     L 94.3025 -35.4199 L 94.8889 -35.4892 L 95.4753 -35.2668 L 96.0617 -35.4303 L 97.8208 -35.5296 
                     L 98.4072 -35.4543 L 98.9936 -35.5748 L 99.58 -35.3793 L 100.166 -35.3411 L 100.753 -35.7091 
                     L 102.512 -35.5135 L 103.685 -35.5195 L 104.271 -35.3295 L 153.528 -34.7955 "
              stroke="black" fill="none" stroke-width="0.5"/>
          </g>
          <defs>
            <clipPath id="clipPath15">
              <rect x="0.479528" y="-118.5" width="103" height="118"/>
            </clipPath>
          </defs>
          <g clip-path="url(#clipPath15)">
            <path d="M -17.6987 -35.9166 L 7.51625 -35.9777 L 8.10264 -36.6749 L 8.68904 -41.3841 L 9.27543 -65.1362 
                     L 9.86182 -141.986 L 12.7938 -155.558 L 13.3802 -75.7456 L 13.9666 -48.4381 L 14.553 -43.2287 
                     L 15.1394 -42.4657 L 15.7258 -42.7638 L 16.3121 -42.2955 L 16.8985 -43.0617 L 17.4849 -42.6381 
                     L 18.0713 -41.0776 L 18.6577 -41.7122 L 19.2441 -42.1326 L 19.8305 -41.9136 L 20.4169 -42.1088 
                     L 21.0033 -41.9501 L 21.5897 -42.9388 L 22.1761 -43.6214 L 23.3489 -44.794 L 23.9353 -43.8922 
                     L 25.1081 -44.1696 L 25.6944 -43.5958 L 26.2808 -44.2042 L 26.8672 -45.8047 L 27.4536 -49.4166 
                     L 28.04 -55.2791 L 28.6264 -66.3999 L 29.2128 -80.2273 L 29.7992 -91.6499 L 30.3856 -97.6718 
                     L 30.972 -95.3733 L 31.5584 -90.011 L 32.7312 -72.4102 L 33.904 -58.6864 L 34.4903 -55.4264 
                     L 35.0767 -53.4464 L 35.6631 -52.2789 L 36.2495 -54.5324 L 36.8359 -54.3214 L 37.4223 -55.6412 
                     L 38.0087 -58.6753 L 38.5951 -62.2369 L 39.1815 -64.9682 L 39.7679 -67.203 L 40.3543 -65.5036 
                     L 40.9407 -61.9559 L 41.5271 -56.7927 L 42.1135 -50.5496 L 43.2862 -43.6908 L 43.8726 -43.1706 
                     L 44.459 -42.3934 L 45.0454 -42.7233 L 45.6318 -42.7456 L 46.2182 -43.392 L 46.8046 -43.4276 
                     L 47.391 -44.3898 L 47.9774 -44.3859 L 48.5638 -44.6408 L 49.1502 -45.9076 L 49.7366 -46.1595 
                     L 50.323 -47.1929 L 50.9094 -47.8301 L 51.4958 -49.0693 L 52.0821 -51.2766 L 52.6685 -52.6137 
                     L 53.2549 -54.3743 L 53.8413 -55.5521 L 54.4277 -55.2278 L 55.0141 -55.5001 L 55.6005 -54.9692 
                     L 56.1869 -55.5787 L 56.7733 -54.5183 L 57.3597 -54.9014 L 57.9461 -53.1836 L 58.5325 -52.8522 
                     L 59.7053 -49.4039 L 60.2917 -48.6258 L 60.878 -47.5564 L 62.0508 -46.4801 L 63.2236 -45.0211 
                     L 63.81 -45.3362 L 64.3964 -44.9744 L 65.5692 -44.8186 L 66.1556 -45.1549 L 67.3284 -46.4086 
                     L 67.9148 -45.9375 L 68.5012 -46.2693 L 69.0876 -45.6171 L 69.6739 -45.281 L 70.2603 -44.6674 
                     L 70.8467 -43.8377 L 71.4331 -43.9179 L 72.0195 -43.6277 L 72.6059 -43.4702 L 73.1923 -43.8558 
                     L 73.7787 -43.566 L 74.3651 -44.2934 L 74.9515 -44.6569 L 75.5379 -44.6158 L 76.1243 -45.7498 
                     L 76.7107 -45.8409 L 77.2971 -46.2091 L 77.8835 -46.3169 L 78.4698 -46.2122 L 79.0562 -46.455 
                     L 80.229 -46.2708 L 81.4018 -45.3644 L 81.9882 -45.5281 L 82.5746 -45.0001 L 83.161 -45.2173 
                     L 83.7474 -44.7804 L 85.5066 -43.9329 L 86.093 -44.0115 L 86.6794 -43.3337 L 87.2658 -43.5596 
                     L 87.8521 -43.3191 L 88.4385 -42.8907 L 89.0249 -42.6445 L 90.1977 -42.6454 L 90.7841 -42.4656 
                     L 91.3705 -42.6413 L 91.9569 -42.1755 L 92.5433 -42.1093 L 93.1297 -42.6166 L 93.7161 -42.451 
                     L 94.8889 -42.612 L 95.4753 -42.9163 L 96.0617 -42.7162 L 96.648 -43.1515 L 97.2344 -42.7431 
                     L 97.8208 -42.8429 L 98.4072 -42.785 L 98.9936 -42.5567 L 100.166 -42.7612 L 100.753 -42.6516 
                     L 101.926 -42.8437 L 102.512 -42.5931 L 103.098 -42.9024 L 103.685 -42.6502 L 104.271 -42.599 
                     L 153.528 -40.7107 "
              stroke="black" fill="none" stroke-width="0.5"/>
          </g>
          <defs>
            <clipPath id="clipPath16">
              <rect x="0.479528" y="-118.5" width="103" height="118"/>
            </clipPath>
          </defs>
          <g clip-path="url(#clipPath16)">
            <path d="M -17.6987 -41.4591 L 7.51625 -41.5202 L 8.10264 -41.9841 L 8.68904 -48.154 L 9.27543 -74.2575 
                     L 9.86182 -144.304 L 11.621 -411.71 L 13.3802 -83.427 L 13.9666 -55.4194 L 14.553 -48.5838 
                     L 15.7258 -48.8304 L 16.3121 -48.3443 L 16.8985 -48.7347 L 17.4849 -48.5908 L 18.0713 -48.1471 
                     L 18.6577 -48.4078 L 19.2441 -48.1907 L 19.8305 -47.5949 L 20.4169 -48.4321 L 21.0033 -47.9105 
                     L 22.1761 -49.3855 L 22.7625 -51.9568 L 23.3489 -52.2421 L 23.9353 -51.4681 L 24.5217 -50.8863 
                     L 25.1081 -50.5032 L 26.2808 -51.0233 L 26.8672 -52.2946 L 27.4536 -55.9014 L 28.04 -62.6587 
                     L 29.2128 -84.8254 L 29.7992 -99.7658 L 30.3856 -104.402 L 30.972 -101.844 L 31.5584 -96.2008 
                     L 32.7312 -82.8617 L 33.904 -66.3234 L 34.4903 -62.7135 L 35.0767 -62.0917 L 35.6631 -59.4906 
                     L 36.2495 -61.0602 L 36.8359 -62.2158 L 38.5951 -70.0496 L 39.1815 -73.2931 L 39.7679 -74.3883 
                     L 40.3543 -73.8462 L 41.5271 -63.3554 L 42.1135 -57.3784 L 42.6999 -53.2229 L 43.2862 -50.492 
                     L 43.8726 -49.097 L 45.0454 -49.0054 L 45.6318 -49.3183 L 46.2182 -49.291 L 47.391 -50.6013 
                     L 47.9774 -51.6076 L 48.5638 -51.5282 L 49.1502 -52.1989 L 49.7366 -53.477 L 50.9094 -54.6861 
                     L 52.6685 -59.5959 L 53.2549 -60.8247 L 53.8413 -62.5417 L 54.4277 -62.7169 L 55.0141 -62.3466 
                     L 56.1869 -62.7019 L 56.7733 -62.4126 L 57.3597 -62.3394 L 57.9461 -60.5653 L 60.2917 -55.6655 
                     L 60.878 -55.6849 L 61.4644 -53.9784 L 62.0508 -53.0083 L 62.6372 -52.7615 L 63.81 -51.4129 
                     L 64.3964 -51.7808 L 64.9828 -51.9181 L 65.5692 -51.9197 L 66.742 -52.5117 L 67.3284 -52.4258 
                     L 67.9148 -53.2076 L 68.5012 -52.7516 L 69.0876 -52.49 L 69.6739 -51.8054 L 70.2603 -50.7964 
                     L 70.8467 -50.8144 L 71.4331 -49.9819 L 72.0195 -50.2879 L 72.6059 -50.0095 L 73.7787 -50.4526 
                     L 74.3651 -50.8137 L 75.5379 -51.9472 L 76.1243 -52.1308 L 76.7107 -52.7651 L 77.2971 -52.9195 
                     L 77.8835 -53.255 L 78.4698 -53.1376 L 79.0562 -53.4018 L 79.6426 -52.9046 L 80.8154 -52.9905 
                     L 81.9882 -52.2388 L 82.5746 -52.1252 L 84.9202 -51.0746 L 85.5066 -50.6063 L 86.6794 -50.0979 
                     L 87.2658 -50.1704 L 87.8521 -49.6522 L 89.0249 -49.5708 L 89.6113 -49.2802 L 90.7841 -49.2333 
                     L 91.3705 -49.0273 L 91.9569 -48.6642 L 92.5433 -48.8838 L 93.1297 -48.8732 L 94.3025 -49.1853 
                     L 94.8889 -49.3172 L 96.648 -49.3589 L 97.8208 -49.4544 L 98.4072 -49.2421 L 98.9936 -49.4545 
                     L 100.166 -49.2312 L 100.753 -49.3011 L 101.339 -49.5408 L 103.098 -49.523 L 103.685 -49.5662 
                     L 104.271 -49.462 L 153.528 -46.8121 "
              stroke="black" fill="none" stroke-width="0.5"/>
          </g>
        </g>
        <g>
          <!-- Y Labels -->
          <g id="Y_Labels_2">
            <g font-family="Helvetica" font-size="10" fill="black">
              <text x="-7.99866" y="0.924848">0</text>
            </g>
            <g font-family="Helvetica" font-size="10" fill="black">
              <text x="-13.5602" y="-54.5002">10</text>
            </g>
            <g font-family="Helvetica" font-size="10" fill="black">
              <text x="-13.5602" y="-109.925">20</text>
            </g>
          </g>
          <path d="M 0.479528 -2.66158 L 5.06286 -2.66158 M 0.479528 -58.0867 L 5.06286 -58.0867 M 0.479528 -113.512 L 5.06286 -113.512 "
            stroke="black" fill="none" stroke-width="0.5"/>
          <g>
            <g font-family="Helvetica" font-size="10" fill="black">
              <text x="37.8667" y="9.74137">2</text>
            </g>
            <g font-family="Helvetica" font-size="10" fill="black">
              <text x="96.5061" y="9.74137">4</text>
            </g>
          </g>
          <path d="M 40.6475 -0.5 L 40.6475 -5.08333 M 99.2868 -0.5 L 99.2868 -5.08333 "
            stroke="black" fill="none" stroke-width="0.5"/>
        </g>
      </g>
      <path d="M 86.4795 8.27165 L 86.4795 126.272 M 86.4795 126.272 L 189.48 126.272 "
        stroke="black" fill="none" stroke-width="0.5"/>
    </g>
  </g>
</g>
</svg>
