<?xml version="1.0" encoding="UTF-8" standalone="no"?>
<!DOCTYPE svg PUBLIC "-//W3C//DTD SVG 1.1//EN" "http://www.w3.org/Graphics/SVG/1.1/DTD/svg11.dtd">
<svg width="100%" height="100%" viewBox="0 0 386 116" version="1.1" xmlns="http://www.w3.org/2000/svg" xmlns:xlink="http://www.w3.org/1999/xlink" xml:space="preserve" xmlns:serif="http://www.serif.com/" style="fill-rule:evenodd;clip-rule:evenodd;stroke-linecap:round;">
    <g id="Layer-1" serif:id="Layer 1" transform="matrix(2.83465,0,0,2.83465,-150.722,-207.392)">
        <g transform="matrix(0.352778,0,0,0.352778,42.1871,73.8294)">
            <g transform="matrix(17,0,0,17,40.0187,50.3696)">
                <path d="M0.209,-0.316L0.209,-0L0.063,-0L0.063,-0.728L0.206,-0.728L0.206,-0.441C0.222,-0.477 0.244,-0.504 0.271,-0.524C0.298,-0.543 0.332,-0.553 0.373,-0.553C0.429,-0.553 0.475,-0.535 0.509,-0.498C0.543,-0.462 0.561,-0.411 0.561,-0.347L0.561,-0L0.414,-0L0.414,-0.322C0.414,-0.356 0.405,-0.382 0.387,-0.401C0.37,-0.421 0.346,-0.43 0.315,-0.43C0.284,-0.43 0.258,-0.42 0.239,-0.4C0.219,-0.38 0.209,-0.352 0.209,-0.316Z" style="fill-rule:nonzero;"/>
            </g>
            <g transform="matrix(17,0,0,17,50.3116,50.3696)">
                <path d="M0.059,0.193L0.092,0.083L0.11,0.087C0.14,0.096 0.164,0.095 0.183,0.086C0.202,0.076 0.213,0.058 0.216,0.031L0.22,0.001L0.015,-0.546L0.171,-0.546L0.263,-0.263C0.27,-0.239 0.277,-0.215 0.282,-0.192C0.287,-0.168 0.292,-0.144 0.297,-0.12C0.303,-0.145 0.309,-0.169 0.316,-0.192C0.322,-0.216 0.329,-0.239 0.337,-0.263L0.433,-0.546L0.586,-0.546L0.354,0.064C0.338,0.108 0.314,0.143 0.283,0.169C0.252,0.195 0.209,0.208 0.154,0.208C0.135,0.208 0.117,0.207 0.1,0.204C0.083,0.201 0.069,0.198 0.059,0.193Z" style="fill-rule:nonzero;"/>
            </g>
            <g transform="matrix(17,0,0,17,60.2394,50.3696)">
                <path d="M0.262,0.009C0.22,0.009 0.182,-0.002 0.149,-0.023C0.115,-0.045 0.089,-0.077 0.069,-0.118C0.049,-0.16 0.04,-0.211 0.04,-0.272C0.04,-0.334 0.05,-0.386 0.07,-0.428C0.09,-0.469 0.117,-0.501 0.15,-0.521C0.184,-0.542 0.221,-0.553 0.261,-0.553C0.292,-0.553 0.318,-0.548 0.338,-0.537C0.359,-0.527 0.375,-0.514 0.388,-0.499C0.4,-0.483 0.41,-0.468 0.417,-0.454L0.421,-0.454L0.421,-0.728L0.568,-0.728L0.568,-0L0.424,-0L0.424,-0.087L0.417,-0.087C0.41,-0.073 0.4,-0.058 0.387,-0.043C0.375,-0.028 0.358,-0.016 0.337,-0.006C0.317,0.004 0.292,0.009 0.262,0.009ZM0.307,-0.108C0.344,-0.108 0.373,-0.123 0.394,-0.153C0.414,-0.183 0.424,-0.223 0.424,-0.272C0.424,-0.322 0.414,-0.361 0.394,-0.391C0.373,-0.421 0.345,-0.436 0.307,-0.436C0.269,-0.436 0.24,-0.42 0.22,-0.39C0.2,-0.359 0.19,-0.32 0.19,-0.272C0.19,-0.224 0.2,-0.185 0.22,-0.154C0.24,-0.124 0.269,-0.108 0.307,-0.108Z" style="fill-rule:nonzero;"/>
            </g>
            <g transform="matrix(17,0,0,17,70.9557,50.3696)">
                <path d="M0.063,-0L0.063,-0.546L0.204,-0.546L0.204,-0.451L0.21,-0.451C0.22,-0.484 0.237,-0.51 0.26,-0.527C0.284,-0.545 0.311,-0.553 0.342,-0.553C0.358,-0.553 0.374,-0.552 0.389,-0.548L0.389,-0.417C0.383,-0.419 0.373,-0.421 0.361,-0.423C0.348,-0.424 0.336,-0.425 0.326,-0.425C0.292,-0.425 0.264,-0.414 0.242,-0.393C0.22,-0.372 0.209,-0.344 0.209,-0.311L0.209,-0L0.063,-0Z" style="fill-rule:nonzero;"/>
            </g>
            <g transform="matrix(17,0,0,17,77.4635,50.3696)">
                <path d="M0.307,0.011C0.252,0.011 0.205,-0.001 0.165,-0.025C0.125,-0.048 0.094,-0.081 0.072,-0.123C0.05,-0.165 0.04,-0.215 0.04,-0.271C0.04,-0.327 0.05,-0.376 0.072,-0.418C0.094,-0.461 0.125,-0.494 0.165,-0.517C0.205,-0.541 0.252,-0.553 0.307,-0.553C0.361,-0.553 0.409,-0.541 0.449,-0.517C0.489,-0.494 0.52,-0.461 0.541,-0.418C0.563,-0.376 0.574,-0.327 0.574,-0.271C0.574,-0.215 0.563,-0.165 0.541,-0.123C0.52,-0.081 0.489,-0.048 0.449,-0.025C0.409,-0.001 0.361,0.011 0.307,0.011ZM0.307,-0.104C0.346,-0.104 0.375,-0.12 0.395,-0.152C0.415,-0.183 0.425,-0.223 0.425,-0.271C0.425,-0.319 0.415,-0.359 0.395,-0.39C0.375,-0.422 0.346,-0.438 0.307,-0.438C0.268,-0.438 0.238,-0.422 0.219,-0.39C0.199,-0.359 0.189,-0.319 0.189,-0.271C0.189,-0.223 0.199,-0.183 0.219,-0.152C0.238,-0.12 0.268,-0.104 0.307,-0.104Z" style="fill-rule:nonzero;"/>
            </g>
            <g transform="matrix(17,0,0,17,87.8893,50.3696)">
                <path d="M0.063,0.204L0.063,-0.546L0.207,-0.546L0.207,-0.454L0.213,-0.454C0.22,-0.468 0.229,-0.483 0.242,-0.499C0.254,-0.514 0.271,-0.527 0.292,-0.537C0.312,-0.548 0.338,-0.553 0.369,-0.553C0.41,-0.553 0.446,-0.542 0.48,-0.521C0.514,-0.501 0.54,-0.469 0.56,-0.428C0.58,-0.386 0.59,-0.334 0.59,-0.272C0.59,-0.211 0.581,-0.16 0.561,-0.118C0.542,-0.077 0.515,-0.045 0.481,-0.023C0.448,-0.002 0.41,0.009 0.368,0.009C0.339,0.009 0.313,0.004 0.293,-0.006C0.272,-0.016 0.256,-0.028 0.243,-0.043C0.23,-0.058 0.22,-0.073 0.213,-0.087L0.209,-0.087L0.209,0.204L0.063,0.204ZM0.323,-0.108C0.361,-0.108 0.39,-0.124 0.41,-0.154C0.43,-0.185 0.44,-0.224 0.44,-0.272C0.44,-0.32 0.431,-0.359 0.411,-0.39C0.391,-0.42 0.362,-0.436 0.323,-0.436C0.285,-0.436 0.256,-0.421 0.236,-0.391C0.216,-0.361 0.206,-0.322 0.206,-0.272C0.206,-0.223 0.216,-0.183 0.236,-0.153C0.257,-0.123 0.286,-0.108 0.323,-0.108Z" style="fill-rule:nonzero;"/>
            </g>
            <g transform="matrix(17,0,0,17,98.6056,50.3696)">
                <path d="M0.209,-0.316L0.209,-0L0.063,-0L0.063,-0.728L0.206,-0.728L0.206,-0.441C0.222,-0.477 0.244,-0.504 0.271,-0.524C0.298,-0.543 0.332,-0.553 0.373,-0.553C0.429,-0.553 0.475,-0.535 0.509,-0.498C0.543,-0.462 0.561,-0.411 0.561,-0.347L0.561,-0L0.414,-0L0.414,-0.322C0.414,-0.356 0.405,-0.382 0.387,-0.401C0.37,-0.421 0.346,-0.43 0.315,-0.43C0.284,-0.43 0.258,-0.42 0.239,-0.4C0.219,-0.38 0.209,-0.352 0.209,-0.316Z" style="fill-rule:nonzero;"/>
            </g>
            <g transform="matrix(17,0,0,17,109.189,50.3696)">
                <path d="M0.063,-0L0.063,-0.546L0.209,-0.546L0.209,-0L0.063,-0ZM0.136,-0.617C0.114,-0.617 0.095,-0.625 0.079,-0.639C0.063,-0.654 0.056,-0.672 0.056,-0.692C0.056,-0.713 0.063,-0.731 0.079,-0.746C0.095,-0.76 0.114,-0.768 0.136,-0.768C0.158,-0.768 0.177,-0.76 0.193,-0.746C0.208,-0.731 0.216,-0.713 0.216,-0.692C0.216,-0.672 0.208,-0.654 0.193,-0.639C0.177,-0.625 0.158,-0.617 0.136,-0.617Z" style="fill-rule:nonzero;"/>
            </g>
            <g transform="matrix(17,0,0,17,113.796,50.3696)">
                <rect x="0.063" y="-0.728" width="0.146" height="0.728" style="fill-rule:nonzero;"/>
            </g>
            <g transform="matrix(17,0,0,17,118.403,50.3696)">
                <path d="M0.063,-0L0.063,-0.546L0.209,-0.546L0.209,-0L0.063,-0ZM0.136,-0.617C0.114,-0.617 0.095,-0.625 0.079,-0.639C0.063,-0.654 0.056,-0.672 0.056,-0.692C0.056,-0.713 0.063,-0.731 0.079,-0.746C0.095,-0.76 0.114,-0.768 0.136,-0.768C0.158,-0.768 0.177,-0.76 0.193,-0.746C0.208,-0.731 0.216,-0.713 0.216,-0.692C0.216,-0.672 0.208,-0.654 0.193,-0.639C0.177,-0.625 0.158,-0.617 0.136,-0.617Z" style="fill-rule:nonzero;"/>
            </g>
            <g transform="matrix(17,0,0,17,123.01,50.3696)">
                <path d="M0.307,0.011C0.252,0.011 0.204,-0.001 0.164,-0.025C0.124,-0.048 0.094,-0.081 0.072,-0.123C0.05,-0.165 0.04,-0.215 0.04,-0.271C0.04,-0.327 0.05,-0.376 0.072,-0.418C0.094,-0.461 0.124,-0.494 0.164,-0.517C0.204,-0.541 0.252,-0.553 0.307,-0.553C0.371,-0.553 0.425,-0.537 0.469,-0.504C0.512,-0.472 0.539,-0.427 0.549,-0.371L0.413,-0.346C0.407,-0.374 0.395,-0.396 0.377,-0.413C0.359,-0.429 0.336,-0.438 0.308,-0.438C0.269,-0.438 0.239,-0.422 0.219,-0.391C0.199,-0.361 0.189,-0.32 0.189,-0.271C0.189,-0.222 0.199,-0.182 0.219,-0.151C0.239,-0.12 0.269,-0.104 0.308,-0.104C0.336,-0.104 0.36,-0.113 0.378,-0.13C0.396,-0.147 0.408,-0.17 0.414,-0.2L0.55,-0.175C0.54,-0.117 0.513,-0.072 0.47,-0.039C0.426,-0.006 0.372,0.011 0.307,0.011Z" style="fill-rule:nonzero;"/>
            </g>
            <g transform="matrix(17,0,0,17,40.0187,67.3696)">
                <path d="M0.165,-0.327L0.165,-0L0.077,-0L0.077,-0.728L0.165,-0.728L0.165,-0.451C0.183,-0.488 0.206,-0.514 0.234,-0.529C0.261,-0.545 0.293,-0.553 0.329,-0.553C0.384,-0.553 0.429,-0.536 0.463,-0.501C0.497,-0.467 0.514,-0.416 0.514,-0.347L0.514,-0L0.426,-0L0.426,-0.339C0.426,-0.381 0.415,-0.414 0.393,-0.438C0.371,-0.462 0.341,-0.474 0.303,-0.474C0.263,-0.474 0.231,-0.461 0.204,-0.435C0.178,-0.41 0.165,-0.374 0.165,-0.327Z" style="fill-rule:nonzero;"/>
            </g>
            <g transform="matrix(17,0,0,17,50.0709,67.3696)">
                <path d="M0.307,0.012C0.254,0.012 0.208,0 0.17,-0.023C0.132,-0.047 0.102,-0.08 0.082,-0.122C0.061,-0.164 0.051,-0.213 0.051,-0.269C0.051,-0.325 0.061,-0.374 0.081,-0.417C0.101,-0.459 0.13,-0.493 0.167,-0.517C0.204,-0.541 0.247,-0.553 0.296,-0.553C0.325,-0.553 0.354,-0.548 0.382,-0.538C0.41,-0.529 0.436,-0.513 0.459,-0.492C0.482,-0.471 0.5,-0.443 0.514,-0.408C0.527,-0.373 0.534,-0.33 0.534,-0.28L0.534,-0.243L0.14,-0.243C0.142,-0.186 0.158,-0.142 0.189,-0.112C0.219,-0.082 0.259,-0.066 0.307,-0.066C0.339,-0.066 0.367,-0.073 0.39,-0.088C0.414,-0.102 0.43,-0.123 0.44,-0.15L0.525,-0.127C0.513,-0.086 0.487,-0.052 0.448,-0.027C0.41,-0.001 0.363,0.012 0.307,0.012ZM0.14,-0.317L0.445,-0.317C0.441,-0.364 0.426,-0.402 0.401,-0.431C0.376,-0.46 0.341,-0.475 0.296,-0.475C0.265,-0.475 0.238,-0.467 0.216,-0.453C0.193,-0.438 0.175,-0.419 0.162,-0.395C0.149,-0.371 0.142,-0.345 0.14,-0.317Z" style="fill-rule:nonzero;"/>
            </g>
            <g transform="matrix(17,0,0,17,60.1481,67.3696)">
                <path d="M0.23,0.013C0.195,0.013 0.164,0.006 0.136,-0.007C0.108,-0.02 0.085,-0.039 0.069,-0.064C0.052,-0.089 0.044,-0.119 0.044,-0.155C0.044,-0.187 0.05,-0.212 0.063,-0.231C0.075,-0.251 0.091,-0.266 0.112,-0.278C0.133,-0.289 0.156,-0.297 0.181,-0.303C0.206,-0.308 0.231,-0.313 0.256,-0.316C0.289,-0.32 0.315,-0.323 0.336,-0.326C0.356,-0.328 0.372,-0.332 0.382,-0.337C0.392,-0.343 0.396,-0.352 0.396,-0.366L0.396,-0.369C0.396,-0.403 0.387,-0.429 0.368,-0.448C0.348,-0.466 0.32,-0.476 0.282,-0.476C0.243,-0.476 0.212,-0.467 0.19,-0.45C0.168,-0.433 0.153,-0.415 0.144,-0.396L0.06,-0.423C0.074,-0.457 0.092,-0.483 0.116,-0.501C0.14,-0.52 0.166,-0.533 0.195,-0.541C0.223,-0.549 0.252,-0.553 0.28,-0.553C0.298,-0.553 0.319,-0.551 0.342,-0.546C0.365,-0.542 0.388,-0.533 0.409,-0.52C0.431,-0.507 0.449,-0.488 0.463,-0.462C0.477,-0.437 0.484,-0.403 0.484,-0.36L0.484,-0L0.398,-0L0.398,-0.074L0.392,-0.074C0.386,-0.062 0.376,-0.048 0.362,-0.035C0.349,-0.021 0.331,-0.01 0.309,-0.001C0.287,0.008 0.261,0.013 0.23,0.013ZM0.245,-0.065C0.278,-0.065 0.305,-0.071 0.328,-0.084C0.35,-0.097 0.367,-0.113 0.379,-0.134C0.391,-0.154 0.396,-0.175 0.396,-0.197L0.396,-0.273C0.393,-0.269 0.385,-0.265 0.373,-0.261C0.361,-0.258 0.347,-0.255 0.332,-0.252C0.316,-0.25 0.301,-0.248 0.287,-0.246C0.272,-0.244 0.261,-0.243 0.252,-0.242C0.231,-0.239 0.212,-0.235 0.193,-0.228C0.175,-0.222 0.16,-0.213 0.149,-0.2C0.138,-0.188 0.132,-0.172 0.132,-0.151C0.132,-0.123 0.143,-0.101 0.164,-0.087C0.186,-0.072 0.213,-0.065 0.245,-0.065Z" style="fill-rule:nonzero;"/>
            </g>
            <g transform="matrix(17,0,0,17,69.694,67.3696)">
                <path d="M0.282,0.012C0.236,0.012 0.196,0 0.162,-0.023C0.127,-0.046 0.1,-0.079 0.08,-0.121C0.061,-0.163 0.051,-0.214 0.051,-0.271C0.051,-0.329 0.061,-0.379 0.08,-0.421C0.1,-0.463 0.127,-0.496 0.162,-0.519C0.197,-0.541 0.237,-0.553 0.282,-0.553C0.318,-0.553 0.346,-0.547 0.367,-0.535C0.388,-0.523 0.404,-0.51 0.415,-0.495C0.426,-0.481 0.435,-0.468 0.44,-0.458L0.447,-0.458L0.447,-0.728L0.535,-0.728L0.535,-0L0.45,-0L0.45,-0.084L0.44,-0.084C0.435,-0.074 0.426,-0.062 0.414,-0.047C0.403,-0.031 0.386,-0.018 0.365,-0.006C0.344,0.006 0.317,0.012 0.282,0.012ZM0.295,-0.067C0.344,-0.067 0.382,-0.086 0.409,-0.124C0.435,-0.162 0.448,-0.212 0.448,-0.272C0.448,-0.333 0.435,-0.381 0.409,-0.418C0.384,-0.456 0.345,-0.474 0.295,-0.474C0.26,-0.474 0.232,-0.465 0.209,-0.447C0.186,-0.429 0.169,-0.405 0.157,-0.375C0.146,-0.344 0.14,-0.31 0.14,-0.272C0.14,-0.234 0.146,-0.2 0.157,-0.169C0.169,-0.138 0.186,-0.113 0.209,-0.094C0.233,-0.076 0.261,-0.067 0.295,-0.067Z" style="fill-rule:nonzero;"/>
            </g>
            <g transform="matrix(17,0,0,17,84.8844,67.3696)">
                <path d="M0.298,0.216C0.238,0.216 0.189,0.205 0.153,0.183C0.117,0.16 0.091,0.134 0.074,0.104L0.145,0.059C0.153,0.069 0.163,0.081 0.174,0.093C0.186,0.106 0.201,0.117 0.221,0.126C0.241,0.135 0.266,0.139 0.298,0.139C0.342,0.139 0.378,0.129 0.406,0.108C0.434,0.087 0.448,0.054 0.448,0.009L0.448,-0.1L0.44,-0.1C0.434,-0.09 0.425,-0.077 0.414,-0.063C0.403,-0.049 0.386,-0.036 0.365,-0.025C0.344,-0.014 0.316,-0.009 0.281,-0.009C0.238,-0.009 0.198,-0.019 0.164,-0.04C0.129,-0.06 0.101,-0.091 0.081,-0.13C0.061,-0.17 0.051,-0.218 0.051,-0.275C0.051,-0.332 0.061,-0.381 0.081,-0.422C0.1,-0.464 0.128,-0.496 0.163,-0.519C0.198,-0.541 0.238,-0.553 0.283,-0.553C0.318,-0.553 0.346,-0.547 0.367,-0.535C0.388,-0.524 0.405,-0.511 0.416,-0.496C0.427,-0.481 0.436,-0.468 0.442,-0.458L0.451,-0.458L0.451,-0.546L0.536,-0.546L0.536,0.014C0.536,0.061 0.526,0.099 0.504,0.129C0.483,0.159 0.455,0.181 0.419,0.195C0.383,0.209 0.343,0.216 0.298,0.216ZM0.296,-0.087C0.345,-0.087 0.383,-0.104 0.41,-0.137C0.436,-0.171 0.449,-0.218 0.449,-0.277C0.449,-0.335 0.436,-0.383 0.41,-0.419C0.385,-0.456 0.346,-0.474 0.296,-0.474C0.261,-0.474 0.233,-0.465 0.209,-0.448C0.186,-0.43 0.169,-0.406 0.157,-0.376C0.146,-0.347 0.14,-0.314 0.14,-0.277C0.14,-0.221 0.153,-0.176 0.18,-0.14C0.206,-0.105 0.245,-0.087 0.296,-0.087Z" style="fill-rule:nonzero;"/>
            </g>
            <g transform="matrix(17,0,0,17,95.3102,67.3696)">
                <path d="M0.077,-0L0.077,-0.546L0.162,-0.546L0.162,-0.462L0.168,-0.462C0.178,-0.49 0.196,-0.512 0.222,-0.529C0.248,-0.545 0.277,-0.554 0.31,-0.554C0.316,-0.554 0.324,-0.554 0.333,-0.553C0.342,-0.553 0.349,-0.553 0.354,-0.552L0.354,-0.464C0.351,-0.465 0.345,-0.465 0.334,-0.467C0.324,-0.468 0.313,-0.469 0.301,-0.469C0.262,-0.469 0.229,-0.457 0.204,-0.433C0.178,-0.409 0.165,-0.379 0.165,-0.342L0.165,-0L0.077,-0Z" style="fill-rule:nonzero;"/>
            </g>
            <g transform="matrix(17,0,0,17,101.428,67.3696)">
                <path d="M0.299,0.012C0.25,0.012 0.206,0 0.169,-0.023C0.132,-0.047 0.103,-0.08 0.082,-0.122C0.061,-0.164 0.051,-0.214 0.051,-0.27C0.051,-0.326 0.061,-0.376 0.082,-0.419C0.103,-0.461 0.132,-0.494 0.169,-0.518C0.206,-0.541 0.25,-0.553 0.299,-0.553C0.349,-0.553 0.393,-0.541 0.43,-0.518C0.468,-0.494 0.497,-0.461 0.518,-0.419C0.538,-0.376 0.549,-0.326 0.549,-0.27C0.549,-0.214 0.538,-0.164 0.518,-0.122C0.497,-0.08 0.468,-0.047 0.43,-0.023C0.393,0 0.349,0.012 0.299,0.012ZM0.299,-0.067C0.336,-0.067 0.366,-0.076 0.39,-0.095C0.414,-0.114 0.431,-0.139 0.443,-0.17C0.454,-0.2 0.46,-0.234 0.46,-0.27C0.46,-0.306 0.454,-0.339 0.443,-0.37C0.431,-0.401 0.414,-0.427 0.39,-0.446C0.366,-0.465 0.336,-0.474 0.299,-0.474C0.263,-0.474 0.233,-0.465 0.209,-0.446C0.186,-0.427 0.169,-0.402 0.157,-0.371C0.146,-0.34 0.14,-0.306 0.14,-0.27C0.14,-0.234 0.146,-0.2 0.157,-0.17C0.169,-0.139 0.186,-0.114 0.209,-0.095C0.233,-0.076 0.263,-0.067 0.299,-0.067Z" style="fill-rule:nonzero;"/>
            </g>
            <g transform="matrix(17,0,0,17,111.621,67.3696)">
                <path d="M0.262,0.007C0.207,0.007 0.163,-0.01 0.128,-0.044C0.094,-0.079 0.077,-0.13 0.077,-0.199L0.077,-0.546L0.165,-0.546L0.165,-0.207C0.165,-0.165 0.176,-0.132 0.198,-0.108C0.22,-0.084 0.25,-0.072 0.289,-0.072C0.328,-0.072 0.36,-0.085 0.386,-0.111C0.413,-0.136 0.426,-0.172 0.426,-0.219L0.426,-0.546L0.514,-0.546L0.514,-0L0.429,-0L0.429,-0.102C0.411,-0.062 0.388,-0.034 0.359,-0.018C0.33,-0.001 0.298,0.007 0.262,0.007Z" style="fill-rule:nonzero;"/>
            </g>
            <g transform="matrix(17,0,0,17,121.673,67.3696)">
                <path d="M0.077,0.204L0.077,-0.546L0.162,-0.546L0.162,-0.458L0.172,-0.458C0.178,-0.468 0.187,-0.481 0.198,-0.495C0.209,-0.51 0.225,-0.523 0.246,-0.535C0.266,-0.547 0.295,-0.553 0.33,-0.553C0.376,-0.553 0.416,-0.541 0.45,-0.519C0.485,-0.496 0.512,-0.463 0.532,-0.421C0.552,-0.379 0.562,-0.329 0.562,-0.271C0.562,-0.214 0.552,-0.163 0.532,-0.121C0.513,-0.079 0.486,-0.046 0.451,-0.023C0.416,0 0.376,0.012 0.331,0.012C0.296,0.012 0.268,0.006 0.247,-0.006C0.226,-0.018 0.21,-0.031 0.198,-0.047C0.187,-0.062 0.178,-0.074 0.172,-0.084L0.165,-0.084L0.165,0.204L0.077,0.204ZM0.317,-0.067C0.352,-0.067 0.38,-0.076 0.403,-0.094C0.426,-0.113 0.443,-0.138 0.455,-0.169C0.466,-0.2 0.472,-0.234 0.472,-0.272C0.472,-0.31 0.466,-0.344 0.455,-0.375C0.444,-0.405 0.427,-0.429 0.404,-0.447C0.381,-0.465 0.352,-0.474 0.317,-0.474C0.267,-0.474 0.229,-0.456 0.203,-0.418C0.177,-0.381 0.164,-0.333 0.164,-0.272C0.164,-0.212 0.177,-0.162 0.204,-0.124C0.23,-0.086 0.268,-0.067 0.317,-0.067Z" style="fill-rule:nonzero;"/>
            </g>
        </g>
        <g transform="matrix(0.352778,0,0,0.352778,106.212,72.7949)">
            <g transform="matrix(17,0,0,17,40.0187,50.3696)">
                <path d="M0.209,-0.316L0.209,-0L0.063,-0L0.063,-0.728L0.206,-0.728L0.206,-0.441C0.222,-0.477 0.244,-0.504 0.271,-0.524C0.298,-0.543 0.332,-0.553 0.373,-0.553C0.429,-0.553 0.475,-0.535 0.509,-0.498C0.543,-0.462 0.561,-0.411 0.561,-0.347L0.561,-0L0.414,-0L0.414,-0.322C0.414,-0.356 0.405,-0.382 0.387,-0.401C0.37,-0.421 0.346,-0.43 0.315,-0.43C0.284,-0.43 0.258,-0.42 0.239,-0.4C0.219,-0.38 0.209,-0.352 0.209,-0.316Z" style="fill-rule:nonzero;"/>
            </g>
            <g transform="matrix(17,0,0,17,50.3116,50.3696)">
                <path d="M0.059,0.193L0.092,0.083L0.11,0.087C0.14,0.096 0.164,0.095 0.183,0.086C0.202,0.076 0.213,0.058 0.216,0.031L0.22,0.001L0.015,-0.546L0.171,-0.546L0.263,-0.263C0.27,-0.239 0.277,-0.215 0.282,-0.192C0.287,-0.168 0.292,-0.144 0.297,-0.12C0.303,-0.145 0.309,-0.169 0.316,-0.192C0.322,-0.216 0.329,-0.239 0.337,-0.263L0.433,-0.546L0.586,-0.546L0.354,0.064C0.338,0.108 0.314,0.143 0.283,0.169C0.252,0.195 0.209,0.208 0.154,0.208C0.135,0.208 0.117,0.207 0.1,0.204C0.083,0.201 0.069,0.198 0.059,0.193Z" style="fill-rule:nonzero;"/>
            </g>
            <g transform="matrix(17,0,0,17,60.2394,50.3696)">
                <path d="M0.262,0.009C0.22,0.009 0.182,-0.002 0.149,-0.023C0.115,-0.045 0.089,-0.077 0.069,-0.118C0.049,-0.16 0.04,-0.211 0.04,-0.272C0.04,-0.334 0.05,-0.386 0.07,-0.428C0.09,-0.469 0.117,-0.501 0.15,-0.521C0.184,-0.542 0.221,-0.553 0.261,-0.553C0.292,-0.553 0.318,-0.548 0.338,-0.537C0.359,-0.527 0.375,-0.514 0.388,-0.499C0.4,-0.483 0.41,-0.468 0.417,-0.454L0.421,-0.454L0.421,-0.728L0.568,-0.728L0.568,-0L0.424,-0L0.424,-0.087L0.417,-0.087C0.41,-0.073 0.4,-0.058 0.387,-0.043C0.375,-0.028 0.358,-0.016 0.337,-0.006C0.317,0.004 0.292,0.009 0.262,0.009ZM0.307,-0.108C0.344,-0.108 0.373,-0.123 0.394,-0.153C0.414,-0.183 0.424,-0.223 0.424,-0.272C0.424,-0.322 0.414,-0.361 0.394,-0.391C0.373,-0.421 0.345,-0.436 0.307,-0.436C0.269,-0.436 0.24,-0.42 0.22,-0.39C0.2,-0.359 0.19,-0.32 0.19,-0.272C0.19,-0.224 0.2,-0.185 0.22,-0.154C0.24,-0.124 0.269,-0.108 0.307,-0.108Z" style="fill-rule:nonzero;"/>
            </g>
            <g transform="matrix(17,0,0,17,70.9557,50.3696)">
                <path d="M0.063,-0L0.063,-0.546L0.204,-0.546L0.204,-0.451L0.21,-0.451C0.22,-0.484 0.237,-0.51 0.26,-0.527C0.284,-0.545 0.311,-0.553 0.342,-0.553C0.358,-0.553 0.374,-0.552 0.389,-0.548L0.389,-0.417C0.383,-0.419 0.373,-0.421 0.361,-0.423C0.348,-0.424 0.336,-0.425 0.326,-0.425C0.292,-0.425 0.264,-0.414 0.242,-0.393C0.22,-0.372 0.209,-0.344 0.209,-0.311L0.209,-0L0.063,-0Z" style="fill-rule:nonzero;"/>
            </g>
            <g transform="matrix(17,0,0,17,77.4635,50.3696)">
                <path d="M0.307,0.011C0.252,0.011 0.205,-0.001 0.165,-0.025C0.125,-0.048 0.094,-0.081 0.072,-0.123C0.05,-0.165 0.04,-0.215 0.04,-0.271C0.04,-0.327 0.05,-0.376 0.072,-0.418C0.094,-0.461 0.125,-0.494 0.165,-0.517C0.205,-0.541 0.252,-0.553 0.307,-0.553C0.361,-0.553 0.409,-0.541 0.449,-0.517C0.489,-0.494 0.52,-0.461 0.541,-0.418C0.563,-0.376 0.574,-0.327 0.574,-0.271C0.574,-0.215 0.563,-0.165 0.541,-0.123C0.52,-0.081 0.489,-0.048 0.449,-0.025C0.409,-0.001 0.361,0.011 0.307,0.011ZM0.307,-0.104C0.346,-0.104 0.375,-0.12 0.395,-0.152C0.415,-0.183 0.425,-0.223 0.425,-0.271C0.425,-0.319 0.415,-0.359 0.395,-0.39C0.375,-0.422 0.346,-0.438 0.307,-0.438C0.268,-0.438 0.238,-0.422 0.219,-0.39C0.199,-0.359 0.189,-0.319 0.189,-0.271C0.189,-0.223 0.199,-0.183 0.219,-0.152C0.238,-0.12 0.268,-0.104 0.307,-0.104Z" style="fill-rule:nonzero;"/>
            </g>
            <g transform="matrix(17,0,0,17,87.8893,50.3696)">
                <path d="M0.063,0.204L0.063,-0.546L0.207,-0.546L0.207,-0.454L0.213,-0.454C0.22,-0.468 0.229,-0.483 0.242,-0.499C0.254,-0.514 0.271,-0.527 0.292,-0.537C0.312,-0.548 0.338,-0.553 0.369,-0.553C0.41,-0.553 0.446,-0.542 0.48,-0.521C0.514,-0.501 0.54,-0.469 0.56,-0.428C0.58,-0.386 0.59,-0.334 0.59,-0.272C0.59,-0.211 0.581,-0.16 0.561,-0.118C0.542,-0.077 0.515,-0.045 0.481,-0.023C0.448,-0.002 0.41,0.009 0.368,0.009C0.339,0.009 0.313,0.004 0.293,-0.006C0.272,-0.016 0.256,-0.028 0.243,-0.043C0.23,-0.058 0.22,-0.073 0.213,-0.087L0.209,-0.087L0.209,0.204L0.063,0.204ZM0.323,-0.108C0.361,-0.108 0.39,-0.124 0.41,-0.154C0.43,-0.185 0.44,-0.224 0.44,-0.272C0.44,-0.32 0.431,-0.359 0.411,-0.39C0.391,-0.42 0.362,-0.436 0.323,-0.436C0.285,-0.436 0.256,-0.421 0.236,-0.391C0.216,-0.361 0.206,-0.322 0.206,-0.272C0.206,-0.223 0.216,-0.183 0.236,-0.153C0.257,-0.123 0.286,-0.108 0.323,-0.108Z" style="fill-rule:nonzero;"/>
            </g>
            <g transform="matrix(17,0,0,17,98.6056,50.3696)">
                <path d="M0.209,-0.316L0.209,-0L0.063,-0L0.063,-0.728L0.206,-0.728L0.206,-0.441C0.222,-0.477 0.244,-0.504 0.271,-0.524C0.298,-0.543 0.332,-0.553 0.373,-0.553C0.429,-0.553 0.475,-0.535 0.509,-0.498C0.543,-0.462 0.561,-0.411 0.561,-0.347L0.561,-0L0.414,-0L0.414,-0.322C0.414,-0.356 0.405,-0.382 0.387,-0.401C0.37,-0.421 0.346,-0.43 0.315,-0.43C0.284,-0.43 0.258,-0.42 0.239,-0.4C0.219,-0.38 0.209,-0.352 0.209,-0.316Z" style="fill-rule:nonzero;"/>
            </g>
            <g transform="matrix(17,0,0,17,109.189,50.3696)">
                <path d="M0.307,0.011C0.252,0.011 0.205,-0.001 0.165,-0.025C0.125,-0.048 0.094,-0.081 0.072,-0.123C0.05,-0.165 0.04,-0.215 0.04,-0.271C0.04,-0.327 0.05,-0.376 0.072,-0.418C0.094,-0.461 0.125,-0.494 0.165,-0.517C0.205,-0.541 0.252,-0.553 0.307,-0.553C0.361,-0.553 0.409,-0.541 0.449,-0.517C0.489,-0.494 0.52,-0.461 0.541,-0.418C0.563,-0.376 0.574,-0.327 0.574,-0.271C0.574,-0.215 0.563,-0.165 0.541,-0.123C0.52,-0.081 0.489,-0.048 0.449,-0.025C0.409,-0.001 0.361,0.011 0.307,0.011ZM0.307,-0.104C0.346,-0.104 0.375,-0.12 0.395,-0.152C0.415,-0.183 0.425,-0.223 0.425,-0.271C0.425,-0.319 0.415,-0.359 0.395,-0.39C0.375,-0.422 0.346,-0.438 0.307,-0.438C0.268,-0.438 0.238,-0.422 0.219,-0.39C0.199,-0.359 0.189,-0.319 0.189,-0.271C0.189,-0.223 0.199,-0.183 0.219,-0.152C0.238,-0.12 0.268,-0.104 0.307,-0.104Z" style="fill-rule:nonzero;"/>
            </g>
            <g transform="matrix(17,0,0,17,119.615,50.3696)">
                <path d="M0.368,0.009C0.339,0.009 0.313,0.004 0.293,-0.006C0.272,-0.016 0.256,-0.028 0.243,-0.043C0.23,-0.058 0.22,-0.073 0.213,-0.087L0.207,-0.087L0.207,-0L0.063,-0L0.063,-0.728L0.209,-0.728L0.209,-0.454L0.213,-0.454C0.22,-0.468 0.229,-0.483 0.242,-0.499C0.254,-0.514 0.271,-0.527 0.292,-0.537C0.312,-0.548 0.338,-0.553 0.369,-0.553C0.41,-0.553 0.446,-0.542 0.48,-0.521C0.514,-0.501 0.54,-0.469 0.56,-0.428C0.58,-0.386 0.59,-0.334 0.59,-0.272C0.59,-0.211 0.581,-0.16 0.561,-0.118C0.542,-0.077 0.515,-0.045 0.481,-0.023C0.448,-0.002 0.41,0.009 0.368,0.009ZM0.323,-0.108C0.361,-0.108 0.39,-0.124 0.41,-0.154C0.43,-0.185 0.44,-0.224 0.44,-0.272C0.44,-0.32 0.431,-0.359 0.411,-0.39C0.391,-0.42 0.362,-0.436 0.323,-0.436C0.285,-0.436 0.256,-0.421 0.236,-0.391C0.216,-0.361 0.206,-0.322 0.206,-0.272C0.206,-0.223 0.216,-0.183 0.236,-0.153C0.257,-0.123 0.286,-0.108 0.323,-0.108Z" style="fill-rule:nonzero;"/>
            </g>
            <g transform="matrix(17,0,0,17,130.331,50.3696)">
                <path d="M0.063,-0L0.063,-0.546L0.209,-0.546L0.209,-0L0.063,-0ZM0.136,-0.617C0.114,-0.617 0.095,-0.625 0.079,-0.639C0.063,-0.654 0.056,-0.672 0.056,-0.692C0.056,-0.713 0.063,-0.731 0.079,-0.746C0.095,-0.76 0.114,-0.768 0.136,-0.768C0.158,-0.768 0.177,-0.76 0.193,-0.746C0.208,-0.731 0.216,-0.713 0.216,-0.692C0.216,-0.672 0.208,-0.654 0.193,-0.639C0.177,-0.625 0.158,-0.617 0.136,-0.617Z" style="fill-rule:nonzero;"/>
            </g>
            <g transform="matrix(17,0,0,17,134.938,50.3696)">
                <path d="M0.307,0.011C0.252,0.011 0.204,-0.001 0.164,-0.025C0.124,-0.048 0.094,-0.081 0.072,-0.123C0.05,-0.165 0.04,-0.215 0.04,-0.271C0.04,-0.327 0.05,-0.376 0.072,-0.418C0.094,-0.461 0.124,-0.494 0.164,-0.517C0.204,-0.541 0.252,-0.553 0.307,-0.553C0.371,-0.553 0.425,-0.537 0.469,-0.504C0.512,-0.472 0.539,-0.427 0.549,-0.371L0.413,-0.346C0.407,-0.374 0.395,-0.396 0.377,-0.413C0.359,-0.429 0.336,-0.438 0.308,-0.438C0.269,-0.438 0.239,-0.422 0.219,-0.391C0.199,-0.361 0.189,-0.32 0.189,-0.271C0.189,-0.222 0.199,-0.182 0.219,-0.151C0.239,-0.12 0.269,-0.104 0.308,-0.104C0.336,-0.104 0.36,-0.113 0.378,-0.13C0.396,-0.147 0.408,-0.17 0.414,-0.2L0.55,-0.175C0.54,-0.117 0.513,-0.072 0.47,-0.039C0.426,-0.006 0.372,0.011 0.307,0.011Z" style="fill-rule:nonzero;"/>
            </g>
            <g transform="matrix(17,0,0,17,148.966,50.3696)">
                <path d="M0.292,-0.546L0.292,-0.471L0.18,-0.471L0.18,-0.142C0.18,-0.117 0.185,-0.099 0.195,-0.088C0.205,-0.077 0.221,-0.071 0.244,-0.071C0.25,-0.071 0.257,-0.072 0.265,-0.073C0.274,-0.075 0.282,-0.076 0.289,-0.077L0.307,-0.003C0.298,0 0.288,0.003 0.276,0.004C0.265,0.006 0.253,0.007 0.242,0.007C0.194,0.007 0.158,-0.006 0.131,-0.031C0.105,-0.055 0.092,-0.09 0.092,-0.135L0.092,-0.471L0.01,-0.471L0.01,-0.546L0.092,-0.546L0.092,-0.676L0.18,-0.676L0.18,-0.546L0.292,-0.546Z" style="fill-rule:nonzero;"/>
            </g>
            <g transform="matrix(17,0,0,17,154.611,50.3696)">
                <path d="M0.23,0.013C0.195,0.013 0.164,0.006 0.136,-0.007C0.108,-0.02 0.085,-0.039 0.069,-0.064C0.052,-0.089 0.044,-0.119 0.044,-0.155C0.044,-0.187 0.05,-0.212 0.063,-0.231C0.075,-0.251 0.091,-0.266 0.112,-0.278C0.133,-0.289 0.156,-0.297 0.181,-0.303C0.206,-0.308 0.231,-0.313 0.256,-0.316C0.289,-0.32 0.315,-0.323 0.336,-0.326C0.356,-0.328 0.372,-0.332 0.382,-0.337C0.392,-0.343 0.396,-0.352 0.396,-0.366L0.396,-0.369C0.396,-0.403 0.387,-0.429 0.368,-0.448C0.348,-0.466 0.32,-0.476 0.282,-0.476C0.243,-0.476 0.212,-0.467 0.19,-0.45C0.168,-0.433 0.153,-0.415 0.144,-0.396L0.06,-0.423C0.074,-0.457 0.092,-0.483 0.116,-0.501C0.14,-0.52 0.166,-0.533 0.195,-0.541C0.223,-0.549 0.252,-0.553 0.28,-0.553C0.298,-0.553 0.319,-0.551 0.342,-0.546C0.365,-0.542 0.388,-0.533 0.409,-0.52C0.431,-0.507 0.449,-0.488 0.463,-0.462C0.477,-0.437 0.484,-0.403 0.484,-0.36L0.484,-0L0.398,-0L0.398,-0.074L0.392,-0.074C0.386,-0.062 0.376,-0.048 0.362,-0.035C0.349,-0.021 0.331,-0.01 0.309,-0.001C0.287,0.008 0.261,0.013 0.23,0.013ZM0.245,-0.065C0.278,-0.065 0.305,-0.071 0.328,-0.084C0.35,-0.097 0.367,-0.113 0.379,-0.134C0.391,-0.154 0.396,-0.175 0.396,-0.197L0.396,-0.273C0.393,-0.269 0.385,-0.265 0.373,-0.261C0.361,-0.258 0.347,-0.255 0.332,-0.252C0.316,-0.25 0.301,-0.248 0.287,-0.246C0.272,-0.244 0.261,-0.243 0.252,-0.242C0.231,-0.239 0.212,-0.235 0.193,-0.228C0.175,-0.222 0.16,-0.213 0.149,-0.2C0.138,-0.188 0.132,-0.172 0.132,-0.151C0.132,-0.123 0.143,-0.101 0.164,-0.087C0.186,-0.072 0.213,-0.065 0.245,-0.065Z" style="fill-rule:nonzero;"/>
            </g>
            <g transform="matrix(17,0,0,17,164.157,50.3696)">
                <path d="M0.077,-0L0.077,-0.546L0.165,-0.546L0.165,-0L0.077,-0ZM0.122,-0.635C0.105,-0.635 0.091,-0.641 0.079,-0.652C0.067,-0.664 0.061,-0.677 0.061,-0.693C0.061,-0.71 0.067,-0.723 0.079,-0.735C0.091,-0.746 0.105,-0.751 0.122,-0.751C0.139,-0.751 0.153,-0.746 0.165,-0.735C0.177,-0.723 0.183,-0.71 0.183,-0.693C0.183,-0.677 0.177,-0.664 0.165,-0.652C0.153,-0.641 0.139,-0.635 0.122,-0.635Z" style="fill-rule:nonzero;"/>
            </g>
            <g transform="matrix(17,0,0,17,168.274,50.3696)">
                <rect x="0.077" y="-0.728" width="0.088" height="0.728" style="fill-rule:nonzero;"/>
            </g>
        </g>
        <path id="path2318" d="M111.098,93.928C111.097,93.928 111.095,93.928 111.094,93.928C109.916,93.928 108.946,94.896 108.944,96.074C108.944,96.076 108.944,96.077 108.944,96.079C108.944,97.257 109.912,98.227 111.09,98.229C111.477,98.229 111.863,98.28 112.137,98.348C114.184,98.918 115.449,99.986 117.883,100.957C118.91,101.398 120.21,101.755 121.696,101.748L122.145,101.748C123.63,101.755 124.929,101.398 125.956,100.957C128.39,99.986 129.657,98.918 131.704,98.348C131.975,98.28 132.359,98.23 132.743,98.229C133.128,98.229 133.514,98.28 133.788,98.348C135.835,98.918 137.102,99.986 139.536,100.957C140.562,101.398 141.861,101.755 143.346,101.748L143.407,101.748C144.892,101.755 146.193,101.398 147.219,100.957C149.653,99.985 150.918,98.918 152.965,98.348C153.236,98.28 153.621,98.23 154.004,98.229C154.391,98.229 154.775,98.279 155.049,98.348C157.096,98.918 158.362,99.986 160.797,100.957C161.824,101.398 163.123,101.755 164.608,101.748L164.668,101.748C166.153,101.755 167.454,101.398 168.481,100.957C170.915,99.985 172.18,98.918 174.227,98.348C174.499,98.28 174.888,98.229 175.274,98.229C176.453,98.226 177.421,97.253 177.418,96.074C177.416,94.895 176.445,93.926 175.266,93.928C174.553,93.929 173.843,94.005 173.149,94.182L173.129,94.188L173.108,94.193C170.208,94.992 168.66,96.267 166.852,96.983L166.823,96.994L166.791,97.006C166.254,97.238 165.435,97.453 164.688,97.449L164.588,97.449C163.842,97.453 163.022,97.239 162.486,97.008L162.455,96.994L162.424,96.983C160.615,96.267 159.068,94.992 156.168,94.193L156.149,94.188L156.127,94.182C155.434,94.005 154.724,93.929 154.01,93.928L154.004,93.928C153.291,93.929 152.581,94.005 151.887,94.182L151.865,94.188L151.846,94.193C148.946,94.992 147.398,96.267 145.59,96.983L145.559,96.994L145.529,97.006C144.992,97.238 144.173,97.453 143.426,97.449L143.326,97.449C142.579,97.453 141.76,97.238 141.222,97.006L141.193,96.994L141.162,96.983C139.354,96.267 137.806,94.992 134.906,94.193L134.885,94.188L134.865,94.182C134.171,94.005 133.461,93.929 132.748,93.928L132.742,93.928C132.028,93.929 131.319,94.005 130.625,94.182L130.603,94.188L130.584,94.193C127.684,94.992 126.136,96.267 124.328,96.983L124.297,96.994L124.267,97.006C123.73,97.238 122.91,97.453 122.164,97.449L121.675,97.449C120.928,97.453 120.107,97.238 119.57,97.006L119.541,96.994L119.509,96.983C117.701,96.267 116.153,94.992 113.254,94.193L113.234,94.188L113.213,94.182C112.519,94.005 111.811,93.929 111.097,93.928L111.098,93.928Z" style="fill:url(#_Linear1);fill-rule:nonzero;stroke:rgb(7,57,132);stroke-width:0.3px;"/>
        <g id="g983" transform="matrix(1,0,0,1,2.33321,0.705313)">
            <g style="filter:url(#_Effect2);">
                <g>
                    <g>
                        <path id="path971" d="M151.592,95.4C152.146,95.4 152.698,95.463 153.182,95.587C155.671,96.272 157.073,97.454 159.219,98.302C160.001,98.64 161.065,98.925 162.183,98.92L162.223,98.92" style="fill:none;fill-rule:nonzero;stroke:white;stroke-width:0.5px;"/>
                        <path id="path973" d="M151.592,95.4C151.039,95.4 150.486,95.463 150.002,95.587C147.512,96.272 146.111,97.454 143.965,98.302C143.183,98.64 142.119,98.925 141.001,98.92L140.961,98.92" style="fill:none;fill-rule:nonzero;stroke:white;stroke-width:0.5px;"/>
                        <path id="path975" d="M130.33,95.4C130.883,95.4 131.436,95.463 131.92,95.587C134.41,96.272 135.812,97.454 137.957,98.302C138.74,98.64 139.803,98.925 140.921,98.92L140.961,98.92" style="fill:none;fill-rule:nonzero;stroke:white;stroke-width:0.5px;"/>
                        <path id="path977" d="M107.374,95.257C107.928,95.258 110.175,95.463 110.659,95.587C113.147,96.272 114.55,97.454 116.695,98.302C117.478,98.64 118.541,98.925 119.66,98.92L119.7,98.92" style="fill:none;fill-rule:nonzero;stroke:white;stroke-width:0.5px;"/>
                        <path id="path979" d="M130.33,95.4C129.777,95.4 129.224,95.463 128.74,95.587C126.251,96.272 124.849,97.454 122.703,98.302C121.921,98.64 120.857,98.925 119.739,98.92L119.7,98.92" style="fill:none;fill-rule:nonzero;stroke:white;stroke-width:0.5px;"/>
                        <path id="path981" d="M172.854,95.4C172.301,95.4 171.747,95.463 171.264,95.587C168.774,96.272 167.373,97.454 165.227,98.302C164.445,98.64 163.381,98.925 162.263,98.92L162.223,98.92" style="fill:none;fill-rule:nonzero;stroke:white;stroke-width:0.5px;"/>
                    </g>
                </g>
            </g>
        </g>
        <path id="circle3496" d="M110.862,95.962L110.862,95.962C110.862,101.407 106.382,105.887 100.938,105.887L100.938,105.887C95.494,105.887 91.013,101.407 91.013,95.962L91.013,95.962C91.013,90.518 95.494,86.038 100.938,86.038L100.938,86.038C106.382,86.038 110.862,90.518 110.862,95.962Z" style="fill:rgb(255,153,0);fill-rule:nonzero;"/>
        <g id="circle3498" transform="matrix(0.435267,0,0,0.415662,50.4072,36.5669)">
            <g style="filter:url(#_Effect3);">
                <clipPath id="_clip4">
                    <ellipse cx="116.091" cy="142.893" rx="22.801" ry="23.876"/>
                </clipPath>
                <g clip-path="url(#_clip4)">
                    <path d="M113.277,132.344C113.277,137.122 109.346,141.053 104.568,141.053C99.79,141.053 95.859,137.122 95.859,132.344C95.859,127.566 99.79,123.635 104.568,123.635C109.346,123.635 113.277,127.566 113.277,132.344Z" style="fill:white;fill-opacity:0.48;fill-rule:nonzero;"/>
                </g>
            </g>
        </g>
        <g id="circle3500" transform="matrix(0.811288,0,0,0.774746,12.1776,-8.68388)">
            <g style="filter:url(#_Effect5);">
                <path d="M107.129,131.481C107.129,132.545 106.253,133.42 105.189,133.42C105.189,133.42 105.189,133.42 105.189,133.42C104.125,133.42 103.249,132.545 103.249,131.481L103.249,131.481C103.249,130.416 104.125,129.541 105.189,129.541C105.189,129.541 105.189,129.541 105.189,129.541C106.253,129.541 107.129,130.416 107.129,131.481Z" style="fill:white;fill-opacity:0.75;fill-rule:nonzero;"/>
            </g>
        </g>
        <g id="circle3502" transform="matrix(0.960606,0,0,0.917339,-4.52637,-29.827)">
            <g style="filter:url(#_Effect6);">
                <clipPath id="_clip7">
                    <ellipse cx="109.789" cy="137.124" rx="10.331" ry="10.819"/>
                </clipPath>
                <g clip-path="url(#_clip7)">
                    <path d="M113.277,132.344C113.277,137.122 109.346,141.053 104.568,141.053C99.79,141.053 95.859,137.122 95.859,132.344C95.859,127.566 99.79,123.635 104.568,123.635C109.346,123.635 113.277,127.566 113.277,132.344Z" style="fill:white;fill-opacity:0.48;fill-rule:nonzero;"/>
                </g>
            </g>
        </g>
        <path id="circle3504" d="M110.862,95.962L110.862,95.962C110.862,101.407 106.382,105.887 100.938,105.887L100.938,105.887C95.494,105.887 91.013,101.407 91.013,95.962L91.013,95.962C91.013,90.518 95.494,86.038 100.938,86.038L100.938,86.038C106.382,86.038 110.862,90.518 110.862,95.962Z" style="fill:none;fill-rule:nonzero;stroke:rgb(92,92,92);stroke-width:0.51px;stroke-linecap:square;stroke-linejoin:round;"/>
    </g>
    <defs>
        <linearGradient id="_Linear1" x1="0" y1="0" x2="1" y2="0" gradientUnits="userSpaceOnUse" gradientTransform="matrix(62.1847,0,0,62.1847,125.493,98.8288)"><stop offset="0" style="stop-color:rgb(0,132,200);stop-opacity:1"/><stop offset="1" style="stop-color:rgb(0,132,200);stop-opacity:0"/></linearGradient>
        <filter id="_Effect2" filterUnits="userSpaceOnUse" x="105.395" y="93.2778" width="69.438" height="7.62134">
            <feGaussianBlur in="SourceGraphic" stdDeviation="0.158057"/>
        </filter>
        <filter id="_Effect3" filterUnits="userSpaceOnUse" x="79.0683" y="106.052" width="50.9992" height="52.5831">
            <feGaussianBlur in="SourceGraphic" stdDeviation="2.86209"/>
        </filter>
        <filter id="_Effect5" filterUnits="userSpaceOnUse" x="100.584" y="126.749" width="9.21111" height="9.4626">
            <feGaussianBlur in="SourceGraphic" stdDeviation="0.454423"/>
        </filter>
        <filter id="_Effect6" filterUnits="userSpaceOnUse" x="91.85" y="118.339" width="29.0353" height="30.6815">
            <feGaussianBlur in="SourceGraphic" stdDeviation="1.29686"/>
        </filter>
    </defs>
</svg>
